%TF.GenerationSoftware,KiCad,Pcbnew,(6.0.7)*%
%TF.CreationDate,2022-10-08T21:46:18-07:00*%
%TF.ProjectId,phone-rounded,70686f6e-652d-4726-9f75-6e6465642e6b,rev?*%
%TF.SameCoordinates,Original*%
%TF.FileFunction,Drillmap*%
%TF.FilePolarity,Positive*%
%FSLAX45Y45*%
G04 Gerber Fmt 4.5, Leading zero omitted, Abs format (unit mm)*
G04 Created by KiCad (PCBNEW (6.0.7)) date 2022-10-08 21:46:18*
%MOMM*%
%LPD*%
G01*
G04 APERTURE LIST*
%ADD10C,0.100000*%
%ADD11C,0.200000*%
%ADD12C,0.020000*%
%ADD13C,0.030000*%
%ADD14C,0.040000*%
%ADD15C,0.060000*%
%ADD16C,0.065000*%
%ADD17C,0.070000*%
%ADD18C,0.270000*%
G04 APERTURE END LIST*
D10*
X14450000Y-14702513D02*
X14450000Y-6100000D01*
X10699997Y-14702513D02*
G75*
G03*
X11050000Y-15052513I350003J3D01*
G01*
X11050000Y-15052513D02*
X14100000Y-15052513D01*
X10700000Y-6100000D02*
X10700000Y-14702513D01*
X14100000Y-15052510D02*
G75*
G03*
X14450000Y-14702513I0J350000D01*
G01*
X11050000Y-5750000D02*
X14100000Y-5750000D01*
X14450000Y-6100000D02*
G75*
G03*
X14100000Y-5750000I-350000J0D01*
G01*
X11050000Y-5750000D02*
G75*
G03*
X10700000Y-6100000I4J-350004D01*
G01*
D11*
D12*
X11555000Y-14105000D02*
X11575000Y-14125000D01*
X11575000Y-14105000D02*
X11555000Y-14125000D01*
X11620000Y-14185000D02*
X11640000Y-14205000D01*
X11640000Y-14185000D02*
X11620000Y-14205000D01*
X12458056Y-14301944D02*
X12478056Y-14321944D01*
X12478056Y-14301944D02*
X12458056Y-14321944D01*
X12528322Y-14301678D02*
X12548322Y-14321678D01*
X12548322Y-14301678D02*
X12528322Y-14321678D01*
X12984750Y-13818000D02*
G75*
G03*
X12984750Y-13818000I-10000J0D01*
G01*
X12984750Y-13934000D02*
G75*
G03*
X12984750Y-13934000I-10000J0D01*
G01*
X13042750Y-13876000D02*
G75*
G03*
X13042750Y-13876000I-10000J0D01*
G01*
X13100750Y-13818000D02*
G75*
G03*
X13100750Y-13818000I-10000J0D01*
G01*
X13100750Y-13934000D02*
G75*
G03*
X13100750Y-13934000I-10000J0D01*
G01*
X13276623Y-13078377D02*
G75*
G03*
X13276623Y-13078377I-10000J0D01*
G01*
X13276623Y-13128377D02*
G75*
G03*
X13276623Y-13128377I-10000J0D01*
G01*
X13276623Y-13178377D02*
G75*
G03*
X13276623Y-13178377I-10000J0D01*
G01*
X13276623Y-13228377D02*
G75*
G03*
X13276623Y-13228377I-10000J0D01*
G01*
X13276623Y-13278377D02*
G75*
G03*
X13276623Y-13278377I-10000J0D01*
G01*
X13326623Y-13078377D02*
G75*
G03*
X13326623Y-13078377I-10000J0D01*
G01*
X13326623Y-13128377D02*
G75*
G03*
X13326623Y-13128377I-10000J0D01*
G01*
X13326623Y-13178377D02*
G75*
G03*
X13326623Y-13178377I-10000J0D01*
G01*
X13326623Y-13228377D02*
G75*
G03*
X13326623Y-13228377I-10000J0D01*
G01*
X13326623Y-13278377D02*
G75*
G03*
X13326623Y-13278377I-10000J0D01*
G01*
X13376623Y-13078377D02*
G75*
G03*
X13376623Y-13078377I-10000J0D01*
G01*
X13376623Y-13128377D02*
G75*
G03*
X13376623Y-13128377I-10000J0D01*
G01*
X13376623Y-13178377D02*
G75*
G03*
X13376623Y-13178377I-10000J0D01*
G01*
X13376623Y-13228377D02*
G75*
G03*
X13376623Y-13228377I-10000J0D01*
G01*
X13376623Y-13278377D02*
G75*
G03*
X13376623Y-13278377I-10000J0D01*
G01*
D13*
X10835000Y-14395000D02*
X10835000Y-14425000D01*
X10820000Y-14410000D02*
X10850000Y-14410000D01*
X10850000Y-14035000D02*
X10850000Y-14065000D01*
X10835000Y-14050000D02*
X10865000Y-14050000D01*
X10925000Y-13135000D02*
X10925000Y-13165000D01*
X10910000Y-13150000D02*
X10940000Y-13150000D01*
X10937450Y-12940000D02*
X10937450Y-12970000D01*
X10922450Y-12955000D02*
X10952450Y-12955000D01*
X10952450Y-6999313D02*
X10952450Y-7029313D01*
X10937450Y-7014313D02*
X10967450Y-7014313D01*
X10975000Y-13235000D02*
X10975000Y-13265000D01*
X10960000Y-13250000D02*
X10990000Y-13250000D01*
X10984575Y-6764575D02*
X10984575Y-6794575D01*
X10969575Y-6779575D02*
X10999575Y-6779575D01*
X11025000Y-11985000D02*
X11025000Y-12015000D01*
X11010000Y-12000000D02*
X11040000Y-12000000D01*
X11034426Y-12656447D02*
X11034426Y-12686447D01*
X11019426Y-12671447D02*
X11049426Y-12671447D01*
X11037450Y-9785000D02*
X11037450Y-9815000D01*
X11022450Y-9800000D02*
X11052450Y-9800000D01*
X11050000Y-9935000D02*
X11050000Y-9965000D01*
X11035000Y-9950000D02*
X11065000Y-9950000D01*
X11095000Y-12245000D02*
X11095000Y-12275000D01*
X11080000Y-12260000D02*
X11110000Y-12260000D01*
X11095000Y-13625000D02*
X11095000Y-13655000D01*
X11080000Y-13640000D02*
X11110000Y-13640000D01*
X11100000Y-11660000D02*
X11100000Y-11690000D01*
X11085000Y-11675000D02*
X11115000Y-11675000D01*
X11136629Y-12523197D02*
X11136629Y-12553197D01*
X11121629Y-12538197D02*
X11151629Y-12538197D01*
X11165000Y-12420000D02*
X11165000Y-12450000D01*
X11150000Y-12435000D02*
X11180000Y-12435000D01*
X11165000Y-13455000D02*
X11165000Y-13485000D01*
X11150000Y-13470000D02*
X11180000Y-13470000D01*
X11395000Y-12420000D02*
X11395000Y-12450000D01*
X11380000Y-12435000D02*
X11410000Y-12435000D01*
X11395000Y-13455000D02*
X11395000Y-13485000D01*
X11380000Y-13470000D02*
X11410000Y-13470000D01*
X11400000Y-5910000D02*
X11400000Y-5940000D01*
X11385000Y-5925000D02*
X11415000Y-5925000D01*
X11400000Y-6010000D02*
X11400000Y-6040000D01*
X11385000Y-6025000D02*
X11415000Y-6025000D01*
X11400000Y-6110000D02*
X11400000Y-6140000D01*
X11385000Y-6125000D02*
X11415000Y-6125000D01*
X11400000Y-6210000D02*
X11400000Y-6240000D01*
X11385000Y-6225000D02*
X11415000Y-6225000D01*
X11400000Y-6310000D02*
X11400000Y-6340000D01*
X11385000Y-6325000D02*
X11415000Y-6325000D01*
X11400000Y-14885000D02*
X11400000Y-14915000D01*
X11385000Y-14900000D02*
X11415000Y-14900000D01*
X11435000Y-13285000D02*
X11435000Y-13315000D01*
X11420000Y-13300000D02*
X11450000Y-13300000D01*
X11450000Y-9135000D02*
X11450000Y-9165000D01*
X11435000Y-9150000D02*
X11465000Y-9150000D01*
X11450000Y-14035000D02*
X11450000Y-14065000D01*
X11435000Y-14050000D02*
X11465000Y-14050000D01*
X11465000Y-12245000D02*
X11465000Y-12275000D01*
X11450000Y-12260000D02*
X11480000Y-12260000D01*
X11465000Y-13625000D02*
X11465000Y-13655000D01*
X11450000Y-13640000D02*
X11480000Y-13640000D01*
X11475000Y-13835000D02*
X11475000Y-13865000D01*
X11460000Y-13850000D02*
X11490000Y-13850000D01*
X11478490Y-10241000D02*
X11478490Y-10271000D01*
X11463490Y-10256000D02*
X11493490Y-10256000D01*
X11490000Y-14355000D02*
X11490000Y-14385000D01*
X11475000Y-14370000D02*
X11505000Y-14370000D01*
X11490009Y-13434256D02*
X11490009Y-13464256D01*
X11475009Y-13449256D02*
X11505009Y-13449256D01*
X11500000Y-9235000D02*
X11500000Y-9265000D01*
X11485000Y-9250000D02*
X11515000Y-9250000D01*
X11625000Y-12235000D02*
X11625000Y-12265000D01*
X11610000Y-12250000D02*
X11640000Y-12250000D01*
X11662550Y-12385000D02*
X11662550Y-12415000D01*
X11647550Y-12400000D02*
X11677550Y-12400000D01*
X11670000Y-13130000D02*
X11670000Y-13160000D01*
X11655000Y-13145000D02*
X11685000Y-13145000D01*
X11675000Y-12935000D02*
X11675000Y-12965000D01*
X11660000Y-12950000D02*
X11690000Y-12950000D01*
X11685000Y-13444974D02*
X11685000Y-13474974D01*
X11670000Y-13459974D02*
X11700000Y-13459974D01*
X11710000Y-7885000D02*
X11710000Y-7915000D01*
X11695000Y-7900000D02*
X11725000Y-7900000D01*
X11725000Y-12135000D02*
X11725000Y-12165000D01*
X11710000Y-12150000D02*
X11740000Y-12150000D01*
X11725000Y-12785000D02*
X11725000Y-12815000D01*
X11710000Y-12800000D02*
X11740000Y-12800000D01*
X11750000Y-14835000D02*
X11750000Y-14865000D01*
X11735000Y-14850000D02*
X11765000Y-14850000D01*
X11765000Y-13080000D02*
X11765000Y-13110000D01*
X11750000Y-13095000D02*
X11780000Y-13095000D01*
X11804806Y-13659806D02*
X11804806Y-13689806D01*
X11789806Y-13674806D02*
X11819806Y-13674806D01*
X11875000Y-9168250D02*
X11875000Y-9198250D01*
X11860000Y-9183250D02*
X11890000Y-9183250D01*
X11875000Y-12165000D02*
X11875000Y-12195000D01*
X11860000Y-12180000D02*
X11890000Y-12180000D01*
X11900000Y-10060000D02*
X11900000Y-10090000D01*
X11885000Y-10075000D02*
X11915000Y-10075000D01*
X11900000Y-13660000D02*
X11900000Y-13690000D01*
X11885000Y-13675000D02*
X11915000Y-13675000D01*
X11900000Y-13935000D02*
X11900000Y-13965000D01*
X11885000Y-13950000D02*
X11915000Y-13950000D01*
X11935000Y-12430000D02*
X11935000Y-12460000D01*
X11920000Y-12445000D02*
X11950000Y-12445000D01*
X11940000Y-14105000D02*
X11940000Y-14135000D01*
X11925000Y-14120000D02*
X11955000Y-14120000D01*
X11946877Y-7881877D02*
X11946877Y-7911877D01*
X11931877Y-7896877D02*
X11961877Y-7896877D01*
X11950000Y-13735000D02*
X11950000Y-13765000D01*
X11935000Y-13750000D02*
X11965000Y-13750000D01*
X11950000Y-14710000D02*
X11950000Y-14740000D01*
X11935000Y-14725000D02*
X11965000Y-14725000D01*
X11975000Y-14535000D02*
X11975000Y-14565000D01*
X11960000Y-14550000D02*
X11990000Y-14550000D01*
X12000000Y-8648250D02*
X12000000Y-8678250D01*
X11985000Y-8663250D02*
X12015000Y-8663250D01*
X12000000Y-13355000D02*
X12000000Y-13385000D01*
X11985000Y-13370000D02*
X12015000Y-13370000D01*
X12015000Y-11065000D02*
X12015000Y-11095000D01*
X12000000Y-11080000D02*
X12030000Y-11080000D01*
X12040000Y-10225000D02*
X12040000Y-10255000D01*
X12025000Y-10240000D02*
X12055000Y-10240000D01*
X12055000Y-9840000D02*
X12055000Y-9870000D01*
X12040000Y-9855000D02*
X12070000Y-9855000D01*
X12060000Y-11825000D02*
X12060000Y-11855000D01*
X12045000Y-11840000D02*
X12075000Y-11840000D01*
X12070000Y-9313250D02*
X12070000Y-9343250D01*
X12055000Y-9328250D02*
X12085000Y-9328250D01*
X12080000Y-11665000D02*
X12080000Y-11695000D01*
X12065000Y-11680000D02*
X12095000Y-11680000D01*
X12100000Y-14105000D02*
X12100000Y-14135000D01*
X12085000Y-14120000D02*
X12115000Y-14120000D01*
X12100000Y-14710000D02*
X12100000Y-14740000D01*
X12085000Y-14725000D02*
X12115000Y-14725000D01*
X12110000Y-13735000D02*
X12110000Y-13765000D01*
X12095000Y-13750000D02*
X12125000Y-13750000D01*
X12120000Y-10505000D02*
X12120000Y-10535000D01*
X12105000Y-10520000D02*
X12135000Y-10520000D01*
X12140000Y-8260000D02*
X12140000Y-8290000D01*
X12125000Y-8275000D02*
X12155000Y-8275000D01*
X12150000Y-9078250D02*
X12150000Y-9108250D01*
X12135000Y-9093250D02*
X12165000Y-9093250D01*
X12160000Y-8125000D02*
X12160000Y-8155000D01*
X12145000Y-8140000D02*
X12175000Y-8140000D01*
X12170000Y-8855000D02*
X12170000Y-8885000D01*
X12155000Y-8870000D02*
X12185000Y-8870000D01*
X12180000Y-11485000D02*
X12180000Y-11515000D01*
X12165000Y-11500000D02*
X12195000Y-11500000D01*
X12180000Y-11605000D02*
X12180000Y-11635000D01*
X12165000Y-11620000D02*
X12195000Y-11620000D01*
X12180000Y-12005000D02*
X12180000Y-12035000D01*
X12165000Y-12020000D02*
X12195000Y-12020000D01*
X12200000Y-11365000D02*
X12200000Y-11395000D01*
X12185000Y-11380000D02*
X12215000Y-11380000D01*
X12266250Y-12785000D02*
X12266250Y-12815000D01*
X12251250Y-12800000D02*
X12281250Y-12800000D01*
X12340000Y-11045000D02*
X12340000Y-11075000D01*
X12325000Y-11060000D02*
X12355000Y-11060000D01*
X12360000Y-12105000D02*
X12360000Y-12135000D01*
X12345000Y-12120000D02*
X12375000Y-12120000D01*
X12375000Y-12335000D02*
X12375000Y-12365000D01*
X12360000Y-12350000D02*
X12390000Y-12350000D01*
X12390000Y-7085000D02*
X12390000Y-7115000D01*
X12375000Y-7100000D02*
X12405000Y-7100000D01*
X12420000Y-14515000D02*
X12420000Y-14545000D01*
X12405000Y-14530000D02*
X12435000Y-14530000D01*
X12450000Y-7891200D02*
X12450000Y-7921200D01*
X12435000Y-7906200D02*
X12465000Y-7906200D01*
X12450000Y-8335000D02*
X12450000Y-8365000D01*
X12435000Y-8350000D02*
X12465000Y-8350000D01*
X12500000Y-11112450D02*
X12500000Y-11142450D01*
X12485000Y-11127450D02*
X12515000Y-11127450D01*
X12525000Y-7960000D02*
X12525000Y-7990000D01*
X12510000Y-7975000D02*
X12540000Y-7975000D01*
X12550000Y-8335000D02*
X12550000Y-8365000D01*
X12535000Y-8350000D02*
X12565000Y-8350000D01*
X12566261Y-7114300D02*
X12566261Y-7144300D01*
X12551261Y-7129300D02*
X12581261Y-7129300D01*
X12570000Y-8235000D02*
X12570000Y-8265000D01*
X12555000Y-8250000D02*
X12585000Y-8250000D01*
X12574000Y-14041000D02*
X12574000Y-14071000D01*
X12559000Y-14056000D02*
X12589000Y-14056000D01*
X12574000Y-14131000D02*
X12574000Y-14161000D01*
X12559000Y-14146000D02*
X12589000Y-14146000D01*
X12600000Y-9153250D02*
X12600000Y-9183250D01*
X12585000Y-9168250D02*
X12615000Y-9168250D01*
X12600000Y-10103250D02*
X12600000Y-10133250D01*
X12585000Y-10118250D02*
X12615000Y-10118250D01*
X12600000Y-12335000D02*
X12600000Y-12365000D01*
X12585000Y-12350000D02*
X12615000Y-12350000D01*
X12625000Y-8085000D02*
X12625000Y-8115000D01*
X12610000Y-8100000D02*
X12640000Y-8100000D01*
X12636623Y-12843377D02*
X12636623Y-12873377D01*
X12621623Y-12858377D02*
X12651623Y-12858377D01*
X12672057Y-11010428D02*
X12672057Y-11040428D01*
X12657057Y-11025428D02*
X12687057Y-11025428D01*
X12675000Y-13560000D02*
X12675000Y-13590000D01*
X12660000Y-13575000D02*
X12690000Y-13575000D01*
X12716623Y-12843377D02*
X12716623Y-12873377D01*
X12701623Y-12858377D02*
X12731623Y-12858377D01*
X12740000Y-11925000D02*
X12740000Y-11955000D01*
X12725000Y-11940000D02*
X12755000Y-11940000D01*
X12740000Y-14515000D02*
X12740000Y-14545000D01*
X12725000Y-14530000D02*
X12755000Y-14530000D01*
X12750000Y-8005000D02*
X12750000Y-8035000D01*
X12735000Y-8020000D02*
X12765000Y-8020000D01*
X12750000Y-13560000D02*
X12750000Y-13590000D01*
X12735000Y-13575000D02*
X12765000Y-13575000D01*
X12783129Y-11110474D02*
X12783129Y-11140474D01*
X12768129Y-11125474D02*
X12798129Y-11125474D01*
X12800000Y-7085000D02*
X12800000Y-7115000D01*
X12785000Y-7100000D02*
X12815000Y-7100000D01*
X12830623Y-12843377D02*
X12830623Y-12873377D01*
X12815623Y-12858377D02*
X12845623Y-12858377D01*
X12850000Y-13735000D02*
X12850000Y-13765000D01*
X12835000Y-13750000D02*
X12865000Y-13750000D01*
X12852500Y-13584500D02*
X12852500Y-13614500D01*
X12837500Y-13599500D02*
X12867500Y-13599500D01*
X12866424Y-11168028D02*
X12866424Y-11198028D01*
X12851424Y-11183028D02*
X12881424Y-11183028D01*
X12875000Y-11060000D02*
X12875000Y-11090000D01*
X12860000Y-11075000D02*
X12890000Y-11075000D01*
X12910623Y-12843377D02*
X12910623Y-12873377D01*
X12895623Y-12858377D02*
X12925623Y-12858377D01*
X12940000Y-8413250D02*
X12940000Y-8443250D01*
X12925000Y-8428250D02*
X12955000Y-8428250D01*
X12988450Y-9850000D02*
X12988450Y-9880000D01*
X12973450Y-9865000D02*
X13003450Y-9865000D01*
X12992550Y-7085000D02*
X12992550Y-7115000D01*
X12977550Y-7100000D02*
X13007550Y-7100000D01*
X13010000Y-8663250D02*
X13010000Y-8693250D01*
X12995000Y-8678250D02*
X13025000Y-8678250D01*
X13020000Y-8503250D02*
X13020000Y-8533250D01*
X13005000Y-8518250D02*
X13035000Y-8518250D01*
X13032450Y-10788974D02*
X13032450Y-10818974D01*
X13017450Y-10803974D02*
X13047450Y-10803974D01*
X13040000Y-9128250D02*
X13040000Y-9158250D01*
X13025000Y-9143250D02*
X13055000Y-9143250D01*
X13040000Y-11385000D02*
X13040000Y-11415000D01*
X13025000Y-11400000D02*
X13055000Y-11400000D01*
X13060000Y-11685000D02*
X13060000Y-11715000D01*
X13045000Y-11700000D02*
X13075000Y-11700000D01*
X13060000Y-13262550D02*
X13060000Y-13292550D01*
X13045000Y-13277550D02*
X13075000Y-13277550D01*
X13088450Y-11557450D02*
X13088450Y-11587450D01*
X13073450Y-11572450D02*
X13103450Y-11572450D01*
X13090000Y-13585000D02*
X13090000Y-13615000D01*
X13075000Y-13600000D02*
X13105000Y-13600000D01*
X13100000Y-9028250D02*
X13100000Y-9058250D01*
X13085000Y-9043250D02*
X13115000Y-9043250D01*
X13100000Y-14370000D02*
X13100000Y-14400000D01*
X13085000Y-14385000D02*
X13115000Y-14385000D01*
X13107450Y-9213250D02*
X13107450Y-9243250D01*
X13092450Y-9228250D02*
X13122450Y-9228250D01*
X13120000Y-10100000D02*
X13120000Y-10130000D01*
X13105000Y-10115000D02*
X13135000Y-10115000D01*
X13150000Y-14545000D02*
X13150000Y-14575000D01*
X13135000Y-14560000D02*
X13165000Y-14560000D01*
X13161550Y-8905800D02*
X13161550Y-8935800D01*
X13146550Y-8920800D02*
X13176550Y-8920800D01*
X13170000Y-13475000D02*
X13170000Y-13505000D01*
X13155000Y-13490000D02*
X13185000Y-13490000D01*
X13175000Y-7585000D02*
X13175000Y-7615000D01*
X13160000Y-7600000D02*
X13190000Y-7600000D01*
X13185000Y-10935000D02*
X13185000Y-10965000D01*
X13170000Y-10950000D02*
X13200000Y-10950000D01*
X13191054Y-11811315D02*
X13191054Y-11841315D01*
X13176054Y-11826315D02*
X13206054Y-11826315D01*
X13210000Y-13545000D02*
X13210000Y-13575000D01*
X13195000Y-13560000D02*
X13225000Y-13560000D01*
X13210904Y-13693826D02*
X13210904Y-13723826D01*
X13195904Y-13708826D02*
X13225904Y-13708826D01*
X13225000Y-7885000D02*
X13225000Y-7915000D01*
X13210000Y-7900000D02*
X13240000Y-7900000D01*
X13236623Y-12758377D02*
X13236623Y-12788377D01*
X13221623Y-12773377D02*
X13251623Y-12773377D01*
X13237279Y-11212279D02*
X13237279Y-11242279D01*
X13222279Y-11227279D02*
X13252279Y-11227279D01*
X13240582Y-13773424D02*
X13240582Y-13803424D01*
X13225582Y-13788424D02*
X13255582Y-13788424D01*
X13244000Y-14141000D02*
X13244000Y-14171000D01*
X13229000Y-14156000D02*
X13259000Y-14156000D01*
X13250000Y-7160000D02*
X13250000Y-7190000D01*
X13235000Y-7175000D02*
X13265000Y-7175000D01*
X13250000Y-13475000D02*
X13250000Y-13505000D01*
X13235000Y-13490000D02*
X13265000Y-13490000D01*
X13250000Y-14510000D02*
X13250000Y-14540000D01*
X13235000Y-14525000D02*
X13265000Y-14525000D01*
X13261550Y-7060000D02*
X13261550Y-7090000D01*
X13246550Y-7075000D02*
X13276550Y-7075000D01*
X13276623Y-12828377D02*
X13276623Y-12858377D01*
X13261623Y-12843377D02*
X13291623Y-12843377D01*
X13290000Y-13545000D02*
X13290000Y-13575000D01*
X13275000Y-13560000D02*
X13305000Y-13560000D01*
X13295000Y-8325000D02*
X13295000Y-8355000D01*
X13280000Y-8340000D02*
X13310000Y-8340000D01*
X13316623Y-12758377D02*
X13316623Y-12788377D01*
X13301623Y-12773377D02*
X13331623Y-12773377D01*
X13316623Y-12893377D02*
X13316623Y-12923377D01*
X13301623Y-12908377D02*
X13331623Y-12908377D01*
X13320000Y-7885000D02*
X13320000Y-7915000D01*
X13305000Y-7900000D02*
X13335000Y-7900000D01*
X13330000Y-13475000D02*
X13330000Y-13505000D01*
X13315000Y-13490000D02*
X13345000Y-13490000D01*
X13356623Y-12828377D02*
X13356623Y-12858377D01*
X13341623Y-12843377D02*
X13371623Y-12843377D01*
X13396623Y-12758377D02*
X13396623Y-12788377D01*
X13381623Y-12773377D02*
X13411623Y-12773377D01*
X13400000Y-7565000D02*
X13400000Y-7595000D01*
X13385000Y-7580000D02*
X13415000Y-7580000D01*
X13401954Y-13961800D02*
X13401954Y-13991800D01*
X13386954Y-13976800D02*
X13416954Y-13976800D01*
X13412550Y-7915000D02*
X13412550Y-7945000D01*
X13397550Y-7930000D02*
X13427550Y-7930000D01*
X13425000Y-11146550D02*
X13425000Y-11176550D01*
X13410000Y-11161550D02*
X13440000Y-11161550D01*
X13440000Y-10225000D02*
X13440000Y-10255000D01*
X13425000Y-10240000D02*
X13455000Y-10240000D01*
X13481930Y-11015693D02*
X13481930Y-11045693D01*
X13466930Y-11030693D02*
X13496930Y-11030693D01*
X13496623Y-13403377D02*
X13496623Y-13433377D01*
X13481623Y-13418377D02*
X13511623Y-13418377D01*
X13634000Y-13821000D02*
X13634000Y-13851000D01*
X13619000Y-13836000D02*
X13649000Y-13836000D01*
X13634000Y-13921000D02*
X13634000Y-13951000D01*
X13619000Y-13936000D02*
X13649000Y-13936000D01*
X13650193Y-11115417D02*
X13650193Y-11145417D01*
X13635193Y-11130417D02*
X13665193Y-11130417D01*
X13665000Y-13200000D02*
X13665000Y-13230000D01*
X13650000Y-13215000D02*
X13680000Y-13215000D01*
X13670000Y-12870000D02*
X13670000Y-12900000D01*
X13655000Y-12885000D02*
X13685000Y-12885000D01*
X13674100Y-11020454D02*
X13674100Y-11050454D01*
X13659100Y-11035454D02*
X13689100Y-11035454D01*
X13745000Y-13200000D02*
X13745000Y-13230000D01*
X13730000Y-13215000D02*
X13760000Y-13215000D01*
X13750000Y-5910000D02*
X13750000Y-5940000D01*
X13735000Y-5925000D02*
X13765000Y-5925000D01*
X13750000Y-6010000D02*
X13750000Y-6040000D01*
X13735000Y-6025000D02*
X13765000Y-6025000D01*
X13750000Y-6110000D02*
X13750000Y-6140000D01*
X13735000Y-6125000D02*
X13765000Y-6125000D01*
X13750000Y-6210000D02*
X13750000Y-6240000D01*
X13735000Y-6225000D02*
X13765000Y-6225000D01*
X13750000Y-6310000D02*
X13750000Y-6340000D01*
X13735000Y-6325000D02*
X13765000Y-6325000D01*
X13755000Y-11140000D02*
X13755000Y-11170000D01*
X13740000Y-11155000D02*
X13770000Y-11155000D01*
X13755000Y-12870000D02*
X13755000Y-12900000D01*
X13740000Y-12885000D02*
X13770000Y-12885000D01*
X13770000Y-14425000D02*
X13770000Y-14455000D01*
X13755000Y-14440000D02*
X13785000Y-14440000D01*
X13830000Y-13895000D02*
X13830000Y-13925000D01*
X13815000Y-13910000D02*
X13845000Y-13910000D01*
X13835000Y-13200000D02*
X13835000Y-13230000D01*
X13820000Y-13215000D02*
X13850000Y-13215000D01*
X13840000Y-11965000D02*
X13840000Y-11995000D01*
X13825000Y-11980000D02*
X13855000Y-11980000D01*
X13845000Y-12870000D02*
X13845000Y-12900000D01*
X13830000Y-12885000D02*
X13860000Y-12885000D01*
X13860000Y-11065000D02*
X13860000Y-11095000D01*
X13845000Y-11080000D02*
X13875000Y-11080000D01*
X13880000Y-14085000D02*
X13880000Y-14115000D01*
X13865000Y-14100000D02*
X13895000Y-14100000D01*
X13915000Y-13200000D02*
X13915000Y-13230000D01*
X13900000Y-13215000D02*
X13930000Y-13215000D01*
X13920000Y-11805000D02*
X13920000Y-11835000D01*
X13905000Y-11820000D02*
X13935000Y-11820000D01*
X13930000Y-12870000D02*
X13930000Y-12900000D01*
X13915000Y-12885000D02*
X13945000Y-12885000D01*
X13940000Y-10805000D02*
X13940000Y-10835000D01*
X13925000Y-10820000D02*
X13955000Y-10820000D01*
X13961000Y-14700000D02*
X13961000Y-14730000D01*
X13946000Y-14715000D02*
X13976000Y-14715000D01*
X14015000Y-8940000D02*
X14015000Y-8970000D01*
X14000000Y-8955000D02*
X14030000Y-8955000D01*
X14015000Y-12870000D02*
X14015000Y-12900000D01*
X14000000Y-12885000D02*
X14030000Y-12885000D01*
X14015000Y-13200000D02*
X14015000Y-13230000D01*
X14000000Y-13215000D02*
X14030000Y-13215000D01*
X14020000Y-11345000D02*
X14020000Y-11375000D01*
X14005000Y-11360000D02*
X14035000Y-11360000D01*
X14020000Y-13605000D02*
X14020000Y-13635000D01*
X14005000Y-13620000D02*
X14035000Y-13620000D01*
X14020623Y-13329377D02*
X14020623Y-13359377D01*
X14005623Y-13344377D02*
X14035623Y-13344377D01*
X14060000Y-10427500D02*
X14060000Y-10457500D01*
X14045000Y-10442500D02*
X14075000Y-10442500D01*
X14080000Y-10625000D02*
X14080000Y-10655000D01*
X14065000Y-10640000D02*
X14095000Y-10640000D01*
X14095000Y-13200000D02*
X14095000Y-13230000D01*
X14080000Y-13215000D02*
X14110000Y-13215000D01*
X14100000Y-12870000D02*
X14100000Y-12900000D01*
X14085000Y-12885000D02*
X14115000Y-12885000D01*
X14120000Y-9825000D02*
X14120000Y-9855000D01*
X14105000Y-9840000D02*
X14135000Y-9840000D01*
X14125000Y-8235000D02*
X14125000Y-8265000D01*
X14110000Y-8250000D02*
X14140000Y-8250000D01*
X14125000Y-8940000D02*
X14125000Y-8970000D01*
X14110000Y-8955000D02*
X14140000Y-8955000D01*
X14200000Y-7895000D02*
X14200000Y-7925000D01*
X14185000Y-7910000D02*
X14215000Y-7910000D01*
X14200000Y-9765000D02*
X14200000Y-9795000D01*
X14185000Y-9780000D02*
X14215000Y-9780000D01*
X14200000Y-12180000D02*
X14200000Y-12210000D01*
X14185000Y-12195000D02*
X14215000Y-12195000D01*
X14200000Y-12340000D02*
X14200000Y-12370000D01*
X14185000Y-12355000D02*
X14215000Y-12355000D01*
X14200000Y-13345000D02*
X14200000Y-13375000D01*
X14185000Y-13360000D02*
X14215000Y-13360000D01*
X14235000Y-6885000D02*
X14235000Y-6915000D01*
X14220000Y-6900000D02*
X14250000Y-6900000D01*
X14240000Y-7025000D02*
X14240000Y-7055000D01*
X14225000Y-7040000D02*
X14255000Y-7040000D01*
X14280000Y-10765000D02*
X14280000Y-10795000D01*
X14265000Y-10780000D02*
X14295000Y-10780000D01*
X14300000Y-13405000D02*
X14300000Y-13435000D01*
X14285000Y-13420000D02*
X14315000Y-13420000D01*
X14320000Y-10945000D02*
X14320000Y-10975000D01*
X14305000Y-10960000D02*
X14335000Y-10960000D01*
X14325000Y-12060000D02*
X14325000Y-12090000D01*
X14310000Y-12075000D02*
X14340000Y-12075000D01*
X14325000Y-12460000D02*
X14325000Y-12490000D01*
X14310000Y-12475000D02*
X14340000Y-12475000D01*
D14*
X11159142Y-12969142D02*
X11159142Y-12940858D01*
X11130858Y-12940858D01*
X11130858Y-12969142D01*
X11159142Y-12969142D01*
X11293080Y-12835205D02*
X11293080Y-12806920D01*
X11264795Y-12806920D01*
X11264795Y-12835205D01*
X11293080Y-12835205D01*
X11293080Y-12968080D02*
X11293080Y-12939795D01*
X11264795Y-12939795D01*
X11264795Y-12968080D01*
X11293080Y-12968080D01*
X11294142Y-13094142D02*
X11294142Y-13065858D01*
X11265858Y-13065858D01*
X11265858Y-13094142D01*
X11294142Y-13094142D01*
X11424142Y-12969142D02*
X11424142Y-12940858D01*
X11395858Y-12940858D01*
X11395858Y-12969142D01*
X11424142Y-12969142D01*
D15*
X12126000Y-14502000D02*
X12156000Y-14472000D01*
X12126000Y-14442000D01*
X12096000Y-14472000D01*
X12126000Y-14502000D01*
D11*
X12156000Y-14527000D02*
X12156000Y-14417000D01*
X12096000Y-14527000D02*
X12096000Y-14417000D01*
X12156000Y-14417000D02*
G75*
G03*
X12096000Y-14417000I-30000J0D01*
G01*
X12096000Y-14527000D02*
G75*
G03*
X12156000Y-14527000I30000J0D01*
G01*
D15*
X12126000Y-14920000D02*
X12156000Y-14890000D01*
X12126000Y-14860000D01*
X12096000Y-14890000D01*
X12126000Y-14920000D01*
D11*
X12156000Y-14930000D02*
X12156000Y-14850000D01*
X12096000Y-14930000D02*
X12096000Y-14850000D01*
X12156000Y-14850000D02*
G75*
G03*
X12096000Y-14850000I-30000J0D01*
G01*
X12096000Y-14930000D02*
G75*
G03*
X12156000Y-14930000I30000J0D01*
G01*
D15*
X12990000Y-14502000D02*
X13020000Y-14472000D01*
X12990000Y-14442000D01*
X12960000Y-14472000D01*
X12990000Y-14502000D01*
D11*
X13020000Y-14527000D02*
X13020000Y-14417000D01*
X12960000Y-14527000D02*
X12960000Y-14417000D01*
X13020000Y-14417000D02*
G75*
G03*
X12960000Y-14417000I-30000J0D01*
G01*
X12960000Y-14527000D02*
G75*
G03*
X13020000Y-14527000I30000J0D01*
G01*
D15*
X12990000Y-14920000D02*
X13020000Y-14890000D01*
X12990000Y-14860000D01*
X12960000Y-14890000D01*
X12990000Y-14920000D01*
D11*
X13020000Y-14930000D02*
X13020000Y-14850000D01*
X12960000Y-14930000D02*
X12960000Y-14850000D01*
X13020000Y-14850000D02*
G75*
G03*
X12960000Y-14850000I-30000J0D01*
G01*
X12960000Y-14930000D02*
G75*
G03*
X13020000Y-14930000I30000J0D01*
G01*
D16*
X13977500Y-9492500D02*
X14042500Y-9557500D01*
X14042500Y-9492500D02*
X13977500Y-9557500D01*
X14042500Y-9525000D02*
G75*
G03*
X14042500Y-9525000I-32500J0D01*
G01*
X14104500Y-9492500D02*
X14169500Y-9557500D01*
X14169500Y-9492500D02*
X14104500Y-9557500D01*
X14169500Y-9525000D02*
G75*
G03*
X14169500Y-9525000I-32500J0D01*
G01*
D17*
X11048750Y-6562500D02*
X11118750Y-6632500D01*
X11118750Y-6562500D02*
X11048750Y-6632500D01*
X11083750Y-6562500D02*
X11083750Y-6632500D01*
X11048750Y-6597500D02*
X11118750Y-6597500D01*
X11175750Y-6562500D02*
X11245750Y-6632500D01*
X11245750Y-6562500D02*
X11175750Y-6632500D01*
X11210750Y-6562500D02*
X11210750Y-6632500D01*
X11175750Y-6597500D02*
X11245750Y-6597500D01*
X11302750Y-6562500D02*
X11372750Y-6632500D01*
X11372750Y-6562500D02*
X11302750Y-6632500D01*
X11337750Y-6562500D02*
X11337750Y-6632500D01*
X11302750Y-6597500D02*
X11372750Y-6597500D01*
X11429750Y-6562500D02*
X11499750Y-6632500D01*
X11499750Y-6562500D02*
X11429750Y-6632500D01*
X11464750Y-6562500D02*
X11464750Y-6632500D01*
X11429750Y-6597500D02*
X11499750Y-6597500D01*
X11556750Y-6562500D02*
X11626750Y-6632500D01*
X11626750Y-6562500D02*
X11556750Y-6632500D01*
X11591750Y-6562500D02*
X11591750Y-6632500D01*
X11556750Y-6597500D02*
X11626750Y-6597500D01*
X11683750Y-6562500D02*
X11753750Y-6632500D01*
X11753750Y-6562500D02*
X11683750Y-6632500D01*
X11718750Y-6562500D02*
X11718750Y-6632500D01*
X11683750Y-6597500D02*
X11753750Y-6597500D01*
X11810750Y-6562500D02*
X11880750Y-6632500D01*
X11880750Y-6562500D02*
X11810750Y-6632500D01*
X11845750Y-6562500D02*
X11845750Y-6632500D01*
X11810750Y-6597500D02*
X11880750Y-6597500D01*
X11937750Y-6562500D02*
X12007750Y-6632500D01*
X12007750Y-6562500D02*
X11937750Y-6632500D01*
X11972750Y-6562500D02*
X11972750Y-6632500D01*
X11937750Y-6597500D02*
X12007750Y-6597500D01*
D10*
X13496000Y-14225000D02*
X13596000Y-14325000D01*
X13596000Y-14225000D02*
X13496000Y-14325000D01*
X13581356Y-14310356D02*
X13581356Y-14239644D01*
X13510644Y-14239644D01*
X13510644Y-14310356D01*
X13581356Y-14310356D01*
X13750000Y-14225000D02*
X13850000Y-14325000D01*
X13850000Y-14225000D02*
X13750000Y-14325000D01*
X13835356Y-14310356D02*
X13835356Y-14239644D01*
X13764644Y-14239644D01*
X13764644Y-14310356D01*
X13835356Y-14310356D01*
D18*
X10940000Y-5990000D02*
X11210000Y-6260000D01*
X11210000Y-5990000D02*
X10940000Y-6260000D01*
X11075000Y-6260000D02*
X11210000Y-6125000D01*
X11075000Y-5990000D01*
X10940000Y-6125000D01*
X11075000Y-6260000D01*
X10940000Y-14540000D02*
X11210000Y-14810000D01*
X11210000Y-14540000D02*
X10940000Y-14810000D01*
X11075000Y-14810000D02*
X11210000Y-14675000D01*
X11075000Y-14540000D01*
X10940000Y-14675000D01*
X11075000Y-14810000D01*
X13390000Y-14540000D02*
X13660000Y-14810000D01*
X13660000Y-14540000D02*
X13390000Y-14810000D01*
X13525000Y-14810000D02*
X13660000Y-14675000D01*
X13525000Y-14540000D01*
X13390000Y-14675000D01*
X13525000Y-14810000D01*
X13940000Y-5990000D02*
X14210000Y-6260000D01*
X14210000Y-5990000D02*
X13940000Y-6260000D01*
X14075000Y-6260000D02*
X14210000Y-6125000D01*
X14075000Y-5990000D01*
X13940000Y-6125000D01*
X14075000Y-6260000D01*
D11*
X10952619Y-15367989D02*
X10952619Y-15167989D01*
X11000238Y-15167989D01*
X11028810Y-15177513D01*
X11047857Y-15196560D01*
X11057381Y-15215608D01*
X11066905Y-15253703D01*
X11066905Y-15282274D01*
X11057381Y-15320370D01*
X11047857Y-15339417D01*
X11028810Y-15358465D01*
X11000238Y-15367989D01*
X10952619Y-15367989D01*
X11152619Y-15367989D02*
X11152619Y-15234655D01*
X11152619Y-15272751D02*
X11162143Y-15253703D01*
X11171667Y-15244179D01*
X11190714Y-15234655D01*
X11209762Y-15234655D01*
X11276428Y-15367989D02*
X11276428Y-15234655D01*
X11276428Y-15167989D02*
X11266905Y-15177513D01*
X11276428Y-15187036D01*
X11285952Y-15177513D01*
X11276428Y-15167989D01*
X11276428Y-15187036D01*
X11400238Y-15367989D02*
X11381190Y-15358465D01*
X11371667Y-15339417D01*
X11371667Y-15167989D01*
X11505000Y-15367989D02*
X11485952Y-15358465D01*
X11476428Y-15339417D01*
X11476428Y-15167989D01*
X11733571Y-15367989D02*
X11733571Y-15167989D01*
X11800238Y-15310846D01*
X11866905Y-15167989D01*
X11866905Y-15367989D01*
X12047857Y-15367989D02*
X12047857Y-15263227D01*
X12038333Y-15244179D01*
X12019286Y-15234655D01*
X11981190Y-15234655D01*
X11962143Y-15244179D01*
X12047857Y-15358465D02*
X12028809Y-15367989D01*
X11981190Y-15367989D01*
X11962143Y-15358465D01*
X11952619Y-15339417D01*
X11952619Y-15320370D01*
X11962143Y-15301322D01*
X11981190Y-15291798D01*
X12028809Y-15291798D01*
X12047857Y-15282274D01*
X12143095Y-15234655D02*
X12143095Y-15434655D01*
X12143095Y-15244179D02*
X12162143Y-15234655D01*
X12200238Y-15234655D01*
X12219286Y-15244179D01*
X12228809Y-15253703D01*
X12238333Y-15272751D01*
X12238333Y-15329893D01*
X12228809Y-15348941D01*
X12219286Y-15358465D01*
X12200238Y-15367989D01*
X12162143Y-15367989D01*
X12143095Y-15358465D01*
X12324048Y-15348941D02*
X12333571Y-15358465D01*
X12324048Y-15367989D01*
X12314524Y-15358465D01*
X12324048Y-15348941D01*
X12324048Y-15367989D01*
X12324048Y-15244179D02*
X12333571Y-15253703D01*
X12324048Y-15263227D01*
X12314524Y-15253703D01*
X12324048Y-15244179D01*
X12324048Y-15263227D01*
D12*
X10675000Y-15687513D02*
X10695000Y-15707513D01*
X10695000Y-15687513D02*
X10675000Y-15707513D01*
D11*
X10990714Y-15587989D02*
X11009762Y-15587989D01*
X11028810Y-15597513D01*
X11038333Y-15607036D01*
X11047857Y-15626084D01*
X11057381Y-15664179D01*
X11057381Y-15711798D01*
X11047857Y-15749893D01*
X11038333Y-15768941D01*
X11028810Y-15778465D01*
X11009762Y-15787989D01*
X10990714Y-15787989D01*
X10971667Y-15778465D01*
X10962143Y-15768941D01*
X10952619Y-15749893D01*
X10943095Y-15711798D01*
X10943095Y-15664179D01*
X10952619Y-15626084D01*
X10962143Y-15607036D01*
X10971667Y-15597513D01*
X10990714Y-15587989D01*
X11143095Y-15768941D02*
X11152619Y-15778465D01*
X11143095Y-15787989D01*
X11133571Y-15778465D01*
X11143095Y-15768941D01*
X11143095Y-15787989D01*
X11228809Y-15607036D02*
X11238333Y-15597513D01*
X11257381Y-15587989D01*
X11305000Y-15587989D01*
X11324048Y-15597513D01*
X11333571Y-15607036D01*
X11343095Y-15626084D01*
X11343095Y-15645132D01*
X11333571Y-15673703D01*
X11219286Y-15787989D01*
X11343095Y-15787989D01*
X11466905Y-15587989D02*
X11485952Y-15587989D01*
X11505000Y-15597513D01*
X11514524Y-15607036D01*
X11524048Y-15626084D01*
X11533571Y-15664179D01*
X11533571Y-15711798D01*
X11524048Y-15749893D01*
X11514524Y-15768941D01*
X11505000Y-15778465D01*
X11485952Y-15787989D01*
X11466905Y-15787989D01*
X11447857Y-15778465D01*
X11438333Y-15768941D01*
X11428809Y-15749893D01*
X11419286Y-15711798D01*
X11419286Y-15664179D01*
X11428809Y-15626084D01*
X11438333Y-15607036D01*
X11447857Y-15597513D01*
X11466905Y-15587989D01*
X11657381Y-15587989D02*
X11676428Y-15587989D01*
X11695476Y-15597513D01*
X11705000Y-15607036D01*
X11714524Y-15626084D01*
X11724048Y-15664179D01*
X11724048Y-15711798D01*
X11714524Y-15749893D01*
X11705000Y-15768941D01*
X11695476Y-15778465D01*
X11676428Y-15787989D01*
X11657381Y-15787989D01*
X11638333Y-15778465D01*
X11628809Y-15768941D01*
X11619286Y-15749893D01*
X11609762Y-15711798D01*
X11609762Y-15664179D01*
X11619286Y-15626084D01*
X11628809Y-15607036D01*
X11638333Y-15597513D01*
X11657381Y-15587989D01*
X11809762Y-15787989D02*
X11809762Y-15654655D01*
X11809762Y-15673703D02*
X11819286Y-15664179D01*
X11838333Y-15654655D01*
X11866905Y-15654655D01*
X11885952Y-15664179D01*
X11895476Y-15683227D01*
X11895476Y-15787989D01*
X11895476Y-15683227D02*
X11905000Y-15664179D01*
X11924048Y-15654655D01*
X11952619Y-15654655D01*
X11971667Y-15664179D01*
X11981190Y-15683227D01*
X11981190Y-15787989D01*
X12076428Y-15787989D02*
X12076428Y-15654655D01*
X12076428Y-15673703D02*
X12085952Y-15664179D01*
X12105000Y-15654655D01*
X12133571Y-15654655D01*
X12152619Y-15664179D01*
X12162143Y-15683227D01*
X12162143Y-15787989D01*
X12162143Y-15683227D02*
X12171667Y-15664179D01*
X12190714Y-15654655D01*
X12219286Y-15654655D01*
X12238333Y-15664179D01*
X12247857Y-15683227D01*
X12247857Y-15787989D01*
X12638333Y-15578465D02*
X12466905Y-15835608D01*
X12895476Y-15587989D02*
X12914524Y-15587989D01*
X12933571Y-15597513D01*
X12943095Y-15607036D01*
X12952619Y-15626084D01*
X12962143Y-15664179D01*
X12962143Y-15711798D01*
X12952619Y-15749893D01*
X12943095Y-15768941D01*
X12933571Y-15778465D01*
X12914524Y-15787989D01*
X12895476Y-15787989D01*
X12876428Y-15778465D01*
X12866905Y-15768941D01*
X12857381Y-15749893D01*
X12847857Y-15711798D01*
X12847857Y-15664179D01*
X12857381Y-15626084D01*
X12866905Y-15607036D01*
X12876428Y-15597513D01*
X12895476Y-15587989D01*
X13047857Y-15768941D02*
X13057381Y-15778465D01*
X13047857Y-15787989D01*
X13038333Y-15778465D01*
X13047857Y-15768941D01*
X13047857Y-15787989D01*
X13181190Y-15587989D02*
X13200238Y-15587989D01*
X13219286Y-15597513D01*
X13228809Y-15607036D01*
X13238333Y-15626084D01*
X13247857Y-15664179D01*
X13247857Y-15711798D01*
X13238333Y-15749893D01*
X13228809Y-15768941D01*
X13219286Y-15778465D01*
X13200238Y-15787989D01*
X13181190Y-15787989D01*
X13162143Y-15778465D01*
X13152619Y-15768941D01*
X13143095Y-15749893D01*
X13133571Y-15711798D01*
X13133571Y-15664179D01*
X13143095Y-15626084D01*
X13152619Y-15607036D01*
X13162143Y-15597513D01*
X13181190Y-15587989D01*
X13371667Y-15587989D02*
X13390714Y-15587989D01*
X13409762Y-15597513D01*
X13419286Y-15607036D01*
X13428809Y-15626084D01*
X13438333Y-15664179D01*
X13438333Y-15711798D01*
X13428809Y-15749893D01*
X13419286Y-15768941D01*
X13409762Y-15778465D01*
X13390714Y-15787989D01*
X13371667Y-15787989D01*
X13352619Y-15778465D01*
X13343095Y-15768941D01*
X13333571Y-15749893D01*
X13324048Y-15711798D01*
X13324048Y-15664179D01*
X13333571Y-15626084D01*
X13343095Y-15607036D01*
X13352619Y-15597513D01*
X13371667Y-15587989D01*
X13505000Y-15587989D02*
X13638333Y-15587989D01*
X13552619Y-15787989D01*
X13724048Y-15787989D02*
X13762143Y-15787989D01*
X13781190Y-15778465D01*
X13790714Y-15768941D01*
X13809762Y-15740370D01*
X13819286Y-15702274D01*
X13819286Y-15626084D01*
X13809762Y-15607036D01*
X13800238Y-15597513D01*
X13781190Y-15587989D01*
X13743095Y-15587989D01*
X13724048Y-15597513D01*
X13714524Y-15607036D01*
X13705000Y-15626084D01*
X13705000Y-15673703D01*
X13714524Y-15692751D01*
X13724048Y-15702274D01*
X13743095Y-15711798D01*
X13781190Y-15711798D01*
X13800238Y-15702274D01*
X13809762Y-15692751D01*
X13819286Y-15673703D01*
X13895476Y-15587989D02*
X13895476Y-15626084D01*
X13971667Y-15587989D02*
X13971667Y-15626084D01*
X14266905Y-15864179D02*
X14257381Y-15854655D01*
X14238333Y-15826084D01*
X14228809Y-15807036D01*
X14219286Y-15778465D01*
X14209762Y-15730846D01*
X14209762Y-15692751D01*
X14219286Y-15645132D01*
X14228809Y-15616560D01*
X14238333Y-15597513D01*
X14257381Y-15568941D01*
X14266905Y-15559417D01*
X14428809Y-15654655D02*
X14428809Y-15787989D01*
X14381190Y-15578465D02*
X14333571Y-15721322D01*
X14457381Y-15721322D01*
X14685952Y-15787989D02*
X14685952Y-15587989D01*
X14771667Y-15787989D02*
X14771667Y-15683227D01*
X14762143Y-15664179D01*
X14743095Y-15654655D01*
X14714524Y-15654655D01*
X14695476Y-15664179D01*
X14685952Y-15673703D01*
X14895476Y-15787989D02*
X14876428Y-15778465D01*
X14866905Y-15768941D01*
X14857381Y-15749893D01*
X14857381Y-15692751D01*
X14866905Y-15673703D01*
X14876428Y-15664179D01*
X14895476Y-15654655D01*
X14924048Y-15654655D01*
X14943095Y-15664179D01*
X14952619Y-15673703D01*
X14962143Y-15692751D01*
X14962143Y-15749893D01*
X14952619Y-15768941D01*
X14943095Y-15778465D01*
X14924048Y-15787989D01*
X14895476Y-15787989D01*
X15076428Y-15787989D02*
X15057381Y-15778465D01*
X15047857Y-15759417D01*
X15047857Y-15587989D01*
X15228809Y-15778465D02*
X15209762Y-15787989D01*
X15171667Y-15787989D01*
X15152619Y-15778465D01*
X15143095Y-15759417D01*
X15143095Y-15683227D01*
X15152619Y-15664179D01*
X15171667Y-15654655D01*
X15209762Y-15654655D01*
X15228809Y-15664179D01*
X15238333Y-15683227D01*
X15238333Y-15702274D01*
X15143095Y-15721322D01*
X15314524Y-15778465D02*
X15333571Y-15787989D01*
X15371667Y-15787989D01*
X15390714Y-15778465D01*
X15400238Y-15759417D01*
X15400238Y-15749893D01*
X15390714Y-15730846D01*
X15371667Y-15721322D01*
X15343095Y-15721322D01*
X15324048Y-15711798D01*
X15314524Y-15692751D01*
X15314524Y-15683227D01*
X15324048Y-15664179D01*
X15343095Y-15654655D01*
X15371667Y-15654655D01*
X15390714Y-15664179D01*
X15466905Y-15864179D02*
X15476428Y-15854655D01*
X15495476Y-15826084D01*
X15505000Y-15807036D01*
X15514524Y-15778465D01*
X15524048Y-15730846D01*
X15524048Y-15692751D01*
X15514524Y-15645132D01*
X15505000Y-15616560D01*
X15495476Y-15597513D01*
X15476428Y-15568941D01*
X15466905Y-15559417D01*
D12*
X10695000Y-15961513D02*
G75*
G03*
X10695000Y-15961513I-10000J0D01*
G01*
D11*
X10990714Y-15851989D02*
X11009762Y-15851989D01*
X11028810Y-15861513D01*
X11038333Y-15871036D01*
X11047857Y-15890084D01*
X11057381Y-15928179D01*
X11057381Y-15975798D01*
X11047857Y-16013893D01*
X11038333Y-16032941D01*
X11028810Y-16042465D01*
X11009762Y-16051989D01*
X10990714Y-16051989D01*
X10971667Y-16042465D01*
X10962143Y-16032941D01*
X10952619Y-16013893D01*
X10943095Y-15975798D01*
X10943095Y-15928179D01*
X10952619Y-15890084D01*
X10962143Y-15871036D01*
X10971667Y-15861513D01*
X10990714Y-15851989D01*
X11143095Y-16032941D02*
X11152619Y-16042465D01*
X11143095Y-16051989D01*
X11133571Y-16042465D01*
X11143095Y-16032941D01*
X11143095Y-16051989D01*
X11228809Y-15871036D02*
X11238333Y-15861513D01*
X11257381Y-15851989D01*
X11305000Y-15851989D01*
X11324048Y-15861513D01*
X11333571Y-15871036D01*
X11343095Y-15890084D01*
X11343095Y-15909132D01*
X11333571Y-15937703D01*
X11219286Y-16051989D01*
X11343095Y-16051989D01*
X11466905Y-15851989D02*
X11485952Y-15851989D01*
X11505000Y-15861513D01*
X11514524Y-15871036D01*
X11524048Y-15890084D01*
X11533571Y-15928179D01*
X11533571Y-15975798D01*
X11524048Y-16013893D01*
X11514524Y-16032941D01*
X11505000Y-16042465D01*
X11485952Y-16051989D01*
X11466905Y-16051989D01*
X11447857Y-16042465D01*
X11438333Y-16032941D01*
X11428809Y-16013893D01*
X11419286Y-15975798D01*
X11419286Y-15928179D01*
X11428809Y-15890084D01*
X11438333Y-15871036D01*
X11447857Y-15861513D01*
X11466905Y-15851989D01*
X11657381Y-15851989D02*
X11676428Y-15851989D01*
X11695476Y-15861513D01*
X11705000Y-15871036D01*
X11714524Y-15890084D01*
X11724048Y-15928179D01*
X11724048Y-15975798D01*
X11714524Y-16013893D01*
X11705000Y-16032941D01*
X11695476Y-16042465D01*
X11676428Y-16051989D01*
X11657381Y-16051989D01*
X11638333Y-16042465D01*
X11628809Y-16032941D01*
X11619286Y-16013893D01*
X11609762Y-15975798D01*
X11609762Y-15928179D01*
X11619286Y-15890084D01*
X11628809Y-15871036D01*
X11638333Y-15861513D01*
X11657381Y-15851989D01*
X11809762Y-16051989D02*
X11809762Y-15918655D01*
X11809762Y-15937703D02*
X11819286Y-15928179D01*
X11838333Y-15918655D01*
X11866905Y-15918655D01*
X11885952Y-15928179D01*
X11895476Y-15947227D01*
X11895476Y-16051989D01*
X11895476Y-15947227D02*
X11905000Y-15928179D01*
X11924048Y-15918655D01*
X11952619Y-15918655D01*
X11971667Y-15928179D01*
X11981190Y-15947227D01*
X11981190Y-16051989D01*
X12076428Y-16051989D02*
X12076428Y-15918655D01*
X12076428Y-15937703D02*
X12085952Y-15928179D01*
X12105000Y-15918655D01*
X12133571Y-15918655D01*
X12152619Y-15928179D01*
X12162143Y-15947227D01*
X12162143Y-16051989D01*
X12162143Y-15947227D02*
X12171667Y-15928179D01*
X12190714Y-15918655D01*
X12219286Y-15918655D01*
X12238333Y-15928179D01*
X12247857Y-15947227D01*
X12247857Y-16051989D01*
X12638333Y-15842465D02*
X12466905Y-16099608D01*
X12895476Y-15851989D02*
X12914524Y-15851989D01*
X12933571Y-15861513D01*
X12943095Y-15871036D01*
X12952619Y-15890084D01*
X12962143Y-15928179D01*
X12962143Y-15975798D01*
X12952619Y-16013893D01*
X12943095Y-16032941D01*
X12933571Y-16042465D01*
X12914524Y-16051989D01*
X12895476Y-16051989D01*
X12876428Y-16042465D01*
X12866905Y-16032941D01*
X12857381Y-16013893D01*
X12847857Y-15975798D01*
X12847857Y-15928179D01*
X12857381Y-15890084D01*
X12866905Y-15871036D01*
X12876428Y-15861513D01*
X12895476Y-15851989D01*
X13047857Y-16032941D02*
X13057381Y-16042465D01*
X13047857Y-16051989D01*
X13038333Y-16042465D01*
X13047857Y-16032941D01*
X13047857Y-16051989D01*
X13181190Y-15851989D02*
X13200238Y-15851989D01*
X13219286Y-15861513D01*
X13228809Y-15871036D01*
X13238333Y-15890084D01*
X13247857Y-15928179D01*
X13247857Y-15975798D01*
X13238333Y-16013893D01*
X13228809Y-16032941D01*
X13219286Y-16042465D01*
X13200238Y-16051989D01*
X13181190Y-16051989D01*
X13162143Y-16042465D01*
X13152619Y-16032941D01*
X13143095Y-16013893D01*
X13133571Y-15975798D01*
X13133571Y-15928179D01*
X13143095Y-15890084D01*
X13152619Y-15871036D01*
X13162143Y-15861513D01*
X13181190Y-15851989D01*
X13371667Y-15851989D02*
X13390714Y-15851989D01*
X13409762Y-15861513D01*
X13419286Y-15871036D01*
X13428809Y-15890084D01*
X13438333Y-15928179D01*
X13438333Y-15975798D01*
X13428809Y-16013893D01*
X13419286Y-16032941D01*
X13409762Y-16042465D01*
X13390714Y-16051989D01*
X13371667Y-16051989D01*
X13352619Y-16042465D01*
X13343095Y-16032941D01*
X13333571Y-16013893D01*
X13324048Y-15975798D01*
X13324048Y-15928179D01*
X13333571Y-15890084D01*
X13343095Y-15871036D01*
X13352619Y-15861513D01*
X13371667Y-15851989D01*
X13505000Y-15851989D02*
X13638333Y-15851989D01*
X13552619Y-16051989D01*
X13724048Y-16051989D02*
X13762143Y-16051989D01*
X13781190Y-16042465D01*
X13790714Y-16032941D01*
X13809762Y-16004370D01*
X13819286Y-15966274D01*
X13819286Y-15890084D01*
X13809762Y-15871036D01*
X13800238Y-15861513D01*
X13781190Y-15851989D01*
X13743095Y-15851989D01*
X13724048Y-15861513D01*
X13714524Y-15871036D01*
X13705000Y-15890084D01*
X13705000Y-15937703D01*
X13714524Y-15956751D01*
X13724048Y-15966274D01*
X13743095Y-15975798D01*
X13781190Y-15975798D01*
X13800238Y-15966274D01*
X13809762Y-15956751D01*
X13819286Y-15937703D01*
X13895476Y-15851989D02*
X13895476Y-15890084D01*
X13971667Y-15851989D02*
X13971667Y-15890084D01*
X14266905Y-16128179D02*
X14257381Y-16118655D01*
X14238333Y-16090084D01*
X14228809Y-16071036D01*
X14219286Y-16042465D01*
X14209762Y-15994846D01*
X14209762Y-15956751D01*
X14219286Y-15909132D01*
X14228809Y-15880560D01*
X14238333Y-15861513D01*
X14257381Y-15832941D01*
X14266905Y-15823417D01*
X14333571Y-15871036D02*
X14343095Y-15861513D01*
X14362143Y-15851989D01*
X14409762Y-15851989D01*
X14428809Y-15861513D01*
X14438333Y-15871036D01*
X14447857Y-15890084D01*
X14447857Y-15909132D01*
X14438333Y-15937703D01*
X14324048Y-16051989D01*
X14447857Y-16051989D01*
X14571667Y-15851989D02*
X14590714Y-15851989D01*
X14609762Y-15861513D01*
X14619286Y-15871036D01*
X14628809Y-15890084D01*
X14638333Y-15928179D01*
X14638333Y-15975798D01*
X14628809Y-16013893D01*
X14619286Y-16032941D01*
X14609762Y-16042465D01*
X14590714Y-16051989D01*
X14571667Y-16051989D01*
X14552619Y-16042465D01*
X14543095Y-16032941D01*
X14533571Y-16013893D01*
X14524048Y-15975798D01*
X14524048Y-15928179D01*
X14533571Y-15890084D01*
X14543095Y-15871036D01*
X14552619Y-15861513D01*
X14571667Y-15851989D01*
X14876428Y-16051989D02*
X14876428Y-15851989D01*
X14962143Y-16051989D02*
X14962143Y-15947227D01*
X14952619Y-15928179D01*
X14933571Y-15918655D01*
X14905000Y-15918655D01*
X14885952Y-15928179D01*
X14876428Y-15937703D01*
X15085952Y-16051989D02*
X15066905Y-16042465D01*
X15057381Y-16032941D01*
X15047857Y-16013893D01*
X15047857Y-15956751D01*
X15057381Y-15937703D01*
X15066905Y-15928179D01*
X15085952Y-15918655D01*
X15114524Y-15918655D01*
X15133571Y-15928179D01*
X15143095Y-15937703D01*
X15152619Y-15956751D01*
X15152619Y-16013893D01*
X15143095Y-16032941D01*
X15133571Y-16042465D01*
X15114524Y-16051989D01*
X15085952Y-16051989D01*
X15266905Y-16051989D02*
X15247857Y-16042465D01*
X15238333Y-16023417D01*
X15238333Y-15851989D01*
X15419286Y-16042465D02*
X15400238Y-16051989D01*
X15362143Y-16051989D01*
X15343095Y-16042465D01*
X15333571Y-16023417D01*
X15333571Y-15947227D01*
X15343095Y-15928179D01*
X15362143Y-15918655D01*
X15400238Y-15918655D01*
X15419286Y-15928179D01*
X15428809Y-15947227D01*
X15428809Y-15966274D01*
X15333571Y-15985322D01*
X15505000Y-16042465D02*
X15524048Y-16051989D01*
X15562143Y-16051989D01*
X15581190Y-16042465D01*
X15590714Y-16023417D01*
X15590714Y-16013893D01*
X15581190Y-15994846D01*
X15562143Y-15985322D01*
X15533571Y-15985322D01*
X15514524Y-15975798D01*
X15505000Y-15956751D01*
X15505000Y-15947227D01*
X15514524Y-15928179D01*
X15533571Y-15918655D01*
X15562143Y-15918655D01*
X15581190Y-15928179D01*
X15657381Y-16128179D02*
X15666905Y-16118655D01*
X15685952Y-16090084D01*
X15695476Y-16071036D01*
X15705000Y-16042465D01*
X15714524Y-15994846D01*
X15714524Y-15956751D01*
X15705000Y-15909132D01*
X15695476Y-15880560D01*
X15685952Y-15861513D01*
X15666905Y-15832941D01*
X15657381Y-15823417D01*
D13*
X10680000Y-16210513D02*
X10680000Y-16240513D01*
X10665000Y-16225513D02*
X10695000Y-16225513D01*
D11*
X10990714Y-16115989D02*
X11009762Y-16115989D01*
X11028810Y-16125513D01*
X11038333Y-16135036D01*
X11047857Y-16154084D01*
X11057381Y-16192179D01*
X11057381Y-16239798D01*
X11047857Y-16277893D01*
X11038333Y-16296941D01*
X11028810Y-16306465D01*
X11009762Y-16315989D01*
X10990714Y-16315989D01*
X10971667Y-16306465D01*
X10962143Y-16296941D01*
X10952619Y-16277893D01*
X10943095Y-16239798D01*
X10943095Y-16192179D01*
X10952619Y-16154084D01*
X10962143Y-16135036D01*
X10971667Y-16125513D01*
X10990714Y-16115989D01*
X11143095Y-16296941D02*
X11152619Y-16306465D01*
X11143095Y-16315989D01*
X11133571Y-16306465D01*
X11143095Y-16296941D01*
X11143095Y-16315989D01*
X11219286Y-16115989D02*
X11343095Y-16115989D01*
X11276428Y-16192179D01*
X11305000Y-16192179D01*
X11324048Y-16201703D01*
X11333571Y-16211227D01*
X11343095Y-16230274D01*
X11343095Y-16277893D01*
X11333571Y-16296941D01*
X11324048Y-16306465D01*
X11305000Y-16315989D01*
X11247857Y-16315989D01*
X11228809Y-16306465D01*
X11219286Y-16296941D01*
X11466905Y-16115989D02*
X11485952Y-16115989D01*
X11505000Y-16125513D01*
X11514524Y-16135036D01*
X11524048Y-16154084D01*
X11533571Y-16192179D01*
X11533571Y-16239798D01*
X11524048Y-16277893D01*
X11514524Y-16296941D01*
X11505000Y-16306465D01*
X11485952Y-16315989D01*
X11466905Y-16315989D01*
X11447857Y-16306465D01*
X11438333Y-16296941D01*
X11428809Y-16277893D01*
X11419286Y-16239798D01*
X11419286Y-16192179D01*
X11428809Y-16154084D01*
X11438333Y-16135036D01*
X11447857Y-16125513D01*
X11466905Y-16115989D01*
X11657381Y-16115989D02*
X11676428Y-16115989D01*
X11695476Y-16125513D01*
X11705000Y-16135036D01*
X11714524Y-16154084D01*
X11724048Y-16192179D01*
X11724048Y-16239798D01*
X11714524Y-16277893D01*
X11705000Y-16296941D01*
X11695476Y-16306465D01*
X11676428Y-16315989D01*
X11657381Y-16315989D01*
X11638333Y-16306465D01*
X11628809Y-16296941D01*
X11619286Y-16277893D01*
X11609762Y-16239798D01*
X11609762Y-16192179D01*
X11619286Y-16154084D01*
X11628809Y-16135036D01*
X11638333Y-16125513D01*
X11657381Y-16115989D01*
X11809762Y-16315989D02*
X11809762Y-16182655D01*
X11809762Y-16201703D02*
X11819286Y-16192179D01*
X11838333Y-16182655D01*
X11866905Y-16182655D01*
X11885952Y-16192179D01*
X11895476Y-16211227D01*
X11895476Y-16315989D01*
X11895476Y-16211227D02*
X11905000Y-16192179D01*
X11924048Y-16182655D01*
X11952619Y-16182655D01*
X11971667Y-16192179D01*
X11981190Y-16211227D01*
X11981190Y-16315989D01*
X12076428Y-16315989D02*
X12076428Y-16182655D01*
X12076428Y-16201703D02*
X12085952Y-16192179D01*
X12105000Y-16182655D01*
X12133571Y-16182655D01*
X12152619Y-16192179D01*
X12162143Y-16211227D01*
X12162143Y-16315989D01*
X12162143Y-16211227D02*
X12171667Y-16192179D01*
X12190714Y-16182655D01*
X12219286Y-16182655D01*
X12238333Y-16192179D01*
X12247857Y-16211227D01*
X12247857Y-16315989D01*
X12638333Y-16106465D02*
X12466905Y-16363608D01*
X12895476Y-16115989D02*
X12914524Y-16115989D01*
X12933571Y-16125513D01*
X12943095Y-16135036D01*
X12952619Y-16154084D01*
X12962143Y-16192179D01*
X12962143Y-16239798D01*
X12952619Y-16277893D01*
X12943095Y-16296941D01*
X12933571Y-16306465D01*
X12914524Y-16315989D01*
X12895476Y-16315989D01*
X12876428Y-16306465D01*
X12866905Y-16296941D01*
X12857381Y-16277893D01*
X12847857Y-16239798D01*
X12847857Y-16192179D01*
X12857381Y-16154084D01*
X12866905Y-16135036D01*
X12876428Y-16125513D01*
X12895476Y-16115989D01*
X13047857Y-16296941D02*
X13057381Y-16306465D01*
X13047857Y-16315989D01*
X13038333Y-16306465D01*
X13047857Y-16296941D01*
X13047857Y-16315989D01*
X13181190Y-16115989D02*
X13200238Y-16115989D01*
X13219286Y-16125513D01*
X13228809Y-16135036D01*
X13238333Y-16154084D01*
X13247857Y-16192179D01*
X13247857Y-16239798D01*
X13238333Y-16277893D01*
X13228809Y-16296941D01*
X13219286Y-16306465D01*
X13200238Y-16315989D01*
X13181190Y-16315989D01*
X13162143Y-16306465D01*
X13152619Y-16296941D01*
X13143095Y-16277893D01*
X13133571Y-16239798D01*
X13133571Y-16192179D01*
X13143095Y-16154084D01*
X13152619Y-16135036D01*
X13162143Y-16125513D01*
X13181190Y-16115989D01*
X13438333Y-16315989D02*
X13324048Y-16315989D01*
X13381190Y-16315989D02*
X13381190Y-16115989D01*
X13362143Y-16144560D01*
X13343095Y-16163608D01*
X13324048Y-16173132D01*
X13628809Y-16315989D02*
X13514524Y-16315989D01*
X13571667Y-16315989D02*
X13571667Y-16115989D01*
X13552619Y-16144560D01*
X13533571Y-16163608D01*
X13514524Y-16173132D01*
X13743095Y-16201703D02*
X13724048Y-16192179D01*
X13714524Y-16182655D01*
X13705000Y-16163608D01*
X13705000Y-16154084D01*
X13714524Y-16135036D01*
X13724048Y-16125513D01*
X13743095Y-16115989D01*
X13781190Y-16115989D01*
X13800238Y-16125513D01*
X13809762Y-16135036D01*
X13819286Y-16154084D01*
X13819286Y-16163608D01*
X13809762Y-16182655D01*
X13800238Y-16192179D01*
X13781190Y-16201703D01*
X13743095Y-16201703D01*
X13724048Y-16211227D01*
X13714524Y-16220751D01*
X13705000Y-16239798D01*
X13705000Y-16277893D01*
X13714524Y-16296941D01*
X13724048Y-16306465D01*
X13743095Y-16315989D01*
X13781190Y-16315989D01*
X13800238Y-16306465D01*
X13809762Y-16296941D01*
X13819286Y-16277893D01*
X13819286Y-16239798D01*
X13809762Y-16220751D01*
X13800238Y-16211227D01*
X13781190Y-16201703D01*
X13895476Y-16115989D02*
X13895476Y-16154084D01*
X13971667Y-16115989D02*
X13971667Y-16154084D01*
X14266905Y-16392179D02*
X14257381Y-16382655D01*
X14238333Y-16354084D01*
X14228809Y-16335036D01*
X14219286Y-16306465D01*
X14209762Y-16258846D01*
X14209762Y-16220751D01*
X14219286Y-16173132D01*
X14228809Y-16144560D01*
X14238333Y-16125513D01*
X14257381Y-16096941D01*
X14266905Y-16087417D01*
X14333571Y-16135036D02*
X14343095Y-16125513D01*
X14362143Y-16115989D01*
X14409762Y-16115989D01*
X14428809Y-16125513D01*
X14438333Y-16135036D01*
X14447857Y-16154084D01*
X14447857Y-16173132D01*
X14438333Y-16201703D01*
X14324048Y-16315989D01*
X14447857Y-16315989D01*
X14638333Y-16315989D02*
X14524048Y-16315989D01*
X14581190Y-16315989D02*
X14581190Y-16115989D01*
X14562143Y-16144560D01*
X14543095Y-16163608D01*
X14524048Y-16173132D01*
X14714524Y-16135036D02*
X14724048Y-16125513D01*
X14743095Y-16115989D01*
X14790714Y-16115989D01*
X14809762Y-16125513D01*
X14819286Y-16135036D01*
X14828809Y-16154084D01*
X14828809Y-16173132D01*
X14819286Y-16201703D01*
X14705000Y-16315989D01*
X14828809Y-16315989D01*
X15066905Y-16315989D02*
X15066905Y-16115989D01*
X15152619Y-16315989D02*
X15152619Y-16211227D01*
X15143095Y-16192179D01*
X15124048Y-16182655D01*
X15095476Y-16182655D01*
X15076428Y-16192179D01*
X15066905Y-16201703D01*
X15276428Y-16315989D02*
X15257381Y-16306465D01*
X15247857Y-16296941D01*
X15238333Y-16277893D01*
X15238333Y-16220751D01*
X15247857Y-16201703D01*
X15257381Y-16192179D01*
X15276428Y-16182655D01*
X15305000Y-16182655D01*
X15324048Y-16192179D01*
X15333571Y-16201703D01*
X15343095Y-16220751D01*
X15343095Y-16277893D01*
X15333571Y-16296941D01*
X15324048Y-16306465D01*
X15305000Y-16315989D01*
X15276428Y-16315989D01*
X15457381Y-16315989D02*
X15438333Y-16306465D01*
X15428809Y-16287417D01*
X15428809Y-16115989D01*
X15609762Y-16306465D02*
X15590714Y-16315989D01*
X15552619Y-16315989D01*
X15533571Y-16306465D01*
X15524048Y-16287417D01*
X15524048Y-16211227D01*
X15533571Y-16192179D01*
X15552619Y-16182655D01*
X15590714Y-16182655D01*
X15609762Y-16192179D01*
X15619286Y-16211227D01*
X15619286Y-16230274D01*
X15524048Y-16249322D01*
X15695476Y-16306465D02*
X15714524Y-16315989D01*
X15752619Y-16315989D01*
X15771667Y-16306465D01*
X15781190Y-16287417D01*
X15781190Y-16277893D01*
X15771667Y-16258846D01*
X15752619Y-16249322D01*
X15724048Y-16249322D01*
X15705000Y-16239798D01*
X15695476Y-16220751D01*
X15695476Y-16211227D01*
X15705000Y-16192179D01*
X15724048Y-16182655D01*
X15752619Y-16182655D01*
X15771667Y-16192179D01*
X15847857Y-16392179D02*
X15857381Y-16382655D01*
X15876428Y-16354084D01*
X15885952Y-16335036D01*
X15895476Y-16306465D01*
X15905000Y-16258846D01*
X15905000Y-16220751D01*
X15895476Y-16173132D01*
X15885952Y-16144560D01*
X15876428Y-16125513D01*
X15857381Y-16096941D01*
X15847857Y-16087417D01*
D14*
X10689142Y-16503655D02*
X10689142Y-16475370D01*
X10660858Y-16475370D01*
X10660858Y-16503655D01*
X10689142Y-16503655D01*
D11*
X10990714Y-16379989D02*
X11009762Y-16379989D01*
X11028810Y-16389513D01*
X11038333Y-16399036D01*
X11047857Y-16418084D01*
X11057381Y-16456179D01*
X11057381Y-16503798D01*
X11047857Y-16541893D01*
X11038333Y-16560941D01*
X11028810Y-16570465D01*
X11009762Y-16579989D01*
X10990714Y-16579989D01*
X10971667Y-16570465D01*
X10962143Y-16560941D01*
X10952619Y-16541893D01*
X10943095Y-16503798D01*
X10943095Y-16456179D01*
X10952619Y-16418084D01*
X10962143Y-16399036D01*
X10971667Y-16389513D01*
X10990714Y-16379989D01*
X11143095Y-16560941D02*
X11152619Y-16570465D01*
X11143095Y-16579989D01*
X11133571Y-16570465D01*
X11143095Y-16560941D01*
X11143095Y-16579989D01*
X11324048Y-16446655D02*
X11324048Y-16579989D01*
X11276428Y-16370465D02*
X11228809Y-16513322D01*
X11352619Y-16513322D01*
X11466905Y-16379989D02*
X11485952Y-16379989D01*
X11505000Y-16389513D01*
X11514524Y-16399036D01*
X11524048Y-16418084D01*
X11533571Y-16456179D01*
X11533571Y-16503798D01*
X11524048Y-16541893D01*
X11514524Y-16560941D01*
X11505000Y-16570465D01*
X11485952Y-16579989D01*
X11466905Y-16579989D01*
X11447857Y-16570465D01*
X11438333Y-16560941D01*
X11428809Y-16541893D01*
X11419286Y-16503798D01*
X11419286Y-16456179D01*
X11428809Y-16418084D01*
X11438333Y-16399036D01*
X11447857Y-16389513D01*
X11466905Y-16379989D01*
X11657381Y-16379989D02*
X11676428Y-16379989D01*
X11695476Y-16389513D01*
X11705000Y-16399036D01*
X11714524Y-16418084D01*
X11724048Y-16456179D01*
X11724048Y-16503798D01*
X11714524Y-16541893D01*
X11705000Y-16560941D01*
X11695476Y-16570465D01*
X11676428Y-16579989D01*
X11657381Y-16579989D01*
X11638333Y-16570465D01*
X11628809Y-16560941D01*
X11619286Y-16541893D01*
X11609762Y-16503798D01*
X11609762Y-16456179D01*
X11619286Y-16418084D01*
X11628809Y-16399036D01*
X11638333Y-16389513D01*
X11657381Y-16379989D01*
X11809762Y-16579989D02*
X11809762Y-16446655D01*
X11809762Y-16465703D02*
X11819286Y-16456179D01*
X11838333Y-16446655D01*
X11866905Y-16446655D01*
X11885952Y-16456179D01*
X11895476Y-16475227D01*
X11895476Y-16579989D01*
X11895476Y-16475227D02*
X11905000Y-16456179D01*
X11924048Y-16446655D01*
X11952619Y-16446655D01*
X11971667Y-16456179D01*
X11981190Y-16475227D01*
X11981190Y-16579989D01*
X12076428Y-16579989D02*
X12076428Y-16446655D01*
X12076428Y-16465703D02*
X12085952Y-16456179D01*
X12105000Y-16446655D01*
X12133571Y-16446655D01*
X12152619Y-16456179D01*
X12162143Y-16475227D01*
X12162143Y-16579989D01*
X12162143Y-16475227D02*
X12171667Y-16456179D01*
X12190714Y-16446655D01*
X12219286Y-16446655D01*
X12238333Y-16456179D01*
X12247857Y-16475227D01*
X12247857Y-16579989D01*
X12638333Y-16370465D02*
X12466905Y-16627608D01*
X12895476Y-16379989D02*
X12914524Y-16379989D01*
X12933571Y-16389513D01*
X12943095Y-16399036D01*
X12952619Y-16418084D01*
X12962143Y-16456179D01*
X12962143Y-16503798D01*
X12952619Y-16541893D01*
X12943095Y-16560941D01*
X12933571Y-16570465D01*
X12914524Y-16579989D01*
X12895476Y-16579989D01*
X12876428Y-16570465D01*
X12866905Y-16560941D01*
X12857381Y-16541893D01*
X12847857Y-16503798D01*
X12847857Y-16456179D01*
X12857381Y-16418084D01*
X12866905Y-16399036D01*
X12876428Y-16389513D01*
X12895476Y-16379989D01*
X13047857Y-16560941D02*
X13057381Y-16570465D01*
X13047857Y-16579989D01*
X13038333Y-16570465D01*
X13047857Y-16560941D01*
X13047857Y-16579989D01*
X13181190Y-16379989D02*
X13200238Y-16379989D01*
X13219286Y-16389513D01*
X13228809Y-16399036D01*
X13238333Y-16418084D01*
X13247857Y-16456179D01*
X13247857Y-16503798D01*
X13238333Y-16541893D01*
X13228809Y-16560941D01*
X13219286Y-16570465D01*
X13200238Y-16579989D01*
X13181190Y-16579989D01*
X13162143Y-16570465D01*
X13152619Y-16560941D01*
X13143095Y-16541893D01*
X13133571Y-16503798D01*
X13133571Y-16456179D01*
X13143095Y-16418084D01*
X13152619Y-16399036D01*
X13162143Y-16389513D01*
X13181190Y-16379989D01*
X13438333Y-16579989D02*
X13324048Y-16579989D01*
X13381190Y-16579989D02*
X13381190Y-16379989D01*
X13362143Y-16408560D01*
X13343095Y-16427608D01*
X13324048Y-16437132D01*
X13619286Y-16379989D02*
X13524048Y-16379989D01*
X13514524Y-16475227D01*
X13524048Y-16465703D01*
X13543095Y-16456179D01*
X13590714Y-16456179D01*
X13609762Y-16465703D01*
X13619286Y-16475227D01*
X13628809Y-16494274D01*
X13628809Y-16541893D01*
X13619286Y-16560941D01*
X13609762Y-16570465D01*
X13590714Y-16579989D01*
X13543095Y-16579989D01*
X13524048Y-16570465D01*
X13514524Y-16560941D01*
X13695476Y-16379989D02*
X13828809Y-16379989D01*
X13743095Y-16579989D01*
X13895476Y-16379989D02*
X13895476Y-16418084D01*
X13971667Y-16379989D02*
X13971667Y-16418084D01*
X14266905Y-16656179D02*
X14257381Y-16646655D01*
X14238333Y-16618084D01*
X14228809Y-16599036D01*
X14219286Y-16570465D01*
X14209762Y-16522846D01*
X14209762Y-16484751D01*
X14219286Y-16437132D01*
X14228809Y-16408560D01*
X14238333Y-16389513D01*
X14257381Y-16360941D01*
X14266905Y-16351417D01*
X14438333Y-16379989D02*
X14343095Y-16379989D01*
X14333571Y-16475227D01*
X14343095Y-16465703D01*
X14362143Y-16456179D01*
X14409762Y-16456179D01*
X14428809Y-16465703D01*
X14438333Y-16475227D01*
X14447857Y-16494274D01*
X14447857Y-16541893D01*
X14438333Y-16560941D01*
X14428809Y-16570465D01*
X14409762Y-16579989D01*
X14362143Y-16579989D01*
X14343095Y-16570465D01*
X14333571Y-16560941D01*
X14685952Y-16579989D02*
X14685952Y-16379989D01*
X14771667Y-16579989D02*
X14771667Y-16475227D01*
X14762143Y-16456179D01*
X14743095Y-16446655D01*
X14714524Y-16446655D01*
X14695476Y-16456179D01*
X14685952Y-16465703D01*
X14895476Y-16579989D02*
X14876428Y-16570465D01*
X14866905Y-16560941D01*
X14857381Y-16541893D01*
X14857381Y-16484751D01*
X14866905Y-16465703D01*
X14876428Y-16456179D01*
X14895476Y-16446655D01*
X14924048Y-16446655D01*
X14943095Y-16456179D01*
X14952619Y-16465703D01*
X14962143Y-16484751D01*
X14962143Y-16541893D01*
X14952619Y-16560941D01*
X14943095Y-16570465D01*
X14924048Y-16579989D01*
X14895476Y-16579989D01*
X15076428Y-16579989D02*
X15057381Y-16570465D01*
X15047857Y-16551417D01*
X15047857Y-16379989D01*
X15228809Y-16570465D02*
X15209762Y-16579989D01*
X15171667Y-16579989D01*
X15152619Y-16570465D01*
X15143095Y-16551417D01*
X15143095Y-16475227D01*
X15152619Y-16456179D01*
X15171667Y-16446655D01*
X15209762Y-16446655D01*
X15228809Y-16456179D01*
X15238333Y-16475227D01*
X15238333Y-16494274D01*
X15143095Y-16513322D01*
X15314524Y-16570465D02*
X15333571Y-16579989D01*
X15371667Y-16579989D01*
X15390714Y-16570465D01*
X15400238Y-16551417D01*
X15400238Y-16541893D01*
X15390714Y-16522846D01*
X15371667Y-16513322D01*
X15343095Y-16513322D01*
X15324048Y-16503798D01*
X15314524Y-16484751D01*
X15314524Y-16475227D01*
X15324048Y-16456179D01*
X15343095Y-16446655D01*
X15371667Y-16446655D01*
X15390714Y-16456179D01*
X15466905Y-16656179D02*
X15476428Y-16646655D01*
X15495476Y-16618084D01*
X15505000Y-16599036D01*
X15514524Y-16570465D01*
X15524048Y-16522846D01*
X15524048Y-16484751D01*
X15514524Y-16437132D01*
X15505000Y-16408560D01*
X15495476Y-16389513D01*
X15476428Y-16360941D01*
X15466905Y-16351417D01*
D15*
X10665000Y-16783513D02*
X10695000Y-16753513D01*
X10665000Y-16723513D01*
X10635000Y-16753513D01*
X10665000Y-16783513D01*
D11*
X10990714Y-16643989D02*
X11009762Y-16643989D01*
X11028810Y-16653513D01*
X11038333Y-16663036D01*
X11047857Y-16682084D01*
X11057381Y-16720179D01*
X11057381Y-16767798D01*
X11047857Y-16805894D01*
X11038333Y-16824941D01*
X11028810Y-16834465D01*
X11009762Y-16843989D01*
X10990714Y-16843989D01*
X10971667Y-16834465D01*
X10962143Y-16824941D01*
X10952619Y-16805894D01*
X10943095Y-16767798D01*
X10943095Y-16720179D01*
X10952619Y-16682084D01*
X10962143Y-16663036D01*
X10971667Y-16653513D01*
X10990714Y-16643989D01*
X11143095Y-16824941D02*
X11152619Y-16834465D01*
X11143095Y-16843989D01*
X11133571Y-16834465D01*
X11143095Y-16824941D01*
X11143095Y-16843989D01*
X11324048Y-16643989D02*
X11285952Y-16643989D01*
X11266905Y-16653513D01*
X11257381Y-16663036D01*
X11238333Y-16691608D01*
X11228809Y-16729703D01*
X11228809Y-16805894D01*
X11238333Y-16824941D01*
X11247857Y-16834465D01*
X11266905Y-16843989D01*
X11305000Y-16843989D01*
X11324048Y-16834465D01*
X11333571Y-16824941D01*
X11343095Y-16805894D01*
X11343095Y-16758274D01*
X11333571Y-16739227D01*
X11324048Y-16729703D01*
X11305000Y-16720179D01*
X11266905Y-16720179D01*
X11247857Y-16729703D01*
X11238333Y-16739227D01*
X11228809Y-16758274D01*
X11466905Y-16643989D02*
X11485952Y-16643989D01*
X11505000Y-16653513D01*
X11514524Y-16663036D01*
X11524048Y-16682084D01*
X11533571Y-16720179D01*
X11533571Y-16767798D01*
X11524048Y-16805894D01*
X11514524Y-16824941D01*
X11505000Y-16834465D01*
X11485952Y-16843989D01*
X11466905Y-16843989D01*
X11447857Y-16834465D01*
X11438333Y-16824941D01*
X11428809Y-16805894D01*
X11419286Y-16767798D01*
X11419286Y-16720179D01*
X11428809Y-16682084D01*
X11438333Y-16663036D01*
X11447857Y-16653513D01*
X11466905Y-16643989D01*
X11657381Y-16643989D02*
X11676428Y-16643989D01*
X11695476Y-16653513D01*
X11705000Y-16663036D01*
X11714524Y-16682084D01*
X11724048Y-16720179D01*
X11724048Y-16767798D01*
X11714524Y-16805894D01*
X11705000Y-16824941D01*
X11695476Y-16834465D01*
X11676428Y-16843989D01*
X11657381Y-16843989D01*
X11638333Y-16834465D01*
X11628809Y-16824941D01*
X11619286Y-16805894D01*
X11609762Y-16767798D01*
X11609762Y-16720179D01*
X11619286Y-16682084D01*
X11628809Y-16663036D01*
X11638333Y-16653513D01*
X11657381Y-16643989D01*
X11809762Y-16843989D02*
X11809762Y-16710655D01*
X11809762Y-16729703D02*
X11819286Y-16720179D01*
X11838333Y-16710655D01*
X11866905Y-16710655D01*
X11885952Y-16720179D01*
X11895476Y-16739227D01*
X11895476Y-16843989D01*
X11895476Y-16739227D02*
X11905000Y-16720179D01*
X11924048Y-16710655D01*
X11952619Y-16710655D01*
X11971667Y-16720179D01*
X11981190Y-16739227D01*
X11981190Y-16843989D01*
X12076428Y-16843989D02*
X12076428Y-16710655D01*
X12076428Y-16729703D02*
X12085952Y-16720179D01*
X12105000Y-16710655D01*
X12133571Y-16710655D01*
X12152619Y-16720179D01*
X12162143Y-16739227D01*
X12162143Y-16843989D01*
X12162143Y-16739227D02*
X12171667Y-16720179D01*
X12190714Y-16710655D01*
X12219286Y-16710655D01*
X12238333Y-16720179D01*
X12247857Y-16739227D01*
X12247857Y-16843989D01*
X12638333Y-16634465D02*
X12466905Y-16891608D01*
X12895476Y-16643989D02*
X12914524Y-16643989D01*
X12933571Y-16653513D01*
X12943095Y-16663036D01*
X12952619Y-16682084D01*
X12962143Y-16720179D01*
X12962143Y-16767798D01*
X12952619Y-16805894D01*
X12943095Y-16824941D01*
X12933571Y-16834465D01*
X12914524Y-16843989D01*
X12895476Y-16843989D01*
X12876428Y-16834465D01*
X12866905Y-16824941D01*
X12857381Y-16805894D01*
X12847857Y-16767798D01*
X12847857Y-16720179D01*
X12857381Y-16682084D01*
X12866905Y-16663036D01*
X12876428Y-16653513D01*
X12895476Y-16643989D01*
X13047857Y-16824941D02*
X13057381Y-16834465D01*
X13047857Y-16843989D01*
X13038333Y-16834465D01*
X13047857Y-16824941D01*
X13047857Y-16843989D01*
X13181190Y-16643989D02*
X13200238Y-16643989D01*
X13219286Y-16653513D01*
X13228809Y-16663036D01*
X13238333Y-16682084D01*
X13247857Y-16720179D01*
X13247857Y-16767798D01*
X13238333Y-16805894D01*
X13228809Y-16824941D01*
X13219286Y-16834465D01*
X13200238Y-16843989D01*
X13181190Y-16843989D01*
X13162143Y-16834465D01*
X13152619Y-16824941D01*
X13143095Y-16805894D01*
X13133571Y-16767798D01*
X13133571Y-16720179D01*
X13143095Y-16682084D01*
X13152619Y-16663036D01*
X13162143Y-16653513D01*
X13181190Y-16643989D01*
X13324048Y-16663036D02*
X13333571Y-16653513D01*
X13352619Y-16643989D01*
X13400238Y-16643989D01*
X13419286Y-16653513D01*
X13428809Y-16663036D01*
X13438333Y-16682084D01*
X13438333Y-16701132D01*
X13428809Y-16729703D01*
X13314524Y-16843989D01*
X13438333Y-16843989D01*
X13505000Y-16643989D02*
X13628809Y-16643989D01*
X13562143Y-16720179D01*
X13590714Y-16720179D01*
X13609762Y-16729703D01*
X13619286Y-16739227D01*
X13628809Y-16758274D01*
X13628809Y-16805894D01*
X13619286Y-16824941D01*
X13609762Y-16834465D01*
X13590714Y-16843989D01*
X13533571Y-16843989D01*
X13514524Y-16834465D01*
X13505000Y-16824941D01*
X13800238Y-16643989D02*
X13762143Y-16643989D01*
X13743095Y-16653513D01*
X13733571Y-16663036D01*
X13714524Y-16691608D01*
X13705000Y-16729703D01*
X13705000Y-16805894D01*
X13714524Y-16824941D01*
X13724048Y-16834465D01*
X13743095Y-16843989D01*
X13781190Y-16843989D01*
X13800238Y-16834465D01*
X13809762Y-16824941D01*
X13819286Y-16805894D01*
X13819286Y-16758274D01*
X13809762Y-16739227D01*
X13800238Y-16729703D01*
X13781190Y-16720179D01*
X13743095Y-16720179D01*
X13724048Y-16729703D01*
X13714524Y-16739227D01*
X13705000Y-16758274D01*
X13895476Y-16643989D02*
X13895476Y-16682084D01*
X13971667Y-16643989D02*
X13971667Y-16682084D01*
X14266905Y-16920179D02*
X14257381Y-16910655D01*
X14238333Y-16882084D01*
X14228809Y-16863036D01*
X14219286Y-16834465D01*
X14209762Y-16786846D01*
X14209762Y-16748751D01*
X14219286Y-16701132D01*
X14228809Y-16672560D01*
X14238333Y-16653513D01*
X14257381Y-16624941D01*
X14266905Y-16615417D01*
X14381190Y-16643989D02*
X14400238Y-16643989D01*
X14419286Y-16653513D01*
X14428809Y-16663036D01*
X14438333Y-16682084D01*
X14447857Y-16720179D01*
X14447857Y-16767798D01*
X14438333Y-16805894D01*
X14428809Y-16824941D01*
X14419286Y-16834465D01*
X14400238Y-16843989D01*
X14381190Y-16843989D01*
X14362143Y-16834465D01*
X14352619Y-16824941D01*
X14343095Y-16805894D01*
X14333571Y-16767798D01*
X14333571Y-16720179D01*
X14343095Y-16682084D01*
X14352619Y-16663036D01*
X14362143Y-16653513D01*
X14381190Y-16643989D01*
X14685952Y-16843989D02*
X14685952Y-16643989D01*
X14771667Y-16843989D02*
X14771667Y-16739227D01*
X14762143Y-16720179D01*
X14743095Y-16710655D01*
X14714524Y-16710655D01*
X14695476Y-16720179D01*
X14685952Y-16729703D01*
X14895476Y-16843989D02*
X14876428Y-16834465D01*
X14866905Y-16824941D01*
X14857381Y-16805894D01*
X14857381Y-16748751D01*
X14866905Y-16729703D01*
X14876428Y-16720179D01*
X14895476Y-16710655D01*
X14924048Y-16710655D01*
X14943095Y-16720179D01*
X14952619Y-16729703D01*
X14962143Y-16748751D01*
X14962143Y-16805894D01*
X14952619Y-16824941D01*
X14943095Y-16834465D01*
X14924048Y-16843989D01*
X14895476Y-16843989D01*
X15076428Y-16843989D02*
X15057381Y-16834465D01*
X15047857Y-16815417D01*
X15047857Y-16643989D01*
X15228809Y-16834465D02*
X15209762Y-16843989D01*
X15171667Y-16843989D01*
X15152619Y-16834465D01*
X15143095Y-16815417D01*
X15143095Y-16739227D01*
X15152619Y-16720179D01*
X15171667Y-16710655D01*
X15209762Y-16710655D01*
X15228809Y-16720179D01*
X15238333Y-16739227D01*
X15238333Y-16758274D01*
X15143095Y-16777322D01*
X15314524Y-16834465D02*
X15333571Y-16843989D01*
X15371667Y-16843989D01*
X15390714Y-16834465D01*
X15400238Y-16815417D01*
X15400238Y-16805894D01*
X15390714Y-16786846D01*
X15371667Y-16777322D01*
X15343095Y-16777322D01*
X15324048Y-16767798D01*
X15314524Y-16748751D01*
X15314524Y-16739227D01*
X15324048Y-16720179D01*
X15343095Y-16710655D01*
X15371667Y-16710655D01*
X15390714Y-16720179D01*
X15638333Y-16767798D02*
X15790714Y-16767798D01*
X15714524Y-16843989D02*
X15714524Y-16691608D01*
X16124048Y-16710655D02*
X16124048Y-16843989D01*
X16076428Y-16634465D02*
X16028809Y-16777322D01*
X16152619Y-16777322D01*
X16371667Y-16834465D02*
X16390714Y-16843989D01*
X16428809Y-16843989D01*
X16447857Y-16834465D01*
X16457381Y-16815417D01*
X16457381Y-16805894D01*
X16447857Y-16786846D01*
X16428809Y-16777322D01*
X16400238Y-16777322D01*
X16381190Y-16767798D01*
X16371667Y-16748751D01*
X16371667Y-16739227D01*
X16381190Y-16720179D01*
X16400238Y-16710655D01*
X16428809Y-16710655D01*
X16447857Y-16720179D01*
X16571667Y-16843989D02*
X16552619Y-16834465D01*
X16543095Y-16815417D01*
X16543095Y-16643989D01*
X16676428Y-16843989D02*
X16657381Y-16834465D01*
X16647857Y-16824941D01*
X16638333Y-16805894D01*
X16638333Y-16748751D01*
X16647857Y-16729703D01*
X16657381Y-16720179D01*
X16676428Y-16710655D01*
X16705000Y-16710655D01*
X16724048Y-16720179D01*
X16733571Y-16729703D01*
X16743095Y-16748751D01*
X16743095Y-16805894D01*
X16733571Y-16824941D01*
X16724048Y-16834465D01*
X16705000Y-16843989D01*
X16676428Y-16843989D01*
X16800238Y-16710655D02*
X16876429Y-16710655D01*
X16828810Y-16643989D02*
X16828810Y-16815417D01*
X16838333Y-16834465D01*
X16857381Y-16843989D01*
X16876429Y-16843989D01*
X16933571Y-16834465D02*
X16952619Y-16843989D01*
X16990714Y-16843989D01*
X17009762Y-16834465D01*
X17019286Y-16815417D01*
X17019286Y-16805894D01*
X17009762Y-16786846D01*
X16990714Y-16777322D01*
X16962143Y-16777322D01*
X16943095Y-16767798D01*
X16933571Y-16748751D01*
X16933571Y-16739227D01*
X16943095Y-16720179D01*
X16962143Y-16710655D01*
X16990714Y-16710655D01*
X17009762Y-16720179D01*
X17085952Y-16920179D02*
X17095476Y-16910655D01*
X17114524Y-16882084D01*
X17124048Y-16863036D01*
X17133571Y-16834465D01*
X17143095Y-16786846D01*
X17143095Y-16748751D01*
X17133571Y-16701132D01*
X17124048Y-16672560D01*
X17114524Y-16653513D01*
X17095476Y-16624941D01*
X17085952Y-16615417D01*
D16*
X10630000Y-16985013D02*
X10695000Y-17050013D01*
X10695000Y-16985013D02*
X10630000Y-17050013D01*
X10695000Y-17017513D02*
G75*
G03*
X10695000Y-17017513I-32500J0D01*
G01*
D11*
X10990714Y-16907989D02*
X11009762Y-16907989D01*
X11028810Y-16917513D01*
X11038333Y-16927036D01*
X11047857Y-16946084D01*
X11057381Y-16984179D01*
X11057381Y-17031798D01*
X11047857Y-17069894D01*
X11038333Y-17088941D01*
X11028810Y-17098465D01*
X11009762Y-17107989D01*
X10990714Y-17107989D01*
X10971667Y-17098465D01*
X10962143Y-17088941D01*
X10952619Y-17069894D01*
X10943095Y-17031798D01*
X10943095Y-16984179D01*
X10952619Y-16946084D01*
X10962143Y-16927036D01*
X10971667Y-16917513D01*
X10990714Y-16907989D01*
X11143095Y-17088941D02*
X11152619Y-17098465D01*
X11143095Y-17107989D01*
X11133571Y-17098465D01*
X11143095Y-17088941D01*
X11143095Y-17107989D01*
X11324048Y-16907989D02*
X11285952Y-16907989D01*
X11266905Y-16917513D01*
X11257381Y-16927036D01*
X11238333Y-16955608D01*
X11228809Y-16993703D01*
X11228809Y-17069894D01*
X11238333Y-17088941D01*
X11247857Y-17098465D01*
X11266905Y-17107989D01*
X11305000Y-17107989D01*
X11324048Y-17098465D01*
X11333571Y-17088941D01*
X11343095Y-17069894D01*
X11343095Y-17022275D01*
X11333571Y-17003227D01*
X11324048Y-16993703D01*
X11305000Y-16984179D01*
X11266905Y-16984179D01*
X11247857Y-16993703D01*
X11238333Y-17003227D01*
X11228809Y-17022275D01*
X11524048Y-16907989D02*
X11428809Y-16907989D01*
X11419286Y-17003227D01*
X11428809Y-16993703D01*
X11447857Y-16984179D01*
X11495476Y-16984179D01*
X11514524Y-16993703D01*
X11524048Y-17003227D01*
X11533571Y-17022275D01*
X11533571Y-17069894D01*
X11524048Y-17088941D01*
X11514524Y-17098465D01*
X11495476Y-17107989D01*
X11447857Y-17107989D01*
X11428809Y-17098465D01*
X11419286Y-17088941D01*
X11657381Y-16907989D02*
X11676428Y-16907989D01*
X11695476Y-16917513D01*
X11705000Y-16927036D01*
X11714524Y-16946084D01*
X11724048Y-16984179D01*
X11724048Y-17031798D01*
X11714524Y-17069894D01*
X11705000Y-17088941D01*
X11695476Y-17098465D01*
X11676428Y-17107989D01*
X11657381Y-17107989D01*
X11638333Y-17098465D01*
X11628809Y-17088941D01*
X11619286Y-17069894D01*
X11609762Y-17031798D01*
X11609762Y-16984179D01*
X11619286Y-16946084D01*
X11628809Y-16927036D01*
X11638333Y-16917513D01*
X11657381Y-16907989D01*
X11809762Y-17107989D02*
X11809762Y-16974655D01*
X11809762Y-16993703D02*
X11819286Y-16984179D01*
X11838333Y-16974655D01*
X11866905Y-16974655D01*
X11885952Y-16984179D01*
X11895476Y-17003227D01*
X11895476Y-17107989D01*
X11895476Y-17003227D02*
X11905000Y-16984179D01*
X11924048Y-16974655D01*
X11952619Y-16974655D01*
X11971667Y-16984179D01*
X11981190Y-17003227D01*
X11981190Y-17107989D01*
X12076428Y-17107989D02*
X12076428Y-16974655D01*
X12076428Y-16993703D02*
X12085952Y-16984179D01*
X12105000Y-16974655D01*
X12133571Y-16974655D01*
X12152619Y-16984179D01*
X12162143Y-17003227D01*
X12162143Y-17107989D01*
X12162143Y-17003227D02*
X12171667Y-16984179D01*
X12190714Y-16974655D01*
X12219286Y-16974655D01*
X12238333Y-16984179D01*
X12247857Y-17003227D01*
X12247857Y-17107989D01*
X12638333Y-16898465D02*
X12466905Y-17155608D01*
X12895476Y-16907989D02*
X12914524Y-16907989D01*
X12933571Y-16917513D01*
X12943095Y-16927036D01*
X12952619Y-16946084D01*
X12962143Y-16984179D01*
X12962143Y-17031798D01*
X12952619Y-17069894D01*
X12943095Y-17088941D01*
X12933571Y-17098465D01*
X12914524Y-17107989D01*
X12895476Y-17107989D01*
X12876428Y-17098465D01*
X12866905Y-17088941D01*
X12857381Y-17069894D01*
X12847857Y-17031798D01*
X12847857Y-16984179D01*
X12857381Y-16946084D01*
X12866905Y-16927036D01*
X12876428Y-16917513D01*
X12895476Y-16907989D01*
X13047857Y-17088941D02*
X13057381Y-17098465D01*
X13047857Y-17107989D01*
X13038333Y-17098465D01*
X13047857Y-17088941D01*
X13047857Y-17107989D01*
X13181190Y-16907989D02*
X13200238Y-16907989D01*
X13219286Y-16917513D01*
X13228809Y-16927036D01*
X13238333Y-16946084D01*
X13247857Y-16984179D01*
X13247857Y-17031798D01*
X13238333Y-17069894D01*
X13228809Y-17088941D01*
X13219286Y-17098465D01*
X13200238Y-17107989D01*
X13181190Y-17107989D01*
X13162143Y-17098465D01*
X13152619Y-17088941D01*
X13143095Y-17069894D01*
X13133571Y-17031798D01*
X13133571Y-16984179D01*
X13143095Y-16946084D01*
X13152619Y-16927036D01*
X13162143Y-16917513D01*
X13181190Y-16907989D01*
X13324048Y-16927036D02*
X13333571Y-16917513D01*
X13352619Y-16907989D01*
X13400238Y-16907989D01*
X13419286Y-16917513D01*
X13428809Y-16927036D01*
X13438333Y-16946084D01*
X13438333Y-16965132D01*
X13428809Y-16993703D01*
X13314524Y-17107989D01*
X13438333Y-17107989D01*
X13619286Y-16907989D02*
X13524048Y-16907989D01*
X13514524Y-17003227D01*
X13524048Y-16993703D01*
X13543095Y-16984179D01*
X13590714Y-16984179D01*
X13609762Y-16993703D01*
X13619286Y-17003227D01*
X13628809Y-17022275D01*
X13628809Y-17069894D01*
X13619286Y-17088941D01*
X13609762Y-17098465D01*
X13590714Y-17107989D01*
X13543095Y-17107989D01*
X13524048Y-17098465D01*
X13514524Y-17088941D01*
X13800238Y-16907989D02*
X13762143Y-16907989D01*
X13743095Y-16917513D01*
X13733571Y-16927036D01*
X13714524Y-16955608D01*
X13705000Y-16993703D01*
X13705000Y-17069894D01*
X13714524Y-17088941D01*
X13724048Y-17098465D01*
X13743095Y-17107989D01*
X13781190Y-17107989D01*
X13800238Y-17098465D01*
X13809762Y-17088941D01*
X13819286Y-17069894D01*
X13819286Y-17022275D01*
X13809762Y-17003227D01*
X13800238Y-16993703D01*
X13781190Y-16984179D01*
X13743095Y-16984179D01*
X13724048Y-16993703D01*
X13714524Y-17003227D01*
X13705000Y-17022275D01*
X13895476Y-16907989D02*
X13895476Y-16946084D01*
X13971667Y-16907989D02*
X13971667Y-16946084D01*
X14266905Y-17184179D02*
X14257381Y-17174655D01*
X14238333Y-17146084D01*
X14228809Y-17127036D01*
X14219286Y-17098465D01*
X14209762Y-17050846D01*
X14209762Y-17012751D01*
X14219286Y-16965132D01*
X14228809Y-16936560D01*
X14238333Y-16917513D01*
X14257381Y-16888941D01*
X14266905Y-16879417D01*
X14333571Y-16927036D02*
X14343095Y-16917513D01*
X14362143Y-16907989D01*
X14409762Y-16907989D01*
X14428809Y-16917513D01*
X14438333Y-16927036D01*
X14447857Y-16946084D01*
X14447857Y-16965132D01*
X14438333Y-16993703D01*
X14324048Y-17107989D01*
X14447857Y-17107989D01*
X14685952Y-17107989D02*
X14685952Y-16907989D01*
X14771667Y-17107989D02*
X14771667Y-17003227D01*
X14762143Y-16984179D01*
X14743095Y-16974655D01*
X14714524Y-16974655D01*
X14695476Y-16984179D01*
X14685952Y-16993703D01*
X14895476Y-17107989D02*
X14876428Y-17098465D01*
X14866905Y-17088941D01*
X14857381Y-17069894D01*
X14857381Y-17012751D01*
X14866905Y-16993703D01*
X14876428Y-16984179D01*
X14895476Y-16974655D01*
X14924048Y-16974655D01*
X14943095Y-16984179D01*
X14952619Y-16993703D01*
X14962143Y-17012751D01*
X14962143Y-17069894D01*
X14952619Y-17088941D01*
X14943095Y-17098465D01*
X14924048Y-17107989D01*
X14895476Y-17107989D01*
X15076428Y-17107989D02*
X15057381Y-17098465D01*
X15047857Y-17079417D01*
X15047857Y-16907989D01*
X15228809Y-17098465D02*
X15209762Y-17107989D01*
X15171667Y-17107989D01*
X15152619Y-17098465D01*
X15143095Y-17079417D01*
X15143095Y-17003227D01*
X15152619Y-16984179D01*
X15171667Y-16974655D01*
X15209762Y-16974655D01*
X15228809Y-16984179D01*
X15238333Y-17003227D01*
X15238333Y-17022275D01*
X15143095Y-17041322D01*
X15314524Y-17098465D02*
X15333571Y-17107989D01*
X15371667Y-17107989D01*
X15390714Y-17098465D01*
X15400238Y-17079417D01*
X15400238Y-17069894D01*
X15390714Y-17050846D01*
X15371667Y-17041322D01*
X15343095Y-17041322D01*
X15324048Y-17031798D01*
X15314524Y-17012751D01*
X15314524Y-17003227D01*
X15324048Y-16984179D01*
X15343095Y-16974655D01*
X15371667Y-16974655D01*
X15390714Y-16984179D01*
X15466905Y-17184179D02*
X15476428Y-17174655D01*
X15495476Y-17146084D01*
X15505000Y-17127036D01*
X15514524Y-17098465D01*
X15524048Y-17050846D01*
X15524048Y-17012751D01*
X15514524Y-16965132D01*
X15505000Y-16936560D01*
X15495476Y-16917513D01*
X15476428Y-16888941D01*
X15466905Y-16879417D01*
D17*
X10625000Y-17246513D02*
X10695000Y-17316513D01*
X10695000Y-17246513D02*
X10625000Y-17316513D01*
X10660000Y-17246513D02*
X10660000Y-17316513D01*
X10625000Y-17281513D02*
X10695000Y-17281513D01*
D11*
X10990714Y-17171989D02*
X11009762Y-17171989D01*
X11028810Y-17181513D01*
X11038333Y-17191036D01*
X11047857Y-17210084D01*
X11057381Y-17248179D01*
X11057381Y-17295798D01*
X11047857Y-17333894D01*
X11038333Y-17352941D01*
X11028810Y-17362465D01*
X11009762Y-17371989D01*
X10990714Y-17371989D01*
X10971667Y-17362465D01*
X10962143Y-17352941D01*
X10952619Y-17333894D01*
X10943095Y-17295798D01*
X10943095Y-17248179D01*
X10952619Y-17210084D01*
X10962143Y-17191036D01*
X10971667Y-17181513D01*
X10990714Y-17171989D01*
X11143095Y-17352941D02*
X11152619Y-17362465D01*
X11143095Y-17371989D01*
X11133571Y-17362465D01*
X11143095Y-17352941D01*
X11143095Y-17371989D01*
X11219286Y-17171989D02*
X11352619Y-17171989D01*
X11266905Y-17371989D01*
X11466905Y-17171989D02*
X11485952Y-17171989D01*
X11505000Y-17181513D01*
X11514524Y-17191036D01*
X11524048Y-17210084D01*
X11533571Y-17248179D01*
X11533571Y-17295798D01*
X11524048Y-17333894D01*
X11514524Y-17352941D01*
X11505000Y-17362465D01*
X11485952Y-17371989D01*
X11466905Y-17371989D01*
X11447857Y-17362465D01*
X11438333Y-17352941D01*
X11428809Y-17333894D01*
X11419286Y-17295798D01*
X11419286Y-17248179D01*
X11428809Y-17210084D01*
X11438333Y-17191036D01*
X11447857Y-17181513D01*
X11466905Y-17171989D01*
X11657381Y-17171989D02*
X11676428Y-17171989D01*
X11695476Y-17181513D01*
X11705000Y-17191036D01*
X11714524Y-17210084D01*
X11724048Y-17248179D01*
X11724048Y-17295798D01*
X11714524Y-17333894D01*
X11705000Y-17352941D01*
X11695476Y-17362465D01*
X11676428Y-17371989D01*
X11657381Y-17371989D01*
X11638333Y-17362465D01*
X11628809Y-17352941D01*
X11619286Y-17333894D01*
X11609762Y-17295798D01*
X11609762Y-17248179D01*
X11619286Y-17210084D01*
X11628809Y-17191036D01*
X11638333Y-17181513D01*
X11657381Y-17171989D01*
X11809762Y-17371989D02*
X11809762Y-17238655D01*
X11809762Y-17257703D02*
X11819286Y-17248179D01*
X11838333Y-17238655D01*
X11866905Y-17238655D01*
X11885952Y-17248179D01*
X11895476Y-17267227D01*
X11895476Y-17371989D01*
X11895476Y-17267227D02*
X11905000Y-17248179D01*
X11924048Y-17238655D01*
X11952619Y-17238655D01*
X11971667Y-17248179D01*
X11981190Y-17267227D01*
X11981190Y-17371989D01*
X12076428Y-17371989D02*
X12076428Y-17238655D01*
X12076428Y-17257703D02*
X12085952Y-17248179D01*
X12105000Y-17238655D01*
X12133571Y-17238655D01*
X12152619Y-17248179D01*
X12162143Y-17267227D01*
X12162143Y-17371989D01*
X12162143Y-17267227D02*
X12171667Y-17248179D01*
X12190714Y-17238655D01*
X12219286Y-17238655D01*
X12238333Y-17248179D01*
X12247857Y-17267227D01*
X12247857Y-17371989D01*
X12638333Y-17162465D02*
X12466905Y-17419608D01*
X12895476Y-17171989D02*
X12914524Y-17171989D01*
X12933571Y-17181513D01*
X12943095Y-17191036D01*
X12952619Y-17210084D01*
X12962143Y-17248179D01*
X12962143Y-17295798D01*
X12952619Y-17333894D01*
X12943095Y-17352941D01*
X12933571Y-17362465D01*
X12914524Y-17371989D01*
X12895476Y-17371989D01*
X12876428Y-17362465D01*
X12866905Y-17352941D01*
X12857381Y-17333894D01*
X12847857Y-17295798D01*
X12847857Y-17248179D01*
X12857381Y-17210084D01*
X12866905Y-17191036D01*
X12876428Y-17181513D01*
X12895476Y-17171989D01*
X13047857Y-17352941D02*
X13057381Y-17362465D01*
X13047857Y-17371989D01*
X13038333Y-17362465D01*
X13047857Y-17352941D01*
X13047857Y-17371989D01*
X13181190Y-17171989D02*
X13200238Y-17171989D01*
X13219286Y-17181513D01*
X13228809Y-17191036D01*
X13238333Y-17210084D01*
X13247857Y-17248179D01*
X13247857Y-17295798D01*
X13238333Y-17333894D01*
X13228809Y-17352941D01*
X13219286Y-17362465D01*
X13200238Y-17371989D01*
X13181190Y-17371989D01*
X13162143Y-17362465D01*
X13152619Y-17352941D01*
X13143095Y-17333894D01*
X13133571Y-17295798D01*
X13133571Y-17248179D01*
X13143095Y-17210084D01*
X13152619Y-17191036D01*
X13162143Y-17181513D01*
X13181190Y-17171989D01*
X13324048Y-17191036D02*
X13333571Y-17181513D01*
X13352619Y-17171989D01*
X13400238Y-17171989D01*
X13419286Y-17181513D01*
X13428809Y-17191036D01*
X13438333Y-17210084D01*
X13438333Y-17229132D01*
X13428809Y-17257703D01*
X13314524Y-17371989D01*
X13438333Y-17371989D01*
X13505000Y-17171989D02*
X13638333Y-17171989D01*
X13552619Y-17371989D01*
X13800238Y-17171989D02*
X13762143Y-17171989D01*
X13743095Y-17181513D01*
X13733571Y-17191036D01*
X13714524Y-17219608D01*
X13705000Y-17257703D01*
X13705000Y-17333894D01*
X13714524Y-17352941D01*
X13724048Y-17362465D01*
X13743095Y-17371989D01*
X13781190Y-17371989D01*
X13800238Y-17362465D01*
X13809762Y-17352941D01*
X13819286Y-17333894D01*
X13819286Y-17286275D01*
X13809762Y-17267227D01*
X13800238Y-17257703D01*
X13781190Y-17248179D01*
X13743095Y-17248179D01*
X13724048Y-17257703D01*
X13714524Y-17267227D01*
X13705000Y-17286275D01*
X13895476Y-17171989D02*
X13895476Y-17210084D01*
X13971667Y-17171989D02*
X13971667Y-17210084D01*
X14266905Y-17448179D02*
X14257381Y-17438655D01*
X14238333Y-17410084D01*
X14228809Y-17391036D01*
X14219286Y-17362465D01*
X14209762Y-17314846D01*
X14209762Y-17276751D01*
X14219286Y-17229132D01*
X14228809Y-17200560D01*
X14238333Y-17181513D01*
X14257381Y-17152941D01*
X14266905Y-17143417D01*
X14371667Y-17257703D02*
X14352619Y-17248179D01*
X14343095Y-17238655D01*
X14333571Y-17219608D01*
X14333571Y-17210084D01*
X14343095Y-17191036D01*
X14352619Y-17181513D01*
X14371667Y-17171989D01*
X14409762Y-17171989D01*
X14428809Y-17181513D01*
X14438333Y-17191036D01*
X14447857Y-17210084D01*
X14447857Y-17219608D01*
X14438333Y-17238655D01*
X14428809Y-17248179D01*
X14409762Y-17257703D01*
X14371667Y-17257703D01*
X14352619Y-17267227D01*
X14343095Y-17276751D01*
X14333571Y-17295798D01*
X14333571Y-17333894D01*
X14343095Y-17352941D01*
X14352619Y-17362465D01*
X14371667Y-17371989D01*
X14409762Y-17371989D01*
X14428809Y-17362465D01*
X14438333Y-17352941D01*
X14447857Y-17333894D01*
X14447857Y-17295798D01*
X14438333Y-17276751D01*
X14428809Y-17267227D01*
X14409762Y-17257703D01*
X14685952Y-17371989D02*
X14685952Y-17171989D01*
X14771667Y-17371989D02*
X14771667Y-17267227D01*
X14762143Y-17248179D01*
X14743095Y-17238655D01*
X14714524Y-17238655D01*
X14695476Y-17248179D01*
X14685952Y-17257703D01*
X14895476Y-17371989D02*
X14876428Y-17362465D01*
X14866905Y-17352941D01*
X14857381Y-17333894D01*
X14857381Y-17276751D01*
X14866905Y-17257703D01*
X14876428Y-17248179D01*
X14895476Y-17238655D01*
X14924048Y-17238655D01*
X14943095Y-17248179D01*
X14952619Y-17257703D01*
X14962143Y-17276751D01*
X14962143Y-17333894D01*
X14952619Y-17352941D01*
X14943095Y-17362465D01*
X14924048Y-17371989D01*
X14895476Y-17371989D01*
X15076428Y-17371989D02*
X15057381Y-17362465D01*
X15047857Y-17343417D01*
X15047857Y-17171989D01*
X15228809Y-17362465D02*
X15209762Y-17371989D01*
X15171667Y-17371989D01*
X15152619Y-17362465D01*
X15143095Y-17343417D01*
X15143095Y-17267227D01*
X15152619Y-17248179D01*
X15171667Y-17238655D01*
X15209762Y-17238655D01*
X15228809Y-17248179D01*
X15238333Y-17267227D01*
X15238333Y-17286275D01*
X15143095Y-17305322D01*
X15314524Y-17362465D02*
X15333571Y-17371989D01*
X15371667Y-17371989D01*
X15390714Y-17362465D01*
X15400238Y-17343417D01*
X15400238Y-17333894D01*
X15390714Y-17314846D01*
X15371667Y-17305322D01*
X15343095Y-17305322D01*
X15324048Y-17295798D01*
X15314524Y-17276751D01*
X15314524Y-17267227D01*
X15324048Y-17248179D01*
X15343095Y-17238655D01*
X15371667Y-17238655D01*
X15390714Y-17248179D01*
X15466905Y-17448179D02*
X15476428Y-17438655D01*
X15495476Y-17410084D01*
X15505000Y-17391036D01*
X15514524Y-17362465D01*
X15524048Y-17314846D01*
X15524048Y-17276751D01*
X15514524Y-17229132D01*
X15505000Y-17200560D01*
X15495476Y-17181513D01*
X15476428Y-17152941D01*
X15466905Y-17143417D01*
D10*
X10595000Y-17495513D02*
X10695000Y-17595513D01*
X10695000Y-17495513D02*
X10595000Y-17595513D01*
X10680356Y-17580868D02*
X10680356Y-17510157D01*
X10609644Y-17510157D01*
X10609644Y-17580868D01*
X10680356Y-17580868D01*
D11*
X11057381Y-17635989D02*
X10943095Y-17635989D01*
X11000238Y-17635989D02*
X11000238Y-17435989D01*
X10981190Y-17464560D01*
X10962143Y-17483608D01*
X10943095Y-17493132D01*
X11143095Y-17616941D02*
X11152619Y-17626465D01*
X11143095Y-17635989D01*
X11133571Y-17626465D01*
X11143095Y-17616941D01*
X11143095Y-17635989D01*
X11276428Y-17435989D02*
X11295476Y-17435989D01*
X11314524Y-17445513D01*
X11324048Y-17455036D01*
X11333571Y-17474084D01*
X11343095Y-17512179D01*
X11343095Y-17559798D01*
X11333571Y-17597894D01*
X11324048Y-17616941D01*
X11314524Y-17626465D01*
X11295476Y-17635989D01*
X11276428Y-17635989D01*
X11257381Y-17626465D01*
X11247857Y-17616941D01*
X11238333Y-17597894D01*
X11228809Y-17559798D01*
X11228809Y-17512179D01*
X11238333Y-17474084D01*
X11247857Y-17455036D01*
X11257381Y-17445513D01*
X11276428Y-17435989D01*
X11466905Y-17435989D02*
X11485952Y-17435989D01*
X11505000Y-17445513D01*
X11514524Y-17455036D01*
X11524048Y-17474084D01*
X11533571Y-17512179D01*
X11533571Y-17559798D01*
X11524048Y-17597894D01*
X11514524Y-17616941D01*
X11505000Y-17626465D01*
X11485952Y-17635989D01*
X11466905Y-17635989D01*
X11447857Y-17626465D01*
X11438333Y-17616941D01*
X11428809Y-17597894D01*
X11419286Y-17559798D01*
X11419286Y-17512179D01*
X11428809Y-17474084D01*
X11438333Y-17455036D01*
X11447857Y-17445513D01*
X11466905Y-17435989D01*
X11657381Y-17435989D02*
X11676428Y-17435989D01*
X11695476Y-17445513D01*
X11705000Y-17455036D01*
X11714524Y-17474084D01*
X11724048Y-17512179D01*
X11724048Y-17559798D01*
X11714524Y-17597894D01*
X11705000Y-17616941D01*
X11695476Y-17626465D01*
X11676428Y-17635989D01*
X11657381Y-17635989D01*
X11638333Y-17626465D01*
X11628809Y-17616941D01*
X11619286Y-17597894D01*
X11609762Y-17559798D01*
X11609762Y-17512179D01*
X11619286Y-17474084D01*
X11628809Y-17455036D01*
X11638333Y-17445513D01*
X11657381Y-17435989D01*
X11809762Y-17635989D02*
X11809762Y-17502655D01*
X11809762Y-17521703D02*
X11819286Y-17512179D01*
X11838333Y-17502655D01*
X11866905Y-17502655D01*
X11885952Y-17512179D01*
X11895476Y-17531227D01*
X11895476Y-17635989D01*
X11895476Y-17531227D02*
X11905000Y-17512179D01*
X11924048Y-17502655D01*
X11952619Y-17502655D01*
X11971667Y-17512179D01*
X11981190Y-17531227D01*
X11981190Y-17635989D01*
X12076428Y-17635989D02*
X12076428Y-17502655D01*
X12076428Y-17521703D02*
X12085952Y-17512179D01*
X12105000Y-17502655D01*
X12133571Y-17502655D01*
X12152619Y-17512179D01*
X12162143Y-17531227D01*
X12162143Y-17635989D01*
X12162143Y-17531227D02*
X12171667Y-17512179D01*
X12190714Y-17502655D01*
X12219286Y-17502655D01*
X12238333Y-17512179D01*
X12247857Y-17531227D01*
X12247857Y-17635989D01*
X12638333Y-17426465D02*
X12466905Y-17683608D01*
X12895476Y-17435989D02*
X12914524Y-17435989D01*
X12933571Y-17445513D01*
X12943095Y-17455036D01*
X12952619Y-17474084D01*
X12962143Y-17512179D01*
X12962143Y-17559798D01*
X12952619Y-17597894D01*
X12943095Y-17616941D01*
X12933571Y-17626465D01*
X12914524Y-17635989D01*
X12895476Y-17635989D01*
X12876428Y-17626465D01*
X12866905Y-17616941D01*
X12857381Y-17597894D01*
X12847857Y-17559798D01*
X12847857Y-17512179D01*
X12857381Y-17474084D01*
X12866905Y-17455036D01*
X12876428Y-17445513D01*
X12895476Y-17435989D01*
X13047857Y-17616941D02*
X13057381Y-17626465D01*
X13047857Y-17635989D01*
X13038333Y-17626465D01*
X13047857Y-17616941D01*
X13047857Y-17635989D01*
X13181190Y-17435989D02*
X13200238Y-17435989D01*
X13219286Y-17445513D01*
X13228809Y-17455036D01*
X13238333Y-17474084D01*
X13247857Y-17512179D01*
X13247857Y-17559798D01*
X13238333Y-17597894D01*
X13228809Y-17616941D01*
X13219286Y-17626465D01*
X13200238Y-17635989D01*
X13181190Y-17635989D01*
X13162143Y-17626465D01*
X13152619Y-17616941D01*
X13143095Y-17597894D01*
X13133571Y-17559798D01*
X13133571Y-17512179D01*
X13143095Y-17474084D01*
X13152619Y-17455036D01*
X13162143Y-17445513D01*
X13181190Y-17435989D01*
X13314524Y-17435989D02*
X13438333Y-17435989D01*
X13371667Y-17512179D01*
X13400238Y-17512179D01*
X13419286Y-17521703D01*
X13428809Y-17531227D01*
X13438333Y-17550275D01*
X13438333Y-17597894D01*
X13428809Y-17616941D01*
X13419286Y-17626465D01*
X13400238Y-17635989D01*
X13343095Y-17635989D01*
X13324048Y-17626465D01*
X13314524Y-17616941D01*
X13533571Y-17635989D02*
X13571667Y-17635989D01*
X13590714Y-17626465D01*
X13600238Y-17616941D01*
X13619286Y-17588370D01*
X13628809Y-17550275D01*
X13628809Y-17474084D01*
X13619286Y-17455036D01*
X13609762Y-17445513D01*
X13590714Y-17435989D01*
X13552619Y-17435989D01*
X13533571Y-17445513D01*
X13524048Y-17455036D01*
X13514524Y-17474084D01*
X13514524Y-17521703D01*
X13524048Y-17540751D01*
X13533571Y-17550275D01*
X13552619Y-17559798D01*
X13590714Y-17559798D01*
X13609762Y-17550275D01*
X13619286Y-17540751D01*
X13628809Y-17521703D01*
X13800238Y-17502655D02*
X13800238Y-17635989D01*
X13752619Y-17426465D02*
X13705000Y-17569322D01*
X13828809Y-17569322D01*
X13895476Y-17435989D02*
X13895476Y-17474084D01*
X13971667Y-17435989D02*
X13971667Y-17474084D01*
X14266905Y-17712179D02*
X14257381Y-17702655D01*
X14238333Y-17674084D01*
X14228809Y-17655036D01*
X14219286Y-17626465D01*
X14209762Y-17578846D01*
X14209762Y-17540751D01*
X14219286Y-17493132D01*
X14228809Y-17464560D01*
X14238333Y-17445513D01*
X14257381Y-17416941D01*
X14266905Y-17407417D01*
X14333571Y-17455036D02*
X14343095Y-17445513D01*
X14362143Y-17435989D01*
X14409762Y-17435989D01*
X14428809Y-17445513D01*
X14438333Y-17455036D01*
X14447857Y-17474084D01*
X14447857Y-17493132D01*
X14438333Y-17521703D01*
X14324048Y-17635989D01*
X14447857Y-17635989D01*
X14685952Y-17635989D02*
X14685952Y-17435989D01*
X14771667Y-17635989D02*
X14771667Y-17531227D01*
X14762143Y-17512179D01*
X14743095Y-17502655D01*
X14714524Y-17502655D01*
X14695476Y-17512179D01*
X14685952Y-17521703D01*
X14895476Y-17635989D02*
X14876428Y-17626465D01*
X14866905Y-17616941D01*
X14857381Y-17597894D01*
X14857381Y-17540751D01*
X14866905Y-17521703D01*
X14876428Y-17512179D01*
X14895476Y-17502655D01*
X14924048Y-17502655D01*
X14943095Y-17512179D01*
X14952619Y-17521703D01*
X14962143Y-17540751D01*
X14962143Y-17597894D01*
X14952619Y-17616941D01*
X14943095Y-17626465D01*
X14924048Y-17635989D01*
X14895476Y-17635989D01*
X15076428Y-17635989D02*
X15057381Y-17626465D01*
X15047857Y-17607417D01*
X15047857Y-17435989D01*
X15228809Y-17626465D02*
X15209762Y-17635989D01*
X15171667Y-17635989D01*
X15152619Y-17626465D01*
X15143095Y-17607417D01*
X15143095Y-17531227D01*
X15152619Y-17512179D01*
X15171667Y-17502655D01*
X15209762Y-17502655D01*
X15228809Y-17512179D01*
X15238333Y-17531227D01*
X15238333Y-17550275D01*
X15143095Y-17569322D01*
X15314524Y-17626465D02*
X15333571Y-17635989D01*
X15371667Y-17635989D01*
X15390714Y-17626465D01*
X15400238Y-17607417D01*
X15400238Y-17597894D01*
X15390714Y-17578846D01*
X15371667Y-17569322D01*
X15343095Y-17569322D01*
X15324048Y-17559798D01*
X15314524Y-17540751D01*
X15314524Y-17531227D01*
X15324048Y-17512179D01*
X15343095Y-17502655D01*
X15371667Y-17502655D01*
X15390714Y-17512179D01*
X15466905Y-17712179D02*
X15476428Y-17702655D01*
X15495476Y-17674084D01*
X15505000Y-17655036D01*
X15514524Y-17626465D01*
X15524048Y-17578846D01*
X15524048Y-17540751D01*
X15514524Y-17493132D01*
X15505000Y-17464560D01*
X15495476Y-17445513D01*
X15476428Y-17416941D01*
X15466905Y-17407417D01*
X10495000Y-17709513D02*
X10695000Y-17909513D01*
X10695000Y-17709513D02*
X10495000Y-17909513D01*
X10595000Y-17909513D02*
X10695000Y-17809513D01*
X10595000Y-17709513D01*
X10495000Y-17809513D01*
X10595000Y-17909513D01*
X10943095Y-17719036D02*
X10952619Y-17709513D01*
X10971667Y-17699989D01*
X11019286Y-17699989D01*
X11038333Y-17709513D01*
X11047857Y-17719036D01*
X11057381Y-17738084D01*
X11057381Y-17757132D01*
X11047857Y-17785703D01*
X10933571Y-17899989D01*
X11057381Y-17899989D01*
X11143095Y-17880941D02*
X11152619Y-17890465D01*
X11143095Y-17899989D01*
X11133571Y-17890465D01*
X11143095Y-17880941D01*
X11143095Y-17899989D01*
X11219286Y-17699989D02*
X11352619Y-17699989D01*
X11266905Y-17899989D01*
X11466905Y-17699989D02*
X11485952Y-17699989D01*
X11505000Y-17709513D01*
X11514524Y-17719036D01*
X11524048Y-17738084D01*
X11533571Y-17776179D01*
X11533571Y-17823798D01*
X11524048Y-17861894D01*
X11514524Y-17880941D01*
X11505000Y-17890465D01*
X11485952Y-17899989D01*
X11466905Y-17899989D01*
X11447857Y-17890465D01*
X11438333Y-17880941D01*
X11428809Y-17861894D01*
X11419286Y-17823798D01*
X11419286Y-17776179D01*
X11428809Y-17738084D01*
X11438333Y-17719036D01*
X11447857Y-17709513D01*
X11466905Y-17699989D01*
X11657381Y-17699989D02*
X11676428Y-17699989D01*
X11695476Y-17709513D01*
X11705000Y-17719036D01*
X11714524Y-17738084D01*
X11724048Y-17776179D01*
X11724048Y-17823798D01*
X11714524Y-17861894D01*
X11705000Y-17880941D01*
X11695476Y-17890465D01*
X11676428Y-17899989D01*
X11657381Y-17899989D01*
X11638333Y-17890465D01*
X11628809Y-17880941D01*
X11619286Y-17861894D01*
X11609762Y-17823798D01*
X11609762Y-17776179D01*
X11619286Y-17738084D01*
X11628809Y-17719036D01*
X11638333Y-17709513D01*
X11657381Y-17699989D01*
X11809762Y-17899989D02*
X11809762Y-17766655D01*
X11809762Y-17785703D02*
X11819286Y-17776179D01*
X11838333Y-17766655D01*
X11866905Y-17766655D01*
X11885952Y-17776179D01*
X11895476Y-17795227D01*
X11895476Y-17899989D01*
X11895476Y-17795227D02*
X11905000Y-17776179D01*
X11924048Y-17766655D01*
X11952619Y-17766655D01*
X11971667Y-17776179D01*
X11981190Y-17795227D01*
X11981190Y-17899989D01*
X12076428Y-17899989D02*
X12076428Y-17766655D01*
X12076428Y-17785703D02*
X12085952Y-17776179D01*
X12105000Y-17766655D01*
X12133571Y-17766655D01*
X12152619Y-17776179D01*
X12162143Y-17795227D01*
X12162143Y-17899989D01*
X12162143Y-17795227D02*
X12171667Y-17776179D01*
X12190714Y-17766655D01*
X12219286Y-17766655D01*
X12238333Y-17776179D01*
X12247857Y-17795227D01*
X12247857Y-17899989D01*
X12638333Y-17690465D02*
X12466905Y-17947608D01*
X12895476Y-17699989D02*
X12914524Y-17699989D01*
X12933571Y-17709513D01*
X12943095Y-17719036D01*
X12952619Y-17738084D01*
X12962143Y-17776179D01*
X12962143Y-17823798D01*
X12952619Y-17861894D01*
X12943095Y-17880941D01*
X12933571Y-17890465D01*
X12914524Y-17899989D01*
X12895476Y-17899989D01*
X12876428Y-17890465D01*
X12866905Y-17880941D01*
X12857381Y-17861894D01*
X12847857Y-17823798D01*
X12847857Y-17776179D01*
X12857381Y-17738084D01*
X12866905Y-17719036D01*
X12876428Y-17709513D01*
X12895476Y-17699989D01*
X13047857Y-17880941D02*
X13057381Y-17890465D01*
X13047857Y-17899989D01*
X13038333Y-17890465D01*
X13047857Y-17880941D01*
X13047857Y-17899989D01*
X13247857Y-17899989D02*
X13133571Y-17899989D01*
X13190714Y-17899989D02*
X13190714Y-17699989D01*
X13171667Y-17728560D01*
X13152619Y-17747608D01*
X13133571Y-17757132D01*
X13371667Y-17699989D02*
X13390714Y-17699989D01*
X13409762Y-17709513D01*
X13419286Y-17719036D01*
X13428809Y-17738084D01*
X13438333Y-17776179D01*
X13438333Y-17823798D01*
X13428809Y-17861894D01*
X13419286Y-17880941D01*
X13409762Y-17890465D01*
X13390714Y-17899989D01*
X13371667Y-17899989D01*
X13352619Y-17890465D01*
X13343095Y-17880941D01*
X13333571Y-17861894D01*
X13324048Y-17823798D01*
X13324048Y-17776179D01*
X13333571Y-17738084D01*
X13343095Y-17719036D01*
X13352619Y-17709513D01*
X13371667Y-17699989D01*
X13609762Y-17699989D02*
X13571667Y-17699989D01*
X13552619Y-17709513D01*
X13543095Y-17719036D01*
X13524048Y-17747608D01*
X13514524Y-17785703D01*
X13514524Y-17861894D01*
X13524048Y-17880941D01*
X13533571Y-17890465D01*
X13552619Y-17899989D01*
X13590714Y-17899989D01*
X13609762Y-17890465D01*
X13619286Y-17880941D01*
X13628809Y-17861894D01*
X13628809Y-17814275D01*
X13619286Y-17795227D01*
X13609762Y-17785703D01*
X13590714Y-17776179D01*
X13552619Y-17776179D01*
X13533571Y-17785703D01*
X13524048Y-17795227D01*
X13514524Y-17814275D01*
X13695476Y-17699989D02*
X13819286Y-17699989D01*
X13752619Y-17776179D01*
X13781190Y-17776179D01*
X13800238Y-17785703D01*
X13809762Y-17795227D01*
X13819286Y-17814275D01*
X13819286Y-17861894D01*
X13809762Y-17880941D01*
X13800238Y-17890465D01*
X13781190Y-17899989D01*
X13724048Y-17899989D01*
X13705000Y-17890465D01*
X13695476Y-17880941D01*
X13895476Y-17699989D02*
X13895476Y-17738084D01*
X13971667Y-17699989D02*
X13971667Y-17738084D01*
X14266905Y-17976179D02*
X14257381Y-17966655D01*
X14238333Y-17938084D01*
X14228809Y-17919036D01*
X14219286Y-17890465D01*
X14209762Y-17842846D01*
X14209762Y-17804751D01*
X14219286Y-17757132D01*
X14228809Y-17728560D01*
X14238333Y-17709513D01*
X14257381Y-17680941D01*
X14266905Y-17671417D01*
X14428809Y-17766655D02*
X14428809Y-17899989D01*
X14381190Y-17690465D02*
X14333571Y-17833322D01*
X14457381Y-17833322D01*
X14685952Y-17899989D02*
X14685952Y-17699989D01*
X14771667Y-17899989D02*
X14771667Y-17795227D01*
X14762143Y-17776179D01*
X14743095Y-17766655D01*
X14714524Y-17766655D01*
X14695476Y-17776179D01*
X14685952Y-17785703D01*
X14895476Y-17899989D02*
X14876428Y-17890465D01*
X14866905Y-17880941D01*
X14857381Y-17861894D01*
X14857381Y-17804751D01*
X14866905Y-17785703D01*
X14876428Y-17776179D01*
X14895476Y-17766655D01*
X14924048Y-17766655D01*
X14943095Y-17776179D01*
X14952619Y-17785703D01*
X14962143Y-17804751D01*
X14962143Y-17861894D01*
X14952619Y-17880941D01*
X14943095Y-17890465D01*
X14924048Y-17899989D01*
X14895476Y-17899989D01*
X15076428Y-17899989D02*
X15057381Y-17890465D01*
X15047857Y-17871417D01*
X15047857Y-17699989D01*
X15228809Y-17890465D02*
X15209762Y-17899989D01*
X15171667Y-17899989D01*
X15152619Y-17890465D01*
X15143095Y-17871417D01*
X15143095Y-17795227D01*
X15152619Y-17776179D01*
X15171667Y-17766655D01*
X15209762Y-17766655D01*
X15228809Y-17776179D01*
X15238333Y-17795227D01*
X15238333Y-17814275D01*
X15143095Y-17833322D01*
X15314524Y-17890465D02*
X15333571Y-17899989D01*
X15371667Y-17899989D01*
X15390714Y-17890465D01*
X15400238Y-17871417D01*
X15400238Y-17861894D01*
X15390714Y-17842846D01*
X15371667Y-17833322D01*
X15343095Y-17833322D01*
X15324048Y-17823798D01*
X15314524Y-17804751D01*
X15314524Y-17795227D01*
X15324048Y-17776179D01*
X15343095Y-17766655D01*
X15371667Y-17766655D01*
X15390714Y-17776179D01*
X15466905Y-17976179D02*
X15476428Y-17966655D01*
X15495476Y-17938084D01*
X15505000Y-17919036D01*
X15514524Y-17890465D01*
X15524048Y-17842846D01*
X15524048Y-17804751D01*
X15514524Y-17757132D01*
X15505000Y-17728560D01*
X15495476Y-17709513D01*
X15476428Y-17680941D01*
X15466905Y-17671417D01*
M02*
