M48
; DRILL file {KiCad (6.0.7)} date Sat Oct  8 21:46:15 2022
; FORMAT={-:-/ absolute / metric / decimal}
; #@! TF.CreationDate,2022-10-08T21:46:15-07:00
; #@! TF.GenerationSoftware,Kicad,Pcbnew,(6.0.7)
; #@! TF.FileFunction,Plated,1,4,PTH
FMAT,2
METRIC
; #@! TA.AperFunction,Plated,PTH,ViaDrill
T1C0.200
; #@! TA.AperFunction,Plated,PTH,ComponentDrill
T2C0.200
; #@! TA.AperFunction,Plated,PTH,ViaDrill
T3C0.300
; #@! TA.AperFunction,Plated,PTH,ViaDrill
T4C0.400
; #@! TA.AperFunction,Plated,PTH,ComponentDrill
T5C0.600
; #@! TA.AperFunction,Plated,PTH,ComponentDrill
T6C0.650
; #@! TA.AperFunction,Plated,PTH,ComponentDrill
T7C0.700
; #@! TA.AperFunction,Plated,PTH,ComponentDrill
T8C1.000
; #@! TA.AperFunction,Plated,PTH,ComponentDrill
T9C2.700
%
G90
G05
T1
X115.65Y-141.15
X116.3Y-141.95
X124.681Y-143.119
X125.383Y-143.117
T2
X129.748Y-138.18
X129.748Y-139.34
X130.327Y-138.76
X130.907Y-138.18
X130.907Y-139.34
X132.666Y-130.784
X132.666Y-131.284
X132.666Y-131.784
X132.666Y-132.284
X132.666Y-132.784
X133.166Y-130.784
X133.166Y-131.284
X133.166Y-131.784
X133.166Y-132.284
X133.166Y-132.784
X133.666Y-130.784
X133.666Y-131.284
X133.666Y-131.784
X133.666Y-132.284
X133.666Y-132.784
T3
X108.35Y-144.1
X108.5Y-140.5
X109.25Y-131.5
X109.374Y-129.55
X109.524Y-70.143
X109.75Y-132.5
X109.846Y-67.796
X110.25Y-120.0
X110.344Y-126.714
X110.374Y-98.0
X110.5Y-99.5
X110.95Y-122.6
X110.95Y-136.4
X111.0Y-116.75
X111.366Y-125.382
X111.65Y-124.35
X111.65Y-134.7
X113.95Y-124.35
X113.95Y-134.7
X114.0Y-59.25
X114.0Y-60.25
X114.0Y-61.25
X114.0Y-62.25
X114.0Y-63.25
X114.0Y-149.0
X114.35Y-133.0
X114.5Y-91.5
X114.5Y-140.5
X114.65Y-122.6
X114.65Y-136.4
X114.75Y-138.5
X114.785Y-102.56
X114.9Y-143.7
X114.9Y-134.493
X115.0Y-92.5
X116.25Y-122.5
X116.625Y-124.0
X116.7Y-131.45
X116.75Y-129.5
X116.85Y-134.6
X117.1Y-79.0
X117.25Y-121.5
X117.25Y-128.0
X117.5Y-148.5
X117.65Y-130.95
X118.048Y-136.748
X118.75Y-91.832
X118.75Y-121.8
X119.0Y-100.75
X119.0Y-136.75
X119.0Y-139.5
X119.35Y-124.45
X119.4Y-141.2
X119.469Y-78.969
X119.5Y-137.5
X119.5Y-147.25
X119.75Y-145.5
X120.0Y-86.632
X120.0Y-133.7
X120.15Y-110.8
X120.4Y-102.4
X120.55Y-98.55
X120.6Y-118.4
X120.7Y-93.282
X120.8Y-116.8
X121.0Y-141.2
X121.0Y-147.25
X121.1Y-137.5
X121.2Y-105.2
X121.4Y-82.75
X121.5Y-90.932
X121.6Y-81.4
X121.7Y-88.7
X121.8Y-115.0
X121.8Y-116.2
X121.8Y-120.2
X122.0Y-113.8
X122.662Y-128.0
X123.4Y-110.6
X123.6Y-121.2
X123.75Y-123.5
X123.9Y-71.0
X124.2Y-145.3
X124.5Y-79.062
X124.5Y-83.5
X125.0Y-111.274
X125.25Y-79.75
X125.5Y-83.5
X125.663Y-71.293
X125.7Y-82.5
X125.74Y-140.56
X125.74Y-141.46
X126.0Y-91.682
X126.0Y-101.182
X126.0Y-123.5
X126.25Y-81.0
X126.366Y-128.584
X126.721Y-110.254
X126.75Y-135.75
X127.166Y-128.584
X127.4Y-119.4
X127.4Y-145.3
X127.5Y-80.2
X127.5Y-135.75
X127.831Y-111.255
X128.0Y-71.0
X128.306Y-128.584
X128.5Y-137.5
X128.525Y-135.995
X128.664Y-111.83
X128.75Y-110.75
X129.106Y-128.584
X129.4Y-84.282
X129.885Y-98.65
X129.925Y-71.0
X130.1Y-86.782
X130.2Y-85.182
X130.325Y-108.04
X130.4Y-91.432
X130.4Y-114.0
X130.6Y-117.0
X130.6Y-132.775
X130.885Y-115.724
X130.9Y-136.0
X131.0Y-90.432
X131.0Y-143.85
X131.075Y-92.282
X131.2Y-101.15
X131.5Y-145.6
X131.615Y-89.208
X131.7Y-134.9
X131.75Y-76.0
X131.85Y-109.5
X131.911Y-118.263
X132.1Y-135.6
X132.109Y-137.088
X132.25Y-79.0
X132.366Y-127.734
X132.373Y-112.273
X132.406Y-137.884
X132.44Y-141.56
X132.5Y-71.75
X132.5Y-134.9
X132.5Y-145.25
X132.615Y-70.75
X132.766Y-128.434
X132.9Y-135.6
X132.95Y-83.4
X133.166Y-127.734
X133.166Y-129.084
X133.2Y-79.0
X133.3Y-134.9
X133.566Y-128.434
X133.966Y-127.734
X134.0Y-75.8
X134.02Y-139.768
X134.125Y-79.3
X134.25Y-111.615
X134.4Y-102.4
X134.819Y-110.307
X134.966Y-134.184
X136.34Y-138.36
X136.34Y-139.36
X136.502Y-111.304
X136.65Y-132.15
X136.7Y-128.85
X136.741Y-110.355
X137.45Y-132.15
X137.5Y-59.25
X137.5Y-60.25
X137.5Y-61.25
X137.5Y-62.25
X137.5Y-63.25
X137.55Y-111.55
X137.55Y-128.85
X137.7Y-144.4
X138.3Y-139.1
X138.35Y-132.15
X138.4Y-119.8
X138.45Y-128.85
X138.6Y-110.8
X138.8Y-141.0
X139.15Y-132.15
X139.2Y-118.2
X139.3Y-128.85
X139.4Y-108.2
X139.61Y-147.15
X140.15Y-89.55
X140.15Y-128.85
X140.15Y-132.15
X140.2Y-113.6
X140.2Y-136.2
X140.206Y-133.444
X140.6Y-104.425
X140.8Y-106.4
X140.95Y-132.15
X141.0Y-128.85
X141.2Y-98.4
X141.25Y-82.5
X141.25Y-89.55
X142.0Y-79.1
X142.0Y-97.8
X142.0Y-121.95
X142.0Y-123.55
X142.0Y-133.6
X142.35Y-69.0
X142.4Y-70.4
X142.8Y-107.8
X143.0Y-134.2
X143.2Y-109.6
X143.25Y-120.75
X143.25Y-124.75
T4
X111.45Y-129.55
X112.789Y-128.211
X112.789Y-129.539
X112.8Y-130.8
X114.1Y-129.55
T6
X140.1Y-95.25
X141.37Y-95.25
T7
X110.837Y-65.975
X112.108Y-65.975
X113.377Y-65.975
X114.647Y-65.975
X115.917Y-65.975
X117.188Y-65.975
X118.457Y-65.975
X119.727Y-65.975
T8
X135.46Y-142.75
X138.0Y-142.75
T9
X110.75Y-61.25
X110.75Y-146.75
X135.25Y-146.75
X140.75Y-61.25
T5
X121.26Y-145.27G85X121.26Y-144.17
G05
X121.26Y-149.3G85X121.26Y-148.5
G05
X129.9Y-145.27G85X129.9Y-144.17
G05
X129.9Y-149.3G85X129.9Y-148.5
G05
T0
M30
