%TF.GenerationSoftware,KiCad,Pcbnew,(6.0.7)*%
%TF.CreationDate,2022-10-08T21:46:18-07:00*%
%TF.ProjectId,phone-rounded,70686f6e-652d-4726-9f75-6e6465642e6b,rev?*%
%TF.SameCoordinates,Original*%
%TF.FileFunction,Drillmap*%
%TF.FilePolarity,Positive*%
%FSLAX45Y45*%
G04 Gerber Fmt 4.5, Leading zero omitted, Abs format (unit mm)*
G04 Created by KiCad (PCBNEW (6.0.7)) date 2022-10-08 21:46:18*
%MOMM*%
%LPD*%
G01*
G04 APERTURE LIST*
%ADD10C,0.100000*%
%ADD11C,0.200000*%
%ADD12C,0.060000*%
%ADD13C,0.110000*%
%ADD14C,0.160000*%
G04 APERTURE END LIST*
D10*
X14450000Y-14702513D02*
X14450000Y-6100000D01*
X10699997Y-14702513D02*
G75*
G03*
X11050000Y-15052513I350003J3D01*
G01*
X11050000Y-15052513D02*
X14100000Y-15052513D01*
X10700000Y-6100000D02*
X10700000Y-14702513D01*
X14100000Y-15052510D02*
G75*
G03*
X14450000Y-14702513I0J350000D01*
G01*
X11050000Y-5750000D02*
X14100000Y-5750000D01*
X14450000Y-6100000D02*
G75*
G03*
X14100000Y-5750000I-350000J0D01*
G01*
X11050000Y-5750000D02*
G75*
G03*
X10700000Y-6100000I4J-350004D01*
G01*
D11*
D12*
X12239000Y-14492000D02*
X12299000Y-14552000D01*
X12299000Y-14492000D02*
X12239000Y-14552000D01*
X12817000Y-14492000D02*
X12877000Y-14552000D01*
X12877000Y-14492000D02*
X12817000Y-14552000D01*
D13*
X13875000Y-7340000D02*
G75*
G03*
X13875000Y-7340000I-55000J0D01*
G01*
D14*
X11320000Y-7260000D02*
X11320000Y-7420000D01*
X11240000Y-7340000D02*
X11400000Y-7340000D01*
D11*
X10952619Y-15367989D02*
X10952619Y-15167989D01*
X11000238Y-15167989D01*
X11028810Y-15177513D01*
X11047857Y-15196560D01*
X11057381Y-15215608D01*
X11066905Y-15253703D01*
X11066905Y-15282274D01*
X11057381Y-15320370D01*
X11047857Y-15339417D01*
X11028810Y-15358465D01*
X11000238Y-15367989D01*
X10952619Y-15367989D01*
X11152619Y-15367989D02*
X11152619Y-15234655D01*
X11152619Y-15272751D02*
X11162143Y-15253703D01*
X11171667Y-15244179D01*
X11190714Y-15234655D01*
X11209762Y-15234655D01*
X11276428Y-15367989D02*
X11276428Y-15234655D01*
X11276428Y-15167989D02*
X11266905Y-15177513D01*
X11276428Y-15187036D01*
X11285952Y-15177513D01*
X11276428Y-15167989D01*
X11276428Y-15187036D01*
X11400238Y-15367989D02*
X11381190Y-15358465D01*
X11371667Y-15339417D01*
X11371667Y-15167989D01*
X11505000Y-15367989D02*
X11485952Y-15358465D01*
X11476428Y-15339417D01*
X11476428Y-15167989D01*
X11733571Y-15367989D02*
X11733571Y-15167989D01*
X11800238Y-15310846D01*
X11866905Y-15167989D01*
X11866905Y-15367989D01*
X12047857Y-15367989D02*
X12047857Y-15263227D01*
X12038333Y-15244179D01*
X12019286Y-15234655D01*
X11981190Y-15234655D01*
X11962143Y-15244179D01*
X12047857Y-15358465D02*
X12028809Y-15367989D01*
X11981190Y-15367989D01*
X11962143Y-15358465D01*
X11952619Y-15339417D01*
X11952619Y-15320370D01*
X11962143Y-15301322D01*
X11981190Y-15291798D01*
X12028809Y-15291798D01*
X12047857Y-15282274D01*
X12143095Y-15234655D02*
X12143095Y-15434655D01*
X12143095Y-15244179D02*
X12162143Y-15234655D01*
X12200238Y-15234655D01*
X12219286Y-15244179D01*
X12228809Y-15253703D01*
X12238333Y-15272751D01*
X12238333Y-15329893D01*
X12228809Y-15348941D01*
X12219286Y-15358465D01*
X12200238Y-15367989D01*
X12162143Y-15367989D01*
X12143095Y-15358465D01*
X12324048Y-15348941D02*
X12333571Y-15358465D01*
X12324048Y-15367989D01*
X12314524Y-15358465D01*
X12324048Y-15348941D01*
X12324048Y-15367989D01*
X12324048Y-15244179D02*
X12333571Y-15253703D01*
X12324048Y-15263227D01*
X12314524Y-15253703D01*
X12324048Y-15244179D01*
X12324048Y-15263227D01*
D12*
X10635000Y-15667513D02*
X10695000Y-15727513D01*
X10695000Y-15667513D02*
X10635000Y-15727513D01*
D11*
X10990714Y-15587989D02*
X11009762Y-15587989D01*
X11028810Y-15597513D01*
X11038333Y-15607036D01*
X11047857Y-15626084D01*
X11057381Y-15664179D01*
X11057381Y-15711798D01*
X11047857Y-15749893D01*
X11038333Y-15768941D01*
X11028810Y-15778465D01*
X11009762Y-15787989D01*
X10990714Y-15787989D01*
X10971667Y-15778465D01*
X10962143Y-15768941D01*
X10952619Y-15749893D01*
X10943095Y-15711798D01*
X10943095Y-15664179D01*
X10952619Y-15626084D01*
X10962143Y-15607036D01*
X10971667Y-15597513D01*
X10990714Y-15587989D01*
X11143095Y-15768941D02*
X11152619Y-15778465D01*
X11143095Y-15787989D01*
X11133571Y-15778465D01*
X11143095Y-15768941D01*
X11143095Y-15787989D01*
X11324048Y-15587989D02*
X11285952Y-15587989D01*
X11266905Y-15597513D01*
X11257381Y-15607036D01*
X11238333Y-15635608D01*
X11228809Y-15673703D01*
X11228809Y-15749893D01*
X11238333Y-15768941D01*
X11247857Y-15778465D01*
X11266905Y-15787989D01*
X11305000Y-15787989D01*
X11324048Y-15778465D01*
X11333571Y-15768941D01*
X11343095Y-15749893D01*
X11343095Y-15702274D01*
X11333571Y-15683227D01*
X11324048Y-15673703D01*
X11305000Y-15664179D01*
X11266905Y-15664179D01*
X11247857Y-15673703D01*
X11238333Y-15683227D01*
X11228809Y-15702274D01*
X11466905Y-15587989D02*
X11485952Y-15587989D01*
X11505000Y-15597513D01*
X11514524Y-15607036D01*
X11524048Y-15626084D01*
X11533571Y-15664179D01*
X11533571Y-15711798D01*
X11524048Y-15749893D01*
X11514524Y-15768941D01*
X11505000Y-15778465D01*
X11485952Y-15787989D01*
X11466905Y-15787989D01*
X11447857Y-15778465D01*
X11438333Y-15768941D01*
X11428809Y-15749893D01*
X11419286Y-15711798D01*
X11419286Y-15664179D01*
X11428809Y-15626084D01*
X11438333Y-15607036D01*
X11447857Y-15597513D01*
X11466905Y-15587989D01*
X11657381Y-15587989D02*
X11676428Y-15587989D01*
X11695476Y-15597513D01*
X11705000Y-15607036D01*
X11714524Y-15626084D01*
X11724048Y-15664179D01*
X11724048Y-15711798D01*
X11714524Y-15749893D01*
X11705000Y-15768941D01*
X11695476Y-15778465D01*
X11676428Y-15787989D01*
X11657381Y-15787989D01*
X11638333Y-15778465D01*
X11628809Y-15768941D01*
X11619286Y-15749893D01*
X11609762Y-15711798D01*
X11609762Y-15664179D01*
X11619286Y-15626084D01*
X11628809Y-15607036D01*
X11638333Y-15597513D01*
X11657381Y-15587989D01*
X11809762Y-15787989D02*
X11809762Y-15654655D01*
X11809762Y-15673703D02*
X11819286Y-15664179D01*
X11838333Y-15654655D01*
X11866905Y-15654655D01*
X11885952Y-15664179D01*
X11895476Y-15683227D01*
X11895476Y-15787989D01*
X11895476Y-15683227D02*
X11905000Y-15664179D01*
X11924048Y-15654655D01*
X11952619Y-15654655D01*
X11971667Y-15664179D01*
X11981190Y-15683227D01*
X11981190Y-15787989D01*
X12076428Y-15787989D02*
X12076428Y-15654655D01*
X12076428Y-15673703D02*
X12085952Y-15664179D01*
X12105000Y-15654655D01*
X12133571Y-15654655D01*
X12152619Y-15664179D01*
X12162143Y-15683227D01*
X12162143Y-15787989D01*
X12162143Y-15683227D02*
X12171667Y-15664179D01*
X12190714Y-15654655D01*
X12219286Y-15654655D01*
X12238333Y-15664179D01*
X12247857Y-15683227D01*
X12247857Y-15787989D01*
X12638333Y-15578465D02*
X12466905Y-15835608D01*
X12895476Y-15587989D02*
X12914524Y-15587989D01*
X12933571Y-15597513D01*
X12943095Y-15607036D01*
X12952619Y-15626084D01*
X12962143Y-15664179D01*
X12962143Y-15711798D01*
X12952619Y-15749893D01*
X12943095Y-15768941D01*
X12933571Y-15778465D01*
X12914524Y-15787989D01*
X12895476Y-15787989D01*
X12876428Y-15778465D01*
X12866905Y-15768941D01*
X12857381Y-15749893D01*
X12847857Y-15711798D01*
X12847857Y-15664179D01*
X12857381Y-15626084D01*
X12866905Y-15607036D01*
X12876428Y-15597513D01*
X12895476Y-15587989D01*
X13047857Y-15768941D02*
X13057381Y-15778465D01*
X13047857Y-15787989D01*
X13038333Y-15778465D01*
X13047857Y-15768941D01*
X13047857Y-15787989D01*
X13181190Y-15587989D02*
X13200238Y-15587989D01*
X13219286Y-15597513D01*
X13228809Y-15607036D01*
X13238333Y-15626084D01*
X13247857Y-15664179D01*
X13247857Y-15711798D01*
X13238333Y-15749893D01*
X13228809Y-15768941D01*
X13219286Y-15778465D01*
X13200238Y-15787989D01*
X13181190Y-15787989D01*
X13162143Y-15778465D01*
X13152619Y-15768941D01*
X13143095Y-15749893D01*
X13133571Y-15711798D01*
X13133571Y-15664179D01*
X13143095Y-15626084D01*
X13152619Y-15607036D01*
X13162143Y-15597513D01*
X13181190Y-15587989D01*
X13324048Y-15607036D02*
X13333571Y-15597513D01*
X13352619Y-15587989D01*
X13400238Y-15587989D01*
X13419286Y-15597513D01*
X13428809Y-15607036D01*
X13438333Y-15626084D01*
X13438333Y-15645132D01*
X13428809Y-15673703D01*
X13314524Y-15787989D01*
X13438333Y-15787989D01*
X13505000Y-15587989D02*
X13628809Y-15587989D01*
X13562143Y-15664179D01*
X13590714Y-15664179D01*
X13609762Y-15673703D01*
X13619286Y-15683227D01*
X13628809Y-15702274D01*
X13628809Y-15749893D01*
X13619286Y-15768941D01*
X13609762Y-15778465D01*
X13590714Y-15787989D01*
X13533571Y-15787989D01*
X13514524Y-15778465D01*
X13505000Y-15768941D01*
X13800238Y-15587989D02*
X13762143Y-15587989D01*
X13743095Y-15597513D01*
X13733571Y-15607036D01*
X13714524Y-15635608D01*
X13705000Y-15673703D01*
X13705000Y-15749893D01*
X13714524Y-15768941D01*
X13724048Y-15778465D01*
X13743095Y-15787989D01*
X13781190Y-15787989D01*
X13800238Y-15778465D01*
X13809762Y-15768941D01*
X13819286Y-15749893D01*
X13819286Y-15702274D01*
X13809762Y-15683227D01*
X13800238Y-15673703D01*
X13781190Y-15664179D01*
X13743095Y-15664179D01*
X13724048Y-15673703D01*
X13714524Y-15683227D01*
X13705000Y-15702274D01*
X13895476Y-15587989D02*
X13895476Y-15626084D01*
X13971667Y-15587989D02*
X13971667Y-15626084D01*
X14266905Y-15864179D02*
X14257381Y-15854655D01*
X14238333Y-15826084D01*
X14228809Y-15807036D01*
X14219286Y-15778465D01*
X14209762Y-15730846D01*
X14209762Y-15692751D01*
X14219286Y-15645132D01*
X14228809Y-15616560D01*
X14238333Y-15597513D01*
X14257381Y-15568941D01*
X14266905Y-15559417D01*
X14333571Y-15607036D02*
X14343095Y-15597513D01*
X14362143Y-15587989D01*
X14409762Y-15587989D01*
X14428809Y-15597513D01*
X14438333Y-15607036D01*
X14447857Y-15626084D01*
X14447857Y-15645132D01*
X14438333Y-15673703D01*
X14324048Y-15787989D01*
X14447857Y-15787989D01*
X14685952Y-15787989D02*
X14685952Y-15587989D01*
X14771667Y-15787989D02*
X14771667Y-15683227D01*
X14762143Y-15664179D01*
X14743095Y-15654655D01*
X14714524Y-15654655D01*
X14695476Y-15664179D01*
X14685952Y-15673703D01*
X14895476Y-15787989D02*
X14876428Y-15778465D01*
X14866905Y-15768941D01*
X14857381Y-15749893D01*
X14857381Y-15692751D01*
X14866905Y-15673703D01*
X14876428Y-15664179D01*
X14895476Y-15654655D01*
X14924048Y-15654655D01*
X14943095Y-15664179D01*
X14952619Y-15673703D01*
X14962143Y-15692751D01*
X14962143Y-15749893D01*
X14952619Y-15768941D01*
X14943095Y-15778465D01*
X14924048Y-15787989D01*
X14895476Y-15787989D01*
X15076428Y-15787989D02*
X15057381Y-15778465D01*
X15047857Y-15759417D01*
X15047857Y-15587989D01*
X15228809Y-15778465D02*
X15209762Y-15787989D01*
X15171667Y-15787989D01*
X15152619Y-15778465D01*
X15143095Y-15759417D01*
X15143095Y-15683227D01*
X15152619Y-15664179D01*
X15171667Y-15654655D01*
X15209762Y-15654655D01*
X15228809Y-15664179D01*
X15238333Y-15683227D01*
X15238333Y-15702274D01*
X15143095Y-15721322D01*
X15314524Y-15778465D02*
X15333571Y-15787989D01*
X15371667Y-15787989D01*
X15390714Y-15778465D01*
X15400238Y-15759417D01*
X15400238Y-15749893D01*
X15390714Y-15730846D01*
X15371667Y-15721322D01*
X15343095Y-15721322D01*
X15324048Y-15711798D01*
X15314524Y-15692751D01*
X15314524Y-15683227D01*
X15324048Y-15664179D01*
X15343095Y-15654655D01*
X15371667Y-15654655D01*
X15390714Y-15664179D01*
X15466905Y-15864179D02*
X15476428Y-15854655D01*
X15495476Y-15826084D01*
X15505000Y-15807036D01*
X15514524Y-15778465D01*
X15524048Y-15730846D01*
X15524048Y-15692751D01*
X15514524Y-15645132D01*
X15505000Y-15616560D01*
X15495476Y-15597513D01*
X15476428Y-15568941D01*
X15466905Y-15559417D01*
X15828809Y-15864179D02*
X15819286Y-15854655D01*
X15800238Y-15826084D01*
X15790714Y-15807036D01*
X15781190Y-15778465D01*
X15771667Y-15730846D01*
X15771667Y-15692751D01*
X15781190Y-15645132D01*
X15790714Y-15616560D01*
X15800238Y-15597513D01*
X15819286Y-15568941D01*
X15828809Y-15559417D01*
X15905000Y-15654655D02*
X15905000Y-15787989D01*
X15905000Y-15673703D02*
X15914524Y-15664179D01*
X15933571Y-15654655D01*
X15962143Y-15654655D01*
X15981190Y-15664179D01*
X15990714Y-15683227D01*
X15990714Y-15787989D01*
X16114524Y-15787989D02*
X16095476Y-15778465D01*
X16085952Y-15768941D01*
X16076428Y-15749893D01*
X16076428Y-15692751D01*
X16085952Y-15673703D01*
X16095476Y-15664179D01*
X16114524Y-15654655D01*
X16143095Y-15654655D01*
X16162143Y-15664179D01*
X16171667Y-15673703D01*
X16181190Y-15692751D01*
X16181190Y-15749893D01*
X16171667Y-15768941D01*
X16162143Y-15778465D01*
X16143095Y-15787989D01*
X16114524Y-15787989D01*
X16238333Y-15654655D02*
X16314524Y-15654655D01*
X16266905Y-15587989D02*
X16266905Y-15759417D01*
X16276428Y-15778465D01*
X16295476Y-15787989D01*
X16314524Y-15787989D01*
X16533571Y-15654655D02*
X16533571Y-15854655D01*
X16533571Y-15664179D02*
X16552619Y-15654655D01*
X16590714Y-15654655D01*
X16609762Y-15664179D01*
X16619286Y-15673703D01*
X16628809Y-15692751D01*
X16628809Y-15749893D01*
X16619286Y-15768941D01*
X16609762Y-15778465D01*
X16590714Y-15787989D01*
X16552619Y-15787989D01*
X16533571Y-15778465D01*
X16743095Y-15787989D02*
X16724048Y-15778465D01*
X16714524Y-15759417D01*
X16714524Y-15587989D01*
X16905000Y-15787989D02*
X16905000Y-15683227D01*
X16895476Y-15664179D01*
X16876429Y-15654655D01*
X16838333Y-15654655D01*
X16819286Y-15664179D01*
X16905000Y-15778465D02*
X16885952Y-15787989D01*
X16838333Y-15787989D01*
X16819286Y-15778465D01*
X16809762Y-15759417D01*
X16809762Y-15740370D01*
X16819286Y-15721322D01*
X16838333Y-15711798D01*
X16885952Y-15711798D01*
X16905000Y-15702274D01*
X16971667Y-15654655D02*
X17047857Y-15654655D01*
X17000238Y-15587989D02*
X17000238Y-15759417D01*
X17009762Y-15778465D01*
X17028810Y-15787989D01*
X17047857Y-15787989D01*
X17190714Y-15778465D02*
X17171667Y-15787989D01*
X17133571Y-15787989D01*
X17114524Y-15778465D01*
X17105000Y-15759417D01*
X17105000Y-15683227D01*
X17114524Y-15664179D01*
X17133571Y-15654655D01*
X17171667Y-15654655D01*
X17190714Y-15664179D01*
X17200238Y-15683227D01*
X17200238Y-15702274D01*
X17105000Y-15721322D01*
X17371667Y-15787989D02*
X17371667Y-15587989D01*
X17371667Y-15778465D02*
X17352619Y-15787989D01*
X17314524Y-15787989D01*
X17295476Y-15778465D01*
X17285952Y-15768941D01*
X17276429Y-15749893D01*
X17276429Y-15692751D01*
X17285952Y-15673703D01*
X17295476Y-15664179D01*
X17314524Y-15654655D01*
X17352619Y-15654655D01*
X17371667Y-15664179D01*
X17447857Y-15864179D02*
X17457381Y-15854655D01*
X17476429Y-15826084D01*
X17485952Y-15807036D01*
X17495476Y-15778465D01*
X17505000Y-15730846D01*
X17505000Y-15692751D01*
X17495476Y-15645132D01*
X17485952Y-15616560D01*
X17476429Y-15597513D01*
X17457381Y-15568941D01*
X17447857Y-15559417D01*
D13*
X10695000Y-15961513D02*
G75*
G03*
X10695000Y-15961513I-55000J0D01*
G01*
D11*
X11057381Y-16051989D02*
X10943095Y-16051989D01*
X11000238Y-16051989D02*
X11000238Y-15851989D01*
X10981190Y-15880560D01*
X10962143Y-15899608D01*
X10943095Y-15909132D01*
X11143095Y-16032941D02*
X11152619Y-16042465D01*
X11143095Y-16051989D01*
X11133571Y-16042465D01*
X11143095Y-16032941D01*
X11143095Y-16051989D01*
X11343095Y-16051989D02*
X11228809Y-16051989D01*
X11285952Y-16051989D02*
X11285952Y-15851989D01*
X11266905Y-15880560D01*
X11247857Y-15899608D01*
X11228809Y-15909132D01*
X11466905Y-15851989D02*
X11485952Y-15851989D01*
X11505000Y-15861513D01*
X11514524Y-15871036D01*
X11524048Y-15890084D01*
X11533571Y-15928179D01*
X11533571Y-15975798D01*
X11524048Y-16013893D01*
X11514524Y-16032941D01*
X11505000Y-16042465D01*
X11485952Y-16051989D01*
X11466905Y-16051989D01*
X11447857Y-16042465D01*
X11438333Y-16032941D01*
X11428809Y-16013893D01*
X11419286Y-15975798D01*
X11419286Y-15928179D01*
X11428809Y-15890084D01*
X11438333Y-15871036D01*
X11447857Y-15861513D01*
X11466905Y-15851989D01*
X11657381Y-15851989D02*
X11676428Y-15851989D01*
X11695476Y-15861513D01*
X11705000Y-15871036D01*
X11714524Y-15890084D01*
X11724048Y-15928179D01*
X11724048Y-15975798D01*
X11714524Y-16013893D01*
X11705000Y-16032941D01*
X11695476Y-16042465D01*
X11676428Y-16051989D01*
X11657381Y-16051989D01*
X11638333Y-16042465D01*
X11628809Y-16032941D01*
X11619286Y-16013893D01*
X11609762Y-15975798D01*
X11609762Y-15928179D01*
X11619286Y-15890084D01*
X11628809Y-15871036D01*
X11638333Y-15861513D01*
X11657381Y-15851989D01*
X11809762Y-16051989D02*
X11809762Y-15918655D01*
X11809762Y-15937703D02*
X11819286Y-15928179D01*
X11838333Y-15918655D01*
X11866905Y-15918655D01*
X11885952Y-15928179D01*
X11895476Y-15947227D01*
X11895476Y-16051989D01*
X11895476Y-15947227D02*
X11905000Y-15928179D01*
X11924048Y-15918655D01*
X11952619Y-15918655D01*
X11971667Y-15928179D01*
X11981190Y-15947227D01*
X11981190Y-16051989D01*
X12076428Y-16051989D02*
X12076428Y-15918655D01*
X12076428Y-15937703D02*
X12085952Y-15928179D01*
X12105000Y-15918655D01*
X12133571Y-15918655D01*
X12152619Y-15928179D01*
X12162143Y-15947227D01*
X12162143Y-16051989D01*
X12162143Y-15947227D02*
X12171667Y-15928179D01*
X12190714Y-15918655D01*
X12219286Y-15918655D01*
X12238333Y-15928179D01*
X12247857Y-15947227D01*
X12247857Y-16051989D01*
X12638333Y-15842465D02*
X12466905Y-16099608D01*
X12895476Y-15851989D02*
X12914524Y-15851989D01*
X12933571Y-15861513D01*
X12943095Y-15871036D01*
X12952619Y-15890084D01*
X12962143Y-15928179D01*
X12962143Y-15975798D01*
X12952619Y-16013893D01*
X12943095Y-16032941D01*
X12933571Y-16042465D01*
X12914524Y-16051989D01*
X12895476Y-16051989D01*
X12876428Y-16042465D01*
X12866905Y-16032941D01*
X12857381Y-16013893D01*
X12847857Y-15975798D01*
X12847857Y-15928179D01*
X12857381Y-15890084D01*
X12866905Y-15871036D01*
X12876428Y-15861513D01*
X12895476Y-15851989D01*
X13047857Y-16032941D02*
X13057381Y-16042465D01*
X13047857Y-16051989D01*
X13038333Y-16042465D01*
X13047857Y-16032941D01*
X13047857Y-16051989D01*
X13181190Y-15851989D02*
X13200238Y-15851989D01*
X13219286Y-15861513D01*
X13228809Y-15871036D01*
X13238333Y-15890084D01*
X13247857Y-15928179D01*
X13247857Y-15975798D01*
X13238333Y-16013893D01*
X13228809Y-16032941D01*
X13219286Y-16042465D01*
X13200238Y-16051989D01*
X13181190Y-16051989D01*
X13162143Y-16042465D01*
X13152619Y-16032941D01*
X13143095Y-16013893D01*
X13133571Y-15975798D01*
X13133571Y-15928179D01*
X13143095Y-15890084D01*
X13152619Y-15871036D01*
X13162143Y-15861513D01*
X13181190Y-15851989D01*
X13419286Y-15918655D02*
X13419286Y-16051989D01*
X13371667Y-15842465D02*
X13324048Y-15985322D01*
X13447857Y-15985322D01*
X13505000Y-15851989D02*
X13628809Y-15851989D01*
X13562143Y-15928179D01*
X13590714Y-15928179D01*
X13609762Y-15937703D01*
X13619286Y-15947227D01*
X13628809Y-15966274D01*
X13628809Y-16013893D01*
X13619286Y-16032941D01*
X13609762Y-16042465D01*
X13590714Y-16051989D01*
X13533571Y-16051989D01*
X13514524Y-16042465D01*
X13505000Y-16032941D01*
X13695476Y-15851989D02*
X13819286Y-15851989D01*
X13752619Y-15928179D01*
X13781190Y-15928179D01*
X13800238Y-15937703D01*
X13809762Y-15947227D01*
X13819286Y-15966274D01*
X13819286Y-16013893D01*
X13809762Y-16032941D01*
X13800238Y-16042465D01*
X13781190Y-16051989D01*
X13724048Y-16051989D01*
X13705000Y-16042465D01*
X13695476Y-16032941D01*
X13895476Y-15851989D02*
X13895476Y-15890084D01*
X13971667Y-15851989D02*
X13971667Y-15890084D01*
X14266905Y-16128179D02*
X14257381Y-16118655D01*
X14238333Y-16090084D01*
X14228809Y-16071036D01*
X14219286Y-16042465D01*
X14209762Y-15994846D01*
X14209762Y-15956751D01*
X14219286Y-15909132D01*
X14228809Y-15880560D01*
X14238333Y-15861513D01*
X14257381Y-15832941D01*
X14266905Y-15823417D01*
X14447857Y-16051989D02*
X14333571Y-16051989D01*
X14390714Y-16051989D02*
X14390714Y-15851989D01*
X14371667Y-15880560D01*
X14352619Y-15899608D01*
X14333571Y-15909132D01*
X14685952Y-16051989D02*
X14685952Y-15851989D01*
X14771667Y-16051989D02*
X14771667Y-15947227D01*
X14762143Y-15928179D01*
X14743095Y-15918655D01*
X14714524Y-15918655D01*
X14695476Y-15928179D01*
X14685952Y-15937703D01*
X14895476Y-16051989D02*
X14876428Y-16042465D01*
X14866905Y-16032941D01*
X14857381Y-16013893D01*
X14857381Y-15956751D01*
X14866905Y-15937703D01*
X14876428Y-15928179D01*
X14895476Y-15918655D01*
X14924048Y-15918655D01*
X14943095Y-15928179D01*
X14952619Y-15937703D01*
X14962143Y-15956751D01*
X14962143Y-16013893D01*
X14952619Y-16032941D01*
X14943095Y-16042465D01*
X14924048Y-16051989D01*
X14895476Y-16051989D01*
X15076428Y-16051989D02*
X15057381Y-16042465D01*
X15047857Y-16023417D01*
X15047857Y-15851989D01*
X15228809Y-16042465D02*
X15209762Y-16051989D01*
X15171667Y-16051989D01*
X15152619Y-16042465D01*
X15143095Y-16023417D01*
X15143095Y-15947227D01*
X15152619Y-15928179D01*
X15171667Y-15918655D01*
X15209762Y-15918655D01*
X15228809Y-15928179D01*
X15238333Y-15947227D01*
X15238333Y-15966274D01*
X15143095Y-15985322D01*
X15305000Y-16128179D02*
X15314524Y-16118655D01*
X15333571Y-16090084D01*
X15343095Y-16071036D01*
X15352619Y-16042465D01*
X15362143Y-15994846D01*
X15362143Y-15956751D01*
X15352619Y-15909132D01*
X15343095Y-15880560D01*
X15333571Y-15861513D01*
X15314524Y-15832941D01*
X15305000Y-15823417D01*
X15666905Y-16128179D02*
X15657381Y-16118655D01*
X15638333Y-16090084D01*
X15628809Y-16071036D01*
X15619286Y-16042465D01*
X15609762Y-15994846D01*
X15609762Y-15956751D01*
X15619286Y-15909132D01*
X15628809Y-15880560D01*
X15638333Y-15861513D01*
X15657381Y-15832941D01*
X15666905Y-15823417D01*
X15743095Y-15918655D02*
X15743095Y-16051989D01*
X15743095Y-15937703D02*
X15752619Y-15928179D01*
X15771667Y-15918655D01*
X15800238Y-15918655D01*
X15819286Y-15928179D01*
X15828809Y-15947227D01*
X15828809Y-16051989D01*
X15952619Y-16051989D02*
X15933571Y-16042465D01*
X15924048Y-16032941D01*
X15914524Y-16013893D01*
X15914524Y-15956751D01*
X15924048Y-15937703D01*
X15933571Y-15928179D01*
X15952619Y-15918655D01*
X15981190Y-15918655D01*
X16000238Y-15928179D01*
X16009762Y-15937703D01*
X16019286Y-15956751D01*
X16019286Y-16013893D01*
X16009762Y-16032941D01*
X16000238Y-16042465D01*
X15981190Y-16051989D01*
X15952619Y-16051989D01*
X16076428Y-15918655D02*
X16152619Y-15918655D01*
X16105000Y-15851989D02*
X16105000Y-16023417D01*
X16114524Y-16042465D01*
X16133571Y-16051989D01*
X16152619Y-16051989D01*
X16371667Y-15918655D02*
X16371667Y-16118655D01*
X16371667Y-15928179D02*
X16390714Y-15918655D01*
X16428809Y-15918655D01*
X16447857Y-15928179D01*
X16457381Y-15937703D01*
X16466905Y-15956751D01*
X16466905Y-16013893D01*
X16457381Y-16032941D01*
X16447857Y-16042465D01*
X16428809Y-16051989D01*
X16390714Y-16051989D01*
X16371667Y-16042465D01*
X16581190Y-16051989D02*
X16562143Y-16042465D01*
X16552619Y-16023417D01*
X16552619Y-15851989D01*
X16743095Y-16051989D02*
X16743095Y-15947227D01*
X16733571Y-15928179D01*
X16714524Y-15918655D01*
X16676428Y-15918655D01*
X16657381Y-15928179D01*
X16743095Y-16042465D02*
X16724048Y-16051989D01*
X16676428Y-16051989D01*
X16657381Y-16042465D01*
X16647857Y-16023417D01*
X16647857Y-16004370D01*
X16657381Y-15985322D01*
X16676428Y-15975798D01*
X16724048Y-15975798D01*
X16743095Y-15966274D01*
X16809762Y-15918655D02*
X16885952Y-15918655D01*
X16838333Y-15851989D02*
X16838333Y-16023417D01*
X16847857Y-16042465D01*
X16866905Y-16051989D01*
X16885952Y-16051989D01*
X17028810Y-16042465D02*
X17009762Y-16051989D01*
X16971667Y-16051989D01*
X16952619Y-16042465D01*
X16943095Y-16023417D01*
X16943095Y-15947227D01*
X16952619Y-15928179D01*
X16971667Y-15918655D01*
X17009762Y-15918655D01*
X17028810Y-15928179D01*
X17038333Y-15947227D01*
X17038333Y-15966274D01*
X16943095Y-15985322D01*
X17209762Y-16051989D02*
X17209762Y-15851989D01*
X17209762Y-16042465D02*
X17190714Y-16051989D01*
X17152619Y-16051989D01*
X17133571Y-16042465D01*
X17124048Y-16032941D01*
X17114524Y-16013893D01*
X17114524Y-15956751D01*
X17124048Y-15937703D01*
X17133571Y-15928179D01*
X17152619Y-15918655D01*
X17190714Y-15918655D01*
X17209762Y-15928179D01*
X17285952Y-16128179D02*
X17295476Y-16118655D01*
X17314524Y-16090084D01*
X17324048Y-16071036D01*
X17333571Y-16042465D01*
X17343095Y-15994846D01*
X17343095Y-15956751D01*
X17333571Y-15909132D01*
X17324048Y-15880560D01*
X17314524Y-15861513D01*
X17295476Y-15832941D01*
X17285952Y-15823417D01*
D14*
X10615000Y-16145513D02*
X10615000Y-16305513D01*
X10535000Y-16225513D02*
X10695000Y-16225513D01*
D11*
X11057381Y-16315989D02*
X10943095Y-16315989D01*
X11000238Y-16315989D02*
X11000238Y-16115989D01*
X10981190Y-16144560D01*
X10962143Y-16163608D01*
X10943095Y-16173132D01*
X11143095Y-16296941D02*
X11152619Y-16306465D01*
X11143095Y-16315989D01*
X11133571Y-16306465D01*
X11143095Y-16296941D01*
X11143095Y-16315989D01*
X11324048Y-16115989D02*
X11285952Y-16115989D01*
X11266905Y-16125513D01*
X11257381Y-16135036D01*
X11238333Y-16163608D01*
X11228809Y-16201703D01*
X11228809Y-16277893D01*
X11238333Y-16296941D01*
X11247857Y-16306465D01*
X11266905Y-16315989D01*
X11305000Y-16315989D01*
X11324048Y-16306465D01*
X11333571Y-16296941D01*
X11343095Y-16277893D01*
X11343095Y-16230274D01*
X11333571Y-16211227D01*
X11324048Y-16201703D01*
X11305000Y-16192179D01*
X11266905Y-16192179D01*
X11247857Y-16201703D01*
X11238333Y-16211227D01*
X11228809Y-16230274D01*
X11466905Y-16115989D02*
X11485952Y-16115989D01*
X11505000Y-16125513D01*
X11514524Y-16135036D01*
X11524048Y-16154084D01*
X11533571Y-16192179D01*
X11533571Y-16239798D01*
X11524048Y-16277893D01*
X11514524Y-16296941D01*
X11505000Y-16306465D01*
X11485952Y-16315989D01*
X11466905Y-16315989D01*
X11447857Y-16306465D01*
X11438333Y-16296941D01*
X11428809Y-16277893D01*
X11419286Y-16239798D01*
X11419286Y-16192179D01*
X11428809Y-16154084D01*
X11438333Y-16135036D01*
X11447857Y-16125513D01*
X11466905Y-16115989D01*
X11657381Y-16115989D02*
X11676428Y-16115989D01*
X11695476Y-16125513D01*
X11705000Y-16135036D01*
X11714524Y-16154084D01*
X11724048Y-16192179D01*
X11724048Y-16239798D01*
X11714524Y-16277893D01*
X11705000Y-16296941D01*
X11695476Y-16306465D01*
X11676428Y-16315989D01*
X11657381Y-16315989D01*
X11638333Y-16306465D01*
X11628809Y-16296941D01*
X11619286Y-16277893D01*
X11609762Y-16239798D01*
X11609762Y-16192179D01*
X11619286Y-16154084D01*
X11628809Y-16135036D01*
X11638333Y-16125513D01*
X11657381Y-16115989D01*
X11809762Y-16315989D02*
X11809762Y-16182655D01*
X11809762Y-16201703D02*
X11819286Y-16192179D01*
X11838333Y-16182655D01*
X11866905Y-16182655D01*
X11885952Y-16192179D01*
X11895476Y-16211227D01*
X11895476Y-16315989D01*
X11895476Y-16211227D02*
X11905000Y-16192179D01*
X11924048Y-16182655D01*
X11952619Y-16182655D01*
X11971667Y-16192179D01*
X11981190Y-16211227D01*
X11981190Y-16315989D01*
X12076428Y-16315989D02*
X12076428Y-16182655D01*
X12076428Y-16201703D02*
X12085952Y-16192179D01*
X12105000Y-16182655D01*
X12133571Y-16182655D01*
X12152619Y-16192179D01*
X12162143Y-16211227D01*
X12162143Y-16315989D01*
X12162143Y-16211227D02*
X12171667Y-16192179D01*
X12190714Y-16182655D01*
X12219286Y-16182655D01*
X12238333Y-16192179D01*
X12247857Y-16211227D01*
X12247857Y-16315989D01*
X12638333Y-16106465D02*
X12466905Y-16363608D01*
X12895476Y-16115989D02*
X12914524Y-16115989D01*
X12933571Y-16125513D01*
X12943095Y-16135036D01*
X12952619Y-16154084D01*
X12962143Y-16192179D01*
X12962143Y-16239798D01*
X12952619Y-16277893D01*
X12943095Y-16296941D01*
X12933571Y-16306465D01*
X12914524Y-16315989D01*
X12895476Y-16315989D01*
X12876428Y-16306465D01*
X12866905Y-16296941D01*
X12857381Y-16277893D01*
X12847857Y-16239798D01*
X12847857Y-16192179D01*
X12857381Y-16154084D01*
X12866905Y-16135036D01*
X12876428Y-16125513D01*
X12895476Y-16115989D01*
X13047857Y-16296941D02*
X13057381Y-16306465D01*
X13047857Y-16315989D01*
X13038333Y-16306465D01*
X13047857Y-16296941D01*
X13047857Y-16315989D01*
X13181190Y-16115989D02*
X13200238Y-16115989D01*
X13219286Y-16125513D01*
X13228809Y-16135036D01*
X13238333Y-16154084D01*
X13247857Y-16192179D01*
X13247857Y-16239798D01*
X13238333Y-16277893D01*
X13228809Y-16296941D01*
X13219286Y-16306465D01*
X13200238Y-16315989D01*
X13181190Y-16315989D01*
X13162143Y-16306465D01*
X13152619Y-16296941D01*
X13143095Y-16277893D01*
X13133571Y-16239798D01*
X13133571Y-16192179D01*
X13143095Y-16154084D01*
X13152619Y-16135036D01*
X13162143Y-16125513D01*
X13181190Y-16115989D01*
X13419286Y-16115989D02*
X13381190Y-16115989D01*
X13362143Y-16125513D01*
X13352619Y-16135036D01*
X13333571Y-16163608D01*
X13324048Y-16201703D01*
X13324048Y-16277893D01*
X13333571Y-16296941D01*
X13343095Y-16306465D01*
X13362143Y-16315989D01*
X13400238Y-16315989D01*
X13419286Y-16306465D01*
X13428809Y-16296941D01*
X13438333Y-16277893D01*
X13438333Y-16230274D01*
X13428809Y-16211227D01*
X13419286Y-16201703D01*
X13400238Y-16192179D01*
X13362143Y-16192179D01*
X13343095Y-16201703D01*
X13333571Y-16211227D01*
X13324048Y-16230274D01*
X13505000Y-16115989D02*
X13628809Y-16115989D01*
X13562143Y-16192179D01*
X13590714Y-16192179D01*
X13609762Y-16201703D01*
X13619286Y-16211227D01*
X13628809Y-16230274D01*
X13628809Y-16277893D01*
X13619286Y-16296941D01*
X13609762Y-16306465D01*
X13590714Y-16315989D01*
X13533571Y-16315989D01*
X13514524Y-16306465D01*
X13505000Y-16296941D01*
X13752619Y-16115989D02*
X13771667Y-16115989D01*
X13790714Y-16125513D01*
X13800238Y-16135036D01*
X13809762Y-16154084D01*
X13819286Y-16192179D01*
X13819286Y-16239798D01*
X13809762Y-16277893D01*
X13800238Y-16296941D01*
X13790714Y-16306465D01*
X13771667Y-16315989D01*
X13752619Y-16315989D01*
X13733571Y-16306465D01*
X13724048Y-16296941D01*
X13714524Y-16277893D01*
X13705000Y-16239798D01*
X13705000Y-16192179D01*
X13714524Y-16154084D01*
X13724048Y-16135036D01*
X13733571Y-16125513D01*
X13752619Y-16115989D01*
X13895476Y-16115989D02*
X13895476Y-16154084D01*
X13971667Y-16115989D02*
X13971667Y-16154084D01*
X14266905Y-16392179D02*
X14257381Y-16382655D01*
X14238333Y-16354084D01*
X14228809Y-16335036D01*
X14219286Y-16306465D01*
X14209762Y-16258846D01*
X14209762Y-16220751D01*
X14219286Y-16173132D01*
X14228809Y-16144560D01*
X14238333Y-16125513D01*
X14257381Y-16096941D01*
X14266905Y-16087417D01*
X14447857Y-16315989D02*
X14333571Y-16315989D01*
X14390714Y-16315989D02*
X14390714Y-16115989D01*
X14371667Y-16144560D01*
X14352619Y-16163608D01*
X14333571Y-16173132D01*
X14685952Y-16315989D02*
X14685952Y-16115989D01*
X14771667Y-16315989D02*
X14771667Y-16211227D01*
X14762143Y-16192179D01*
X14743095Y-16182655D01*
X14714524Y-16182655D01*
X14695476Y-16192179D01*
X14685952Y-16201703D01*
X14895476Y-16315989D02*
X14876428Y-16306465D01*
X14866905Y-16296941D01*
X14857381Y-16277893D01*
X14857381Y-16220751D01*
X14866905Y-16201703D01*
X14876428Y-16192179D01*
X14895476Y-16182655D01*
X14924048Y-16182655D01*
X14943095Y-16192179D01*
X14952619Y-16201703D01*
X14962143Y-16220751D01*
X14962143Y-16277893D01*
X14952619Y-16296941D01*
X14943095Y-16306465D01*
X14924048Y-16315989D01*
X14895476Y-16315989D01*
X15076428Y-16315989D02*
X15057381Y-16306465D01*
X15047857Y-16287417D01*
X15047857Y-16115989D01*
X15228809Y-16306465D02*
X15209762Y-16315989D01*
X15171667Y-16315989D01*
X15152619Y-16306465D01*
X15143095Y-16287417D01*
X15143095Y-16211227D01*
X15152619Y-16192179D01*
X15171667Y-16182655D01*
X15209762Y-16182655D01*
X15228809Y-16192179D01*
X15238333Y-16211227D01*
X15238333Y-16230274D01*
X15143095Y-16249322D01*
X15305000Y-16392179D02*
X15314524Y-16382655D01*
X15333571Y-16354084D01*
X15343095Y-16335036D01*
X15352619Y-16306465D01*
X15362143Y-16258846D01*
X15362143Y-16220751D01*
X15352619Y-16173132D01*
X15343095Y-16144560D01*
X15333571Y-16125513D01*
X15314524Y-16096941D01*
X15305000Y-16087417D01*
X15666905Y-16392179D02*
X15657381Y-16382655D01*
X15638333Y-16354084D01*
X15628809Y-16335036D01*
X15619286Y-16306465D01*
X15609762Y-16258846D01*
X15609762Y-16220751D01*
X15619286Y-16173132D01*
X15628809Y-16144560D01*
X15638333Y-16125513D01*
X15657381Y-16096941D01*
X15666905Y-16087417D01*
X15743095Y-16182655D02*
X15743095Y-16315989D01*
X15743095Y-16201703D02*
X15752619Y-16192179D01*
X15771667Y-16182655D01*
X15800238Y-16182655D01*
X15819286Y-16192179D01*
X15828809Y-16211227D01*
X15828809Y-16315989D01*
X15952619Y-16315989D02*
X15933571Y-16306465D01*
X15924048Y-16296941D01*
X15914524Y-16277893D01*
X15914524Y-16220751D01*
X15924048Y-16201703D01*
X15933571Y-16192179D01*
X15952619Y-16182655D01*
X15981190Y-16182655D01*
X16000238Y-16192179D01*
X16009762Y-16201703D01*
X16019286Y-16220751D01*
X16019286Y-16277893D01*
X16009762Y-16296941D01*
X16000238Y-16306465D01*
X15981190Y-16315989D01*
X15952619Y-16315989D01*
X16076428Y-16182655D02*
X16152619Y-16182655D01*
X16105000Y-16115989D02*
X16105000Y-16287417D01*
X16114524Y-16306465D01*
X16133571Y-16315989D01*
X16152619Y-16315989D01*
X16371667Y-16182655D02*
X16371667Y-16382655D01*
X16371667Y-16192179D02*
X16390714Y-16182655D01*
X16428809Y-16182655D01*
X16447857Y-16192179D01*
X16457381Y-16201703D01*
X16466905Y-16220751D01*
X16466905Y-16277893D01*
X16457381Y-16296941D01*
X16447857Y-16306465D01*
X16428809Y-16315989D01*
X16390714Y-16315989D01*
X16371667Y-16306465D01*
X16581190Y-16315989D02*
X16562143Y-16306465D01*
X16552619Y-16287417D01*
X16552619Y-16115989D01*
X16743095Y-16315989D02*
X16743095Y-16211227D01*
X16733571Y-16192179D01*
X16714524Y-16182655D01*
X16676428Y-16182655D01*
X16657381Y-16192179D01*
X16743095Y-16306465D02*
X16724048Y-16315989D01*
X16676428Y-16315989D01*
X16657381Y-16306465D01*
X16647857Y-16287417D01*
X16647857Y-16268370D01*
X16657381Y-16249322D01*
X16676428Y-16239798D01*
X16724048Y-16239798D01*
X16743095Y-16230274D01*
X16809762Y-16182655D02*
X16885952Y-16182655D01*
X16838333Y-16115989D02*
X16838333Y-16287417D01*
X16847857Y-16306465D01*
X16866905Y-16315989D01*
X16885952Y-16315989D01*
X17028810Y-16306465D02*
X17009762Y-16315989D01*
X16971667Y-16315989D01*
X16952619Y-16306465D01*
X16943095Y-16287417D01*
X16943095Y-16211227D01*
X16952619Y-16192179D01*
X16971667Y-16182655D01*
X17009762Y-16182655D01*
X17028810Y-16192179D01*
X17038333Y-16211227D01*
X17038333Y-16230274D01*
X16943095Y-16249322D01*
X17209762Y-16315989D02*
X17209762Y-16115989D01*
X17209762Y-16306465D02*
X17190714Y-16315989D01*
X17152619Y-16315989D01*
X17133571Y-16306465D01*
X17124048Y-16296941D01*
X17114524Y-16277893D01*
X17114524Y-16220751D01*
X17124048Y-16201703D01*
X17133571Y-16192179D01*
X17152619Y-16182655D01*
X17190714Y-16182655D01*
X17209762Y-16192179D01*
X17285952Y-16392179D02*
X17295476Y-16382655D01*
X17314524Y-16354084D01*
X17324048Y-16335036D01*
X17333571Y-16306465D01*
X17343095Y-16258846D01*
X17343095Y-16220751D01*
X17333571Y-16173132D01*
X17324048Y-16144560D01*
X17314524Y-16125513D01*
X17295476Y-16096941D01*
X17285952Y-16087417D01*
M02*
