<?xml version="1.0" encoding="UTF-8" standalone="no"?>
<!-- Created with Inkscape (http://www.inkscape.org/) -->

<svg
   width="210mm"
   height="297mm"
   viewBox="0 0 210 297"
   version="1.1"
   id="svg5"
   inkscape:version="1.2.1 (9c6d41e410, 2022-07-14)"
   sodipodi:docname="latlong.svg"
   xmlns:inkscape="http://www.inkscape.org/namespaces/inkscape"
   xmlns:sodipodi="http://sodipodi.sourceforge.net/DTD/sodipodi-0.dtd"
   xmlns="http://www.w3.org/2000/svg"
   xmlns:svg="http://www.w3.org/2000/svg">
  <sodipodi:namedview
     id="namedview7"
     pagecolor="#505050"
     bordercolor="#eeeeee"
     borderopacity="1"
     inkscape:showpageshadow="0"
     inkscape:pageopacity="0"
     inkscape:pagecheckerboard="0"
     inkscape:deskcolor="#505050"
     inkscape:document-units="mm"
     showgrid="false"
     inkscape:zoom="12.167551"
     inkscape:cx="176.28856"
     inkscape:cy="425.84577"
     inkscape:window-width="1920"
     inkscape:window-height="991"
     inkscape:window-x="-9"
     inkscape:window-y="-9"
     inkscape:window-maximized="1"
     inkscape:current-layer="text236" />
  <defs
     id="defs2" />
  <g
     inkscape:label="Layer 1"
     inkscape:groupmode="layer"
     id="layer1">
    <g
       aria-label="48°52.6'S"
       id="text236"
       style="font-size:2.88462px;font-family:'Optician Sans';-inkscape-font-specification:'Optician Sans';stroke-width:0.423331;stroke-linecap:round;stroke-linejoin:round">
      <path
         d="m 35.043402,107.81851 v 0.23077 h 0.807694 v 0.28846 h 0.288462 v -0.28846 h 0.2625 v -0.25962 h -0.2625 v -0.89423 h -0.259616 z m 0.807694,-0.51635 v 0.4875 h -0.441347 z"
         id="path408" />
      <path
         d="m 37.339561,108.36658 c 0.389424,0 0.60577,-0.15865 0.60577,-0.44711 0,-0.13558 -0.08077,-0.24231 -0.216346,-0.31154 0.109615,-0.0692 0.173077,-0.17019 0.173077,-0.29423 0,-0.28846 -0.199039,-0.44712 -0.562501,-0.44712 -0.360577,0 -0.562501,0.15866 -0.562501,0.44712 0,0.12404 0.06346,0.225 0.173078,0.29423 -0.135578,0.0692 -0.216347,0.17596 -0.216347,0.31154 0,0.28846 0.213462,0.44711 0.60577,0.44711 z m -0.302885,-0.44711 c 0,-0.1125 0.106731,-0.17308 0.302885,-0.17308 0.199039,0 0.302885,0.0606 0.302885,0.17308 0,0.1125 -0.106731,0.17308 -0.302885,0.17308 -0.199039,0 -0.302885,-0.0606 -0.302885,-0.17308 z m 0.302885,-0.77885 c 0.170193,0 0.259616,0.0606 0.259616,0.17308 0,0.1125 -0.08942,0.17308 -0.259616,0.17308 -0.170192,0 -0.259616,-0.0606 -0.259616,-0.17308 0,-0.1125 0.08942,-0.17308 0.259616,-0.17308 z"
         id="path410" />
      <path
         d="m 38.277061,107.32812 c 0,0.27404 0.196154,0.46154 0.484616,0.46154 0.288462,0 0.484616,-0.1875 0.484616,-0.46154 0,-0.27692 -0.19327,-0.46154 -0.484616,-0.46154 -0.288462,0 -0.484616,0.1875 -0.484616,0.46154 z m 0.288462,0 c 0,-0.12115 0.08077,-0.20192 0.196154,-0.20192 0.118269,0 0.196154,0.0808 0.196154,0.20192 0,0.12116 -0.08077,0.20192 -0.196154,0.20192 -0.115385,0 -0.196154,-0.0808 -0.196154,-0.20192 z"
         id="path412" />
      <path
         d="m 40.183797,108.36658 c 0.389423,0 0.60577,-0.1673 0.60577,-0.47019 0,-0.29135 -0.216347,-0.45288 -0.60577,-0.45288 h -0.288462 v -0.28847 h 0.79327 v -0.25961 h -1.081732 v 0.80769 h 0.576924 c 0.199039,0 0.302885,0.0663 0.302885,0.19327 0,0.12692 -0.106731,0.19616 -0.302885,0.19616 -0.199039,0 -0.302885,-0.0606 -0.302885,-0.17308 h -0.302885 c 0,0.28846 0.213461,0.44711 0.60577,0.44711 z"
         id="path414" />
      <path
         d="m 42.361683,108.33774 v -0.25962 h -0.879809 c 0,-0.10961 0.147115,-0.21058 0.363462,-0.29423 0.360577,-0.14135 0.4875,-0.2625 0.4875,-0.47019 0,-0.27404 -0.222115,-0.44712 -0.576924,-0.44712 -0.372116,0 -0.576924,0.1875 -0.576924,0.47596 h 0.302886 c 0,-0.1125 0.09519,-0.20192 0.274038,-0.20192 0.178847,0 0.274039,0.0606 0.274039,0.17308 0,0.0837 -0.06635,0.13269 -0.294231,0.22211 -0.375,0.14712 -0.585578,0.36347 -0.585578,0.6 v 0.20193 z"
         id="path416" />
      <path
         d="m 42.751104,108.17908 c 0,0.1125 0.075,0.1875 0.1875,0.1875 0.112501,0 0.187501,-0.075 0.187501,-0.1875 0,-0.1125 -0.075,-0.1875 -0.187501,-0.1875 -0.1125,0 -0.1875,0.075 -0.1875,0.1875 z"
         id="path418" />
      <path
         d="m 43.457836,107.61658 c 0,0.48173 0.233655,0.75 0.677886,0.75 0.38077,0 0.620193,-0.18461 0.620193,-0.47596 0,-0.27981 -0.233654,-0.46154 -0.591347,-0.46154 -0.161539,0 -0.3,0.049 -0.400962,0.10673 0.02019,-0.26538 0.138462,-0.39519 0.360578,-0.39519 0.161538,0 0.271154,0.0692 0.271154,0.17308 h 0.302885 c 0,-0.27116 -0.227885,-0.44712 -0.574039,-0.44712 -0.421155,0 -0.666348,0.27404 -0.666348,0.75 z m 0.654809,0.0721 c 0.222116,0 0.340385,0.0721 0.340385,0.20192 0,0.12116 -0.124038,0.20193 -0.314423,0.20193 -0.204808,0 -0.320193,-0.0923 -0.360578,-0.28847 0.08365,-0.0577 0.199039,-0.11538 0.334616,-0.11538 z"
         id="path420" />
      <path
         d="m 45.087645,107.11177 c 0,0.21635 0.05769,0.36058 0.05769,0.36058 h 0.173077 c 0,0 0.05769,-0.14423 0.05769,-0.36058 v -0.21634 h -0.288462 z"
         id="path422" />
      <path
         d="m 45.707836,107.90505 c 0,0.27692 0.276924,0.46153 0.692309,0.46153 0.450001,0 0.692309,-0.16442 0.692309,-0.47019 0,-0.29423 -0.201924,-0.42404 -0.677886,-0.42404 -0.274039,0 -0.389423,-0.0433 -0.389423,-0.15288 0,-0.12693 0.129807,-0.19327 0.375,-0.19327 0.225,0 0.375001,0.0808 0.375001,0.20192 h 0.288462 c 0,-0.27692 -0.265385,-0.46154 -0.663463,-0.46154 -0.432693,0 -0.663462,0.15866 -0.663462,0.45289 0,0.29134 0.196154,0.4125 0.651924,0.4125 0.288462,0 0.415385,0.049 0.415385,0.16442 0,0.13558 -0.141346,0.21058 -0.403847,0.21058 -0.242308,0 -0.403847,-0.0808 -0.403847,-0.20192 z"
         id="path424" />
    </g>
    <text
       xml:space="preserve"
       style="font-size:35.2777px;font-family:'Optician Sans';-inkscape-font-specification:'Optician Sans';fill:#000000;stroke-width:0.423333;stroke-linecap:round;stroke-linejoin:round"
       x="43.843414"
       y="113.62927"
       id="text402"><tspan
         sodipodi:role="line"
         id="tspan400"
         style="stroke-width:0.423333"></tspan></text>
    <g
       aria-label="123°23.6'W"
       id="text406"
       style="font-size:2.88462px;font-family:'Optician Sans';-inkscape-font-specification:'Optician Sans';stroke-width:0.423333;stroke-linecap:round;stroke-linejoin:round">
      <path
         d="m 35.043403,110.33704 h 1.153848 v -0.25961 h -0.432693 v -1.1827 H 35.07225 v 0.25962 h 0.403846 v 0.92308 h -0.432693 z"
         id="path427" />
      <path
         d="m 37.798213,110.33704 v -0.25961 h -0.879809 c 0,-0.10962 0.147116,-0.21058 0.363462,-0.29423 0.360578,-0.14135 0.487501,-0.2625 0.487501,-0.4702 0,-0.27404 -0.222116,-0.44711 -0.576924,-0.44711 -0.372116,0 -0.576924,0.1875 -0.576924,0.47596 h 0.302885 c 0,-0.1125 0.09519,-0.20192 0.274039,-0.20192 0.178847,0 0.274039,0.0606 0.274039,0.17307 0,0.0837 -0.06635,0.1327 -0.294231,0.22212 -0.375001,0.14712 -0.585578,0.36346 -0.585578,0.6 v 0.20192 z"
         id="path429" />
      <path
         d="m 38.577058,109.48608 v 0.25962 h 0.216347 c 0.199039,0 0.302885,0.0606 0.302885,0.17307 0,0.1125 -0.106731,0.17308 -0.302885,0.17308 -0.199039,0 -0.302885,-0.0606 -0.302885,-0.17308 h -0.302885 c 0,0.28847 0.213462,0.44712 0.60577,0.44712 0.389424,0 0.60577,-0.15865 0.60577,-0.44712 0,-0.14134 -0.06635,-0.24807 -0.196154,-0.31154 0.100962,-0.0663 0.152885,-0.16442 0.152885,-0.29423 0,-0.28846 -0.204808,-0.44711 -0.576924,-0.44711 -0.372116,0 -0.576924,0.15865 -0.576924,0.44711 h 0.302885 c 0,-0.1125 0.09519,-0.17307 0.274039,-0.17307 0.178846,0 0.274039,0.0606 0.274039,0.17307 0,0.1125 -0.08942,0.17308 -0.259616,0.17308 z"
         id="path431" />
      <path
         d="m 39.730904,109.32743 c 0,0.27404 0.196154,0.46154 0.484616,0.46154 0.288462,0 0.484617,-0.1875 0.484617,-0.46154 0,-0.27693 -0.19327,-0.46154 -0.484617,-0.46154 -0.288462,0 -0.484616,0.1875 -0.484616,0.46154 z m 0.288462,0 c 0,-0.12116 0.08077,-0.20193 0.196154,-0.20193 0.11827,0 0.196155,0.0808 0.196155,0.20193 0,0.12115 -0.08077,0.20192 -0.196155,0.20192 -0.115384,0 -0.196154,-0.0808 -0.196154,-0.20192 z"
         id="path433" />
      <path
         d="m 42.228987,110.33704 v -0.25961 h -0.879809 c 0,-0.10962 0.147116,-0.21058 0.363462,-0.29423 0.360578,-0.14135 0.487501,-0.2625 0.487501,-0.4702 0,-0.27404 -0.222115,-0.44711 -0.576924,-0.44711 -0.372116,0 -0.576924,0.1875 -0.576924,0.47596 h 0.302885 c 0,-0.1125 0.09519,-0.20192 0.274039,-0.20192 0.178847,0 0.274039,0.0606 0.274039,0.17307 0,0.0837 -0.06635,0.1327 -0.294231,0.22212 -0.375001,0.14712 -0.585578,0.36346 -0.585578,0.6 v 0.20192 z"
         id="path435" />
      <path
         d="m 43.007833,109.48608 v 0.25962 h 0.216346 c 0.199039,0 0.302885,0.0606 0.302885,0.17307 0,0.1125 -0.106731,0.17308 -0.302885,0.17308 -0.199039,0 -0.302885,-0.0606 -0.302885,-0.17308 h -0.302885 c 0,0.28847 0.213462,0.44712 0.60577,0.44712 0.389424,0 0.60577,-0.15865 0.60577,-0.44712 0,-0.14134 -0.06635,-0.24807 -0.196154,-0.31154 0.100962,-0.0663 0.152885,-0.16442 0.152885,-0.29423 0,-0.28846 -0.204808,-0.44711 -0.576924,-0.44711 -0.372116,0 -0.576924,0.15865 -0.576924,0.44711 h 0.302885 c 0,-0.1125 0.09519,-0.17307 0.274039,-0.17307 0.178847,0 0.274039,0.0606 0.274039,0.17307 0,0.1125 -0.08942,0.17308 -0.259616,0.17308 z"
         id="path437" />
      <path
         d="m 44.204948,110.17839 c 0,0.1125 0.075,0.1875 0.1875,0.1875 0.1125,0 0.1875,-0.075 0.1875,-0.1875 0,-0.1125 -0.075,-0.1875 -0.1875,-0.1875 -0.1125,0 -0.1875,0.075 -0.1875,0.1875 z"
         id="path439" />
      <path
         d="m 44.91168,109.61589 c 0,0.48173 0.233655,0.75 0.677886,0.75 0.38077,0 0.620193,-0.18462 0.620193,-0.47596 0,-0.27981 -0.233654,-0.46154 -0.591347,-0.46154 -0.161538,0 -0.3,0.049 -0.400962,0.10673 0.02019,-0.26539 0.138462,-0.39519 0.360578,-0.39519 0.161538,0 0.271154,0.0692 0.271154,0.17307 h 0.302885 c 0,-0.27115 -0.227885,-0.44711 -0.574039,-0.44711 -0.421155,0 -0.666348,0.27404 -0.666348,0.75 z m 0.654809,0.0721 c 0.222116,0 0.340385,0.0721 0.340385,0.20193 0,0.12115 -0.124038,0.20192 -0.314423,0.20192 -0.204808,0 -0.320193,-0.0923 -0.360578,-0.28846 0.08365,-0.0577 0.199039,-0.11539 0.334616,-0.11539 z"
         id="path441" />
      <path
         d="m 46.541488,109.11108 c 0,0.21635 0.05769,0.36058 0.05769,0.36058 h 0.173078 c 0,0 0.05769,-0.14423 0.05769,-0.36058 v -0.21635 h -0.288462 z"
         id="path443" />
      <path
         d="m 47.132834,108.89473 0.173077,1.44231 h 0.302885 l 0.256732,-0.5798 c 0.08942,-0.19904 0.115384,-0.31443 0.115384,-0.31443 h 0.0058 c 0,0 0.02596,0.11539 0.115384,0.31443 l 0.256732,0.5798 h 0.302885 l 0.173077,-1.44231 h -0.282693 l -0.124038,1.06731 h -0.0029 c 0,0 -0.03173,-0.17596 -0.109616,-0.34904 l -0.1875,-0.4298 h -0.288462 l -0.190385,0.4298 c -0.075,0.17597 -0.106731,0.34904 -0.106731,0.34904 h -0.0029 l -0.124039,-1.06731 z"
         id="path445" />
    </g>
  </g>
</svg>
