<?xml version="1.0" encoding="UTF-8" standalone="no"?>
<!-- Generator: Adobe Illustrator 13.0.2, SVG Export Plug-In . SVG Version: 6.00 Build 14948)  -->

<svg
   version="1.2"
   id="Layer_1"
   x="0px"
   y="0px"
   viewBox="0 0 172.238 180.994"
   xml:space="preserve"
   sodipodi:docname="oshw-logo-mask.svg"
   inkscape:version="1.2.1 (9c6d41e410, 2022-07-14)"
   xmlns:inkscape="http://www.inkscape.org/namespaces/inkscape"
   xmlns:sodipodi="http://sodipodi.sourceforge.net/DTD/sodipodi-0.dtd"
   xmlns="http://www.w3.org/2000/svg"
   xmlns:svg="http://www.w3.org/2000/svg"><defs
   id="defs41" /><sodipodi:namedview
   id="namedview39"
   pagecolor="#505050"
   bordercolor="#eeeeee"
   borderopacity="1"
   inkscape:showpageshadow="0"
   inkscape:pageopacity="0"
   inkscape:pagecheckerboard="0"
   inkscape:deskcolor="#505050"
   showgrid="false"
   inkscape:zoom="1.8047296"
   inkscape:cx="218.0382"
   inkscape:cy="184.23812"
   inkscape:window-width="1920"
   inkscape:window-height="991"
   inkscape:window-x="-9"
   inkscape:window-y="-9"
   inkscape:window-maximized="1"
   inkscape:current-layer="Layer_1" />
<path
   fill="#0099B0"
   d="m 93.948409,86.644188 -1.943724,-0.358224 c -0.0473,-0.0088 -0.09908,-0.05285 -0.115046,-0.09808 l -0.595805,-1.377586 c -0.02223,-0.04254 -0.01797,-0.10933 0.0095,-0.148938 l 1.132489,-1.635854 c 0.02708,-0.03937 0.02176,-0.09925 -0.01241,-0.133118 l -1.414491,-1.401843 c -0.03417,-0.03387 -0.09447,-0.03937 -0.134201,-0.0123 l -1.67958,1.142286 c -0.03973,0.02707 -0.107833,0.03187 -0.15099,0.01078 L 87.69666,82.084655 c -0.04576,-0.015 -0.09033,-0.06574 -0.09932,-0.112729 l -0.374225,-1.992437 c -0.0088,-0.04699 -0.05545,-0.08543 -0.103696,-0.08543 h -2.000597 c -0.04812,0 -0.09483,0.03844 -0.103577,0.08543 l -0.374107,1.992437 c -0.009,0.04699 -0.05344,0.09773 -0.09932,0.112729 l -1.347565,0.546652 c -0.04328,0.02109 -0.111381,0.01629 -0.150991,-0.01078 L 81.363799,81.47824 c -0.03985,-0.02707 -0.100266,-0.02156 -0.134319,0.0123 l -1.414607,1.401843 c -0.03405,0.03387 -0.03973,0.09374 -0.01242,0.133118 l 1.132608,1.635854 c 0.02719,0.03961 0.03145,0.106401 0.0093,0.148938 l -0.595922,1.377586 c -0.01584,0.04523 -0.06751,0.08929 -0.115046,0.09808 l -1.943607,0.358224 c -0.04753,0.0089 -0.0862,0.05508 -0.0862,0.102885 l 1.17e-4,1.982594 c 0,0.04781 0.03878,0.09433 0.0862,0.102886 l 1.895956,0.34967 c 0.04741,0.0086 0.09814,0.0532 0.112564,0.09878 l 0.591902,1.465354 c 0.02116,0.04301 0.0162,0.110268 -0.01123,0.149641 l -1.076917,1.555351 c -0.0272,0.03937 -0.02164,0.09937 0.01241,0.133235 l 1.414725,1.401843 c 0.03405,0.03363 0.09447,0.03914 0.134319,0.0123 l 1.541595,-1.048657 c 0.03973,-0.02695 0.106297,-0.02906 0.147799,-0.005 l 0.679872,0.359747 c 0.04304,0.0218 0.09329,0.0034 0.111735,-0.04078 l 1.401839,-3.356896 c 0.01856,-0.04418 0,-0.100541 -0.04115,-0.125501 l -0.170145,-0.103237 c -0.03145,-0.01898 -0.07414,-0.05168 -0.107597,-0.08168 -0.613777,-0.389512 -1.020991,-1.070922 -1.020991,-1.846899 0,-1.210953 0.990604,-2.192583 2.212363,-2.192583 1.22176,0 2.212245,0.98163 2.212245,2.192583 0,0.775977 -0.407096,1.457387 -1.02099,1.846899 -0.03323,0.03 -0.07603,0.06269 -0.107361,0.08168 L 87.0327,89.781635 c -0.04091,0.02496 -0.05959,0.08132 -0.04115,0.125501 l 1.401719,3.357016 c 0.01845,0.04418 0.06858,0.06246 0.111735,0.04078 l 0.679873,-0.359747 c 0.04162,-0.02402 0.10807,-0.02203 0.147798,0.005 l 1.541714,1.048658 c 0.03973,0.02683 0.100266,0.02133 0.134201,-0.0123 l 1.414725,-1.401842 c 0.03417,-0.03387 0.03973,-0.09386 0.01242,-0.133235 l -1.077036,-1.555355 c -0.02719,-0.03937 -0.03228,-0.106635 -0.01111,-0.14964 l 0.591902,-1.465355 c 0.01454,-0.04558 0.06491,-0.09023 0.112445,-0.09878 l 1.895957,-0.34967 c 0.04729,-0.0086 0.0862,-0.05507 0.0862,-0.102885 l 2.34e-4,-1.982595 c 1.17e-4,-0.04793 -0.03866,-0.0941 -0.08596,-0.103002"
   id="path2"
   style="fill:#000000;fill-opacity:1;stroke:#000000;stroke-width:2.2;stroke-linecap:round;stroke-linejoin:round;stroke-dasharray:none;stroke-opacity:1" />
<path
   fill-rule="evenodd"
   fill="#0099B0"
   d="m 81.327737,101.07826 h 0.427196 v -1.435946 c 0,-0.518646 -0.360155,-0.693012 -0.883598,-0.693012 -0.318298,0 -0.552765,0.08285 -0.716053,0.307133 l 0.33497,0.253112 c 0.07532,-0.120345 0.180078,-0.162062 0.402012,-0.162062 0.305647,0 0.435473,0.07078 0.435473,0.269869 v 0.21995 h -0.590484 c -0.456401,0 -0.690868,0.286506 -0.690868,0.622586 0,0.36525 0.276323,0.64333 0.749514,0.64333 0.288975,0 0.435591,-0.0663 0.523443,-0.21175 h 0.0084 z m 0,-0.73883 c 0,0.32799 -0.121431,0.36525 -0.47733,0.36525 -0.288975,0 -0.402129,-0.12456 -0.402129,-0.26553 0,-0.15363 0.117292,-0.25335 0.368668,-0.25335 h 0.510791 z"
   id="path4"
   style="fill:#000000;fill-opacity:1;stroke:#000000;stroke-width:1.6;stroke-dasharray:none;stroke-opacity:1" />
<path
   fill-rule="evenodd"
   fill="#0099B0"
   d="m 82.224104,101.07826 h 0.427078 v -1.265915 c 0,-0.306899 0.205262,-0.4399 0.414662,-0.4399 0.108898,0 0.180078,0.02906 0.280581,0.10394 L 83.65621,99.11113 c -0.129826,-0.0996 -0.272067,-0.161828 -0.443868,-0.161828 -0.226072,0 -0.418801,0.08308 -0.552766,0.249011 h -0.0084 v -0.224051 h -0.427078 z"
   id="path6"
   style="fill:#000000;fill-opacity:1;stroke:#000000;stroke-width:1.6;stroke-dasharray:none;stroke-opacity:1" />
<path
   fill-rule="evenodd"
   fill="#0099B0"
   d="m 84.933778,101.07826 h 0.427078 v -2.95497 h -0.427078 v 1.075023 c -0.159149,-0.149406 -0.330831,-0.249011 -0.548627,-0.249011 -0.259652,0 -0.448006,0.116011 -0.569437,0.273971 -0.117293,0.149172 -0.150754,0.28604 -0.150754,0.801057 0,0.51864 0.03346,0.65551 0.150754,0.80492 0.121431,0.15772 0.309785,0.27397 0.569437,0.27397 0.217796,0 0.414663,-0.0998 0.548627,-0.24491 z m -0.418801,-1.705815 c 0.397873,0 0.418801,0.348849 0.418801,0.651885 0,0.30713 -0.02093,0.65551 -0.418801,0.65551 -0.402011,0 -0.422939,-0.32776 -0.422939,-0.65551 0,-0.323893 0.02093,-0.651885 0.422939,-0.651885"
   id="path8"
   style="fill:#000000;fill-opacity:1;stroke:#000000;stroke-width:1.6;stroke-dasharray:none;stroke-opacity:1" />
<polygon
   fill-rule="evenodd"
   fill="#0099B0"
   points="99.809,175.398 99.736,175.398 95.664,162.826 93.043,162.826 88.971,175.398 88.9,175.398 85.464,162.826 81.64,162.826 87.377,180.781 90.564,180.781 94.318,168.208 94.389,168.208 98.143,180.781 101.332,180.781 107.068,162.826 103.242,162.826 "
   id="polygon10"
   style="fill:#000000;fill-opacity:1;stroke:#000000;stroke-width:13.5928;stroke-dasharray:none;stroke-opacity:1"
   transform="matrix(0.11823862,0,0,0.11718152,75.936409,79.894063)" />
<path
   fill-rule="evenodd"
   fill="#0099B0"
   d="m 89.91056,101.07826 h 0.427196 v -1.435946 c 0,-0.518646 -0.360273,-0.693012 -0.883597,-0.693012 -0.318179,0 -0.552883,0.08285 -0.716171,0.307133 l 0.335088,0.253112 c 0.07532,-0.120345 0.179841,-0.162062 0.401776,-0.162062 0.305764,0 0.43559,0.07078 0.43559,0.269869 v 0.21995 h -0.590484 c -0.456283,0 -0.690987,0.286506 -0.690987,0.622586 0,0.36525 0.276443,0.64333 0.749633,0.64333 0.288858,0 0.435592,-0.0663 0.523562,-0.21175 h 0.0083 v 0.18679 z m 0,-0.73883 c 0,0.32799 -0.121431,0.36525 -0.477329,0.36525 -0.288857,0 -0.402011,-0.12456 -0.402011,-0.26553 0,-0.15363 0.117292,-0.25335 0.368549,-0.25335 h 0.510791 z"
   id="path12"
   style="fill:#000000;fill-opacity:1;stroke:#000000;stroke-width:1.6;stroke-dasharray:none;stroke-opacity:1" />
<path
   fill-rule="evenodd"
   fill="#0099B0"
   d="m 90.807045,101.07826 h 0.42696 v -1.265915 c 0,-0.306899 0.205026,-0.4399 0.414545,-0.4399 0.109016,0 0.180078,0.02906 0.28058,0.10394 l 0.309904,-0.365255 c -0.129827,-0.0996 -0.272304,-0.161828 -0.443868,-0.161828 -0.226073,0 -0.418683,0.08308 -0.552647,0.249011 h -0.0085 v -0.224051 h -0.42696 z"
   id="path14"
   style="fill:#000000;fill-opacity:1;stroke:#000000;stroke-width:1.6;stroke-dasharray:none;stroke-opacity:1" />
<path
   fill-rule="evenodd"
   fill="#0099B0"
   d="m 93.997124,100.18604 v -0.348853 c 0,-0.543605 -0.406031,-0.888002 -0.874966,-0.888002 -0.410406,0 -0.875203,0.265534 -0.875203,1.082995 0,0.86327 0.506653,1.07092 0.942245,1.07092 0.284718,0 0.556785,-0.0996 0.766186,-0.3403 l -0.309903,-0.26155 c -0.125689,0.1289 -0.301628,0.20343 -0.464679,0.20343 -0.293232,0 -0.506653,-0.17436 -0.506653,-0.51864 z m -1.322973,-0.348736 c 0.0083,-0.319554 0.19675,-0.489819 0.448007,-0.489819 0.251257,0 0.435591,0.170265 0.448006,0.489819 z"
   id="path16"
   style="fill:#000000;fill-opacity:1;stroke:#000000;stroke-width:1.6;stroke-dasharray:none;stroke-opacity:1" />
<path
   fill-rule="evenodd"
   fill="#0099B0"
   d="m 75.93641,96.700823 c 0,0.456423 0.06692,0.630789 0.23021,0.809256 0.117293,0.128665 0.31416,0.269635 0.644992,0.269635 0.330714,0 0.527581,-0.14097 0.644874,-0.269635 0.163287,-0.178467 0.230328,-0.35295 0.230328,-0.809256 0,-0.452438 -0.06704,-0.626687 -0.230328,-0.805154 -0.117293,-0.128665 -0.31416,-0.269869 -0.644874,-0.269869 -0.330832,0 -0.527699,0.141204 -0.644992,0.269869 -0.163287,0.178584 -0.23021,0.352716 -0.23021,0.805154 m 1.323208,0.0041 c 0,0.303032 -0.02507,0.385879 -0.104641,0.498021 -0.0629,0.08718 -0.196867,0.153626 -0.343365,0.153626 -0.146616,0 -0.28058,-0.06632 -0.343365,-0.153626 -0.07957,-0.112142 -0.104759,-0.194989 -0.104759,-0.502123 0,-0.30303 0.02518,-0.386113 0.104759,-0.498021 0.06278,-0.08718 0.196749,-0.153625 0.343365,-0.153625 0.146498,0 0.280462,0.06633 0.343365,0.153625 0.07957,0.111908 0.104641,0.194991 0.104641,0.502123"
   id="path18"
   style="fill:#000000;fill-opacity:1;stroke:#000000;stroke-width:1.6;stroke-dasharray:none;stroke-opacity:1" />
<path
   fill-rule="evenodd"
   fill="#0099B0"
   d="m 81.785557,96.862652 v -0.348616 c 0,-0.54384 -0.40615,-0.888236 -0.875085,-0.888236 -0.410524,0 -0.875202,0.265768 -0.875202,1.083226 0,0.863042 0.506653,1.070688 0.942126,1.070688 0.284836,0 0.556903,-0.0996 0.766304,-0.340295 l -0.309903,-0.261316 c -0.12557,0.128666 -0.301391,0.203428 -0.464678,0.203428 -0.293232,0 -0.506771,-0.174366 -0.506771,-0.518879 z m -1.323209,-0.348499 c 0.0084,-0.319788 0.196867,-0.489819 0.448124,-0.489819 0.251258,0 0.435473,0.170031 0.448007,0.489819 z"
   id="path20"
   style="fill:#000000;fill-opacity:1;stroke:#000000;stroke-width:1.6;stroke-dasharray:none;stroke-opacity:1" />
<path
   fill-rule="evenodd"
   fill="#0099B0"
   d="m 82.150086,97.754754 h 0.427078 v -1.253021 c 0,-0.28651 0.180078,-0.452439 0.42294,-0.452439 0.238723,0 0.418801,0.165929 0.418801,0.452439 v 1.253021 h 0.427078 v -1.398445 c 0,-0.477397 -0.376827,-0.730509 -0.707658,-0.730509 -0.226073,0 -0.418801,0.08308 -0.552648,0.249011 h -0.0085 v -0.224052 h -0.427078 z"
   id="path22"
   style="fill:#000000;fill-opacity:1;stroke:#000000;stroke-width:1.6;stroke-dasharray:none;stroke-opacity:1" />
<path
   fill-rule="evenodd"
   fill="#0099B0"
   d="m 85.00082,97.402155 c 0.272185,0.253112 0.590483,0.377676 0.933848,0.377676 0.49412,0 0.879341,-0.236472 0.879341,-0.647428 0,-0.335959 -0.175703,-0.601727 -0.61555,-0.630789 l -0.35176,-0.02472 c -0.213539,-0.01676 -0.280462,-0.108042 -0.280462,-0.199326 0,-0.145071 0.09211,-0.253112 0.364175,-0.253112 0.230447,0 0.402247,0.07898 0.569673,0.194989 l 0.263673,-0.306898 c -0.209401,-0.174366 -0.46054,-0.286508 -0.833465,-0.286508 -0.448006,0 -0.791371,0.219949 -0.791371,0.647427 0,0.360919 0.259652,0.568565 0.611294,0.597626 l 0.376945,0.03316 c 0.146734,0.0123 0.259652,0.05812 0.259652,0.207528 0,0.178468 -0.176058,0.269635 -0.418801,0.269635 -0.284719,0 -0.485725,-0.09105 -0.66994,-0.269635 z"
   id="path24"
   style="fill:#000000;fill-opacity:1;stroke:#000000;stroke-width:1.6;stroke-dasharray:none;stroke-opacity:1" />
<path
   fill-rule="evenodd"
   fill="#0099B0"
   d="m 87.056871,96.700823 c 0,0.456423 0.06716,0.630789 0.230447,0.809256 0.117293,0.128665 0.314042,0.269635 0.644755,0.269635 0.33095,0 0.5277,-0.14097 0.644992,-0.269635 0.163288,-0.178467 0.230211,-0.35295 0.230211,-0.809256 0,-0.452438 -0.06692,-0.626687 -0.230211,-0.805154 -0.117292,-0.128665 -0.314042,-0.269869 -0.644992,-0.269869 -0.330713,0 -0.527462,0.141204 -0.644755,0.269869 -0.163287,0.178584 -0.230447,0.352716 -0.230447,0.805154 m 1.323209,0.0041 c 0,0.303032 -0.02495,0.385879 -0.104641,0.498021 -0.06279,0.08718 -0.19675,0.153626 -0.343366,0.153626 -0.14638,0 -0.28058,-0.06632 -0.343128,-0.153626 -0.07969,-0.112142 -0.104878,-0.194989 -0.104878,-0.502123 0,-0.30303 0.02519,-0.386113 0.104878,-0.498021 0.06255,-0.08718 0.196748,-0.153625 0.343128,-0.153625 0.146616,0 0.28058,0.06633 0.343366,0.153625 0.07969,0.111908 0.104641,0.194991 0.104641,0.502123"
   id="path26"
   style="fill:#000000;fill-opacity:1;stroke:#000000;stroke-width:1.6;stroke-dasharray:none;stroke-opacity:1" />
<path
   fill-rule="evenodd"
   fill="#0099B0"
   d="m 89.171924,97.049439 c 0,0.477163 0.376944,0.730275 0.711914,0.730275 0.221697,0 0.414545,-0.08308 0.548509,-0.249011 h 0.0083 v 0.224286 h 0.426959 v -2.10423 h -0.426959 v 1.253258 c 0,0.286274 -0.180078,0.452437 -0.41892,0.452437 -0.242744,0 -0.422821,-0.166163 -0.422821,-0.452437 v -1.253258 h -0.42696 z"
   id="path28"
   style="fill:#000000;fill-opacity:1;stroke:#000000;stroke-width:1.6;stroke-dasharray:none;stroke-opacity:1" />
<path
   fill-rule="evenodd"
   fill="#0099B0"
   d="m 91.336045,97.754754 h 0.427197 v -1.265678 c 0,-0.307133 0.205025,-0.439899 0.414544,-0.439899 0.109016,0 0.180077,0.02906 0.280581,0.103706 l 0.309903,-0.365255 c -0.130063,-0.0996 -0.272067,-0.161828 -0.443868,-0.161828 -0.226072,0 -0.41892,0.08308 -0.552884,0.249011 h -0.0083 v -0.224052 h -0.427196 z"
   id="path30"
   style="fill:#000000;fill-opacity:1;stroke:#000000;stroke-width:1.6;stroke-dasharray:none;stroke-opacity:1" />
<path
   fill-rule="evenodd"
   fill="#0099B0"
   d="m 94.128487,97.136621 c -0.104641,0.128666 -0.255395,0.21995 -0.431098,0.21995 -0.347503,0 -0.552884,-0.195224 -0.552884,-0.65188 0,-0.460524 0.205263,-0.655514 0.552884,-0.655514 0.175703,0 0.326575,0.09128 0.431098,0.21995 l 0.314042,-0.278072 C 94.258432,95.779308 94.002799,95.6258 93.68048,95.6258 c -0.489862,0 -0.963052,0.307133 -0.963052,1.078891 0,0.768125 0.47319,1.075023 0.963052,1.075023 0.322437,0 0.57807,-0.153625 0.762049,-0.365021 z"
   id="path32"
   style="fill:#000000;fill-opacity:1;stroke:#000000;stroke-width:1.6;stroke-dasharray:none;stroke-opacity:1" />
<path
   fill-rule="evenodd"
   fill="#0099B0"
   d="m 96.301595,96.862652 v -0.348616 c 0,-0.54384 -0.406505,-0.888236 -0.875203,-0.888236 -0.410642,0 -0.875202,0.265768 -0.875202,1.083226 0,0.863042 0.506653,1.070688 0.942243,1.070688 0.28472,0 0.557023,-0.0996 0.766188,-0.340295 l -0.309905,-0.261316 c -0.125687,0.128666 -0.30139,0.203428 -0.464677,0.203428 -0.293232,0 -0.506653,-0.174366 -0.506653,-0.518879 z m -1.323209,-0.348499 c 0.0083,-0.319788 0.19675,-0.489819 0.448006,-0.489819 0.251257,0 0.435355,0.170031 0.448007,0.489819 z"
   id="path34"
   style="fill:#000000;fill-opacity:1;stroke:#000000;stroke-width:1.6;stroke-dasharray:none;stroke-opacity:1" />
<path
   fill="#0099B0"
   d="m 78.897223,97.356571 c 0.402012,0 0.42294,-0.327991 0.42294,-0.651646 0,-0.327991 -0.02093,-0.655748 -0.42294,-0.655748 -0.397754,0 -0.418801,0.348616 -0.418801,0.655748 0,0.303032 0.02093,0.651646 0.418801,0.651646 m -0.847534,3.721689 v -5.427383 h 0.428733 v 0.21995 c 0.134083,-0.145305 0.330832,-0.24491 0.548627,-0.24491 0.259534,0 0.448125,0.116244 0.569556,0.273971 0.117174,0.149406 0.150636,0.286275 0.150636,0.805154 0,0.514543 -0.03346,0.651647 -0.150636,0.800819 -0.121431,0.157726 -0.310022,0.27397 -0.569556,0.27397 -0.217795,0 -0.389478,-0.0996 -0.548627,-0.249011 l -0.0015,1.667493 c 0.14236,-0.165929 0.33497,-0.249011 0.561043,-0.249011 0.330831,0 0.707658,0.253112 0.707658,0.730276 v 1.398682 H 79.318508 V 99.825 c 0,-0.286509 -0.180078,-0.452438 -0.418801,-0.452438 -0.242863,0 -0.422822,0.165929 -0.422822,0.452438 v 1.25326 z"
   id="path36"
   style="fill:#000000;fill-opacity:1;stroke:#000000;stroke-width:1.6;stroke-dasharray:none;stroke-opacity:1" />
</svg>
