<?xml version="1.0" encoding="UTF-8" standalone="no"?>
<!-- Generator: Adobe Illustrator 13.0.2, SVG Export Plug-In . SVG Version: 6.00 Build 14948)  -->

<svg
   version="1.2"
   id="Layer_1"
   x="0px"
   y="0px"
   viewBox="0 0 172.238 180.994"
   xml:space="preserve"
   sodipodi:docname="oshw-logo.svg"
   inkscape:version="1.2.1 (9c6d41e410, 2022-07-14)"
   xmlns:inkscape="http://www.inkscape.org/namespaces/inkscape"
   xmlns:sodipodi="http://sodipodi.sourceforge.net/DTD/sodipodi-0.dtd"
   xmlns="http://www.w3.org/2000/svg"
   xmlns:svg="http://www.w3.org/2000/svg"><defs
   id="defs41" /><sodipodi:namedview
   id="namedview39"
   pagecolor="#505050"
   bordercolor="#eeeeee"
   borderopacity="1"
   inkscape:showpageshadow="0"
   inkscape:pageopacity="0"
   inkscape:pagecheckerboard="0"
   inkscape:deskcolor="#505050"
   showgrid="false"
   inkscape:zoom="2.3700911"
   inkscape:cx="163.0739"
   inkscape:cy="97.675572"
   inkscape:window-width="1920"
   inkscape:window-height="991"
   inkscape:window-x="-9"
   inkscape:window-y="-9"
   inkscape:window-maximized="1"
   inkscape:current-layer="Layer_1" />
<path
   fill="#0099B0"
   d="M 94.396125,86.385375 92.34125,86.00325 c -0.05,-0.0094 -0.10475,-0.05637 -0.121625,-0.104625 l -0.629875,-1.4695 c -0.0235,-0.04537 -0.019,-0.116625 0.01,-0.158875 l 1.19725,-1.745 c 0.02863,-0.042 0.023,-0.105875 -0.01313,-0.142 L 91.2885,80.887875 c -0.03612,-0.03612 -0.09987,-0.042 -0.141875,-0.01312 L 89.371,82.09325 c -0.042,0.02887 -0.114,0.034 -0.159625,0.0115 l -1.4245,-0.583125 c -0.04837,-0.016 -0.0955,-0.07013 -0.105,-0.12025 L 87.28625,79.276 c -0.0092,-0.05012 -0.05862,-0.09112 -0.109625,-0.09112 h -2.115 c -0.05088,0 -0.10025,0.041 -0.1095,0.09112 l -0.3955,2.125375 c -0.0095,0.05012 -0.0565,0.10425 -0.105,0.12025 L 83.027,82.10475 c -0.04575,0.0225 -0.11775,0.01738 -0.159625,-0.0115 l -1.7755,-1.2185 c -0.04212,-0.02887 -0.106,-0.023 -0.142,0.01312 l -1.4955,1.495375 c -0.036,0.03612 -0.042,0.1 -0.01313,0.142 l 1.197375,1.745 c 0.02875,0.04225 0.03325,0.1135 0.0099,0.158875 l -0.63,1.4695 c -0.01675,0.04825 -0.07138,0.09525 -0.121625,0.104625 l -2.05475,0.382125 c -0.05025,0.0095 -0.09112,0.05875 -0.09112,0.10975 l 1e-4,2.11488 c 0,0.051 0.041,0.100625 0.09113,0.10975 l 2.004375,0.373 c 0.05012,0.0091 0.10375,0.05675 0.119,0.105375 l 0.62575,1.563125 c 0.02237,0.04587 0.01713,0.117625 -0.01188,0.159625 L 79.441,92.58 c -0.02875,0.042 -0.02287,0.106 0.01313,0.142125 l 1.49562,1.495375 c 0.036,0.03588 0.09988,0.04175 0.142,0.01313 L 82.7215,93.112 c 0.042,-0.02875 0.112375,-0.031 0.15625,-0.0054 l 0.71875,0.38375 c 0.0455,0.02325 0.09862,0.0036 0.118125,-0.0435 l 1.482,-3.580875 c 0.01963,-0.04712 0,-0.10725 -0.0435,-0.133875 L 84.97325,89.622 C 84.94,89.60175 84.89488,89.56687 84.8595,89.53487 c -0.648875,-0.4155 -1.079375,-1.142375 -1.079375,-1.970125 0,-1.29175 1.04725,-2.338875 2.338875,-2.338875 1.291625,0 2.33875,1.047125 2.33875,2.338875 0,0.82775 -0.430375,1.554625 -1.079375,1.970125 -0.03513,0.032 -0.08038,0.06687 -0.1135,0.08713 L 87.085,89.732125 c -0.04325,0.02663 -0.063,0.08675 -0.0435,0.133875 l 1.481875,3.581 c 0.0195,0.04712 0.0725,0.06663 0.118125,0.0435 l 0.71875,-0.38375 c 0.044,-0.02563 0.11425,-0.0235 0.15625,0.0054 l 1.629875,1.118625 c 0.042,0.02863 0.106,0.02275 0.141875,-0.01313 l 1.495625,-1.495375 c 0.03612,-0.03612 0.042,-0.100125 0.01313,-0.142125 L 91.658375,90.921 c -0.02875,-0.042 -0.03413,-0.11375 -0.01175,-0.159625 l 0.62575,-1.563125 C 92.28775,89.149625 92.341,89.102 92.39125,89.092875 l 2.004375,-0.373 c 0.05,-0.0091 0.09113,-0.05875 0.09113,-0.10975 L 94.487,86.49525 c 1.25e-4,-0.05112 -0.04087,-0.100375 -0.09087,-0.109875"
   id="path2"
   style="fill:#000000;fill-opacity:1;stroke-width:1" />
<path
   fill-rule="evenodd"
   fill="#0099B0"
   d="m 81.05375,101.7825 h 0.451625 v -1.53175 c 0,-0.55325 -0.38075,-0.73925 -0.934125,-0.73925 -0.3365,0 -0.584375,0.08837 -0.757,0.327625 l 0.354125,0.270005 c 0.07963,-0.12838 0.190375,-0.17288 0.425,-0.17288 0.323125,0 0.460375,0.0755 0.460375,0.28788 v 0.23462 H 80.4295 c -0.4825,0 -0.730375,0.30563 -0.730375,0.66413 0,0.38962 0.292125,0.68625 0.792375,0.68625 0.3055,0 0.4605,-0.0707 0.553375,-0.22588 h 0.0089 z m 0,-0.78812 c 0,0.34987 -0.128375,0.38962 -0.504625,0.38962 -0.3055,0 -0.425125,-0.13287 -0.425125,-0.28325 0,-0.16387 0.124,-0.27025 0.38975,-0.27025 h 0.54 z"
   id="path4"
   style="fill:#000000;fill-opacity:1;stroke-width:1" />
<path
   fill-rule="evenodd"
   fill="#0099B0"
   d="m 82.001375,101.7825 h 0.4515 v -1.35037 c 0,-0.32738 0.217,-0.469255 0.438375,-0.469255 0.115125,0 0.190375,0.031 0.296625,0.110875 l 0.3275,-0.389625 c -0.13725,-0.10625 -0.287625,-0.172625 -0.46925,-0.172625 -0.239,0 -0.44275,0.08863 -0.584375,0.265625 h -0.0089 v -0.239 h -0.4515 z"
   id="path6"
   style="fill:#000000;fill-opacity:1;stroke-width:1" />
<path
   fill-rule="evenodd"
   fill="#0099B0"
   d="m 84.866,101.7825 h 0.4515 V 98.630375 H 84.866 v 1.14675 C 84.69775,99.61775 84.51625,99.5115 84.286,99.5115 c -0.2745,0 -0.473625,0.12375 -0.602,0.29225 -0.124,0.159125 -0.159375,0.30513 -0.159375,0.8545 0,0.55325 0.03538,0.69925 0.159375,0.85863 0.128375,0.16825 0.3275,0.29225 0.602,0.29225 0.23025,0 0.438375,-0.1065 0.58,-0.26125 z m -0.44275,-1.819625 c 0.420625,0 0.44275,0.372125 0.44275,0.695375 0,0.32763 -0.02213,0.69925 -0.44275,0.69925 -0.425,0 -0.447125,-0.34962 -0.447125,-0.69925 0,-0.3455 0.02213,-0.695375 0.447125,-0.695375"
   id="path8"
   style="fill:#000000;fill-opacity:1;stroke-width:1" />
<polygon
   fill-rule="evenodd"
   fill="#0099B0"
   points="107.068,162.826 103.242,162.826 99.809,175.398 99.736,175.398 95.664,162.826 93.043,162.826 88.971,175.398 88.9,175.398 85.464,162.826 81.64,162.826 87.377,180.781 90.564,180.781 94.318,168.208 94.389,168.208 98.143,180.781 101.332,180.781 "
   id="polygon10"
   style="fill:#000000;fill-opacity:1;stroke-width:8"
   transform="matrix(0.125,0,0,0.125,75.354125,79.184875)" />
<path
   fill-rule="evenodd"
   fill="#0099B0"
   d="M 90.127375,101.7825 H 90.579 v -1.53175 c 0,-0.55325 -0.380875,-0.73925 -0.934125,-0.73925 -0.336375,0 -0.5845,0.08837 -0.757125,0.327625 l 0.35425,0.270005 c 0.07962,-0.12838 0.190125,-0.17288 0.42475,-0.17288 0.32325,0 0.4605,0.0755 0.4605,0.28788 v 0.23462 H 89.503 c -0.482375,0 -0.7305,0.30563 -0.7305,0.66413 0,0.38962 0.29225,0.68625 0.7925,0.68625 0.305375,0 0.4605,-0.0707 0.5535,-0.22588 h 0.0088 v 0.19925 z m 0,-0.78812 c 0,0.34987 -0.128375,0.38962 -0.504625,0.38962 -0.305375,0 -0.425,-0.13287 -0.425,-0.28325 0,-0.16387 0.124,-0.27025 0.389625,-0.27025 h 0.54 z"
   id="path12"
   style="fill:#000000;fill-opacity:1;stroke-width:1" />
<path
   fill-rule="evenodd"
   fill="#0099B0"
   d="M 91.075125,101.7825 H 91.5265 v -1.35037 c 0,-0.32738 0.21675,-0.469255 0.43825,-0.469255 0.11525,0 0.190375,0.031 0.296625,0.110875 L 92.589,99.684125 C 92.45175,99.577875 92.301125,99.5115 92.11975,99.5115 c -0.239,0 -0.442625,0.08863 -0.58425,0.265625 h -0.009 v -0.239 h -0.451375 z"
   id="path14"
   style="fill:#000000;fill-opacity:1;stroke-width:1" />
<path
   fill-rule="evenodd"
   fill="#0099B0"
   d="m 94.447625,100.83075 v -0.37212 c 0,-0.57988 -0.42925,-0.947255 -0.925,-0.947255 -0.433875,0 -0.92525,0.28325 -0.92525,1.155255 0,0.92087 0.535625,1.14237 0.996125,1.14237 0.301,0 0.588625,-0.10625 0.81,-0.363 l -0.327625,-0.279 c -0.132875,0.1375 -0.318875,0.217 -0.49125,0.217 -0.31,0 -0.535625,-0.186 -0.535625,-0.55325 z m -1.398625,-0.372 c 0.0087,-0.34088 0.208,-0.5225 0.473625,-0.5225 0.265625,0 0.4605,0.18162 0.473625,0.5225 z"
   id="path16"
   style="fill:#000000;fill-opacity:1;stroke-width:1" />
<path
   fill-rule="evenodd"
   fill="#0099B0"
   d="m 75.354125,97.113 c 0,0.486875 0.07075,0.672875 0.243375,0.86325 0.124,0.13725 0.332125,0.287625 0.681875,0.287625 0.349625,0 0.55775,-0.150375 0.68175,-0.287625 0.172625,-0.190375 0.2435,-0.3765 0.2435,-0.86325 0,-0.482625 -0.07087,-0.6685 -0.2435,-0.858875 -0.124,-0.13725 -0.332125,-0.287875 -0.68175,-0.287875 -0.34975,0 -0.557875,0.150625 -0.681875,0.287875 -0.172625,0.1905 -0.243375,0.37625 -0.243375,0.858875 M 76.753,97.1174 c 0,0.32325 -0.0265,0.411625 -0.110625,0.53125 -0.0665,0.093 -0.208125,0.163875 -0.363,0.163875 -0.155,0 -0.296625,-0.07075 -0.363,-0.163875 -0.08413,-0.119625 -0.11075,-0.208 -0.11075,-0.535625 0,-0.32325 0.02662,-0.411875 0.11075,-0.53125 0.06637,-0.093 0.208,-0.163875 0.363,-0.163875 0.154875,0 0.2965,0.07075 0.363,0.163875 0.08413,0.119375 0.110625,0.208 0.110625,0.535625"
   id="path18"
   style="fill:#000000;fill-opacity:1;stroke-width:1" />
<path
   fill-rule="evenodd"
   fill="#0099B0"
   d="M 81.53775,97.285625 V 96.91375 c 0,-0.580125 -0.429375,-0.9475 -0.925125,-0.9475 -0.434,0 -0.92525,0.2835 -0.92525,1.1555 0,0.920625 0.535625,1.142125 0.996,1.142125 0.301125,0 0.58875,-0.10625 0.810125,-0.363 l -0.327625,-0.27875 c -0.13275,0.13725 -0.318625,0.217 -0.49125,0.217 -0.31,0 -0.53575,-0.186 -0.53575,-0.5535 z m -1.398875,-0.37175 c 0.0089,-0.341125 0.208125,-0.5225 0.47375,-0.5225 0.265625,0 0.460375,0.181375 0.473625,0.5225 z"
   id="path20"
   style="fill:#000000;fill-opacity:1;stroke-width:1" />
<path
   fill-rule="evenodd"
   fill="#0099B0"
   d="m 81.923125,98.23725 h 0.4515 V 96.900625 C 82.374625,96.595 82.565,96.418 82.82175,96.418 c 0.252375,0 0.44275,0.177 0.44275,0.482625 V 98.23725 H 83.716 V 96.7455 c 0,-0.50925 -0.398375,-0.77925 -0.748125,-0.77925 -0.239,0 -0.44275,0.08862 -0.58425,0.265625 h -0.009 v -0.239 h -0.4515 z"
   id="path22"
   style="fill:#000000;fill-opacity:1;stroke-width:1" />
<path
   fill-rule="evenodd"
   fill="#0099B0"
   d="m 84.936875,97.861125 c 0.28775,0.27 0.62425,0.402875 0.98725,0.402875 0.522375,0 0.929625,-0.25225 0.929625,-0.690625 C 86.85375,97.215 86.668,96.9315 86.203,96.9005 l -0.371875,-0.02637 c -0.22575,-0.01788 -0.2965,-0.11525 -0.2965,-0.212625 0,-0.15475 0.09737,-0.27 0.385,-0.27 0.243625,0 0.42525,0.08425 0.60225,0.208 l 0.27875,-0.327375 C 86.57925,96.086125 86.31375,95.9665 85.9195,95.9665 c -0.473625,0 -0.836625,0.234625 -0.836625,0.690625 0,0.385 0.2745,0.6065 0.64625,0.6375 l 0.3985,0.03538 c 0.155125,0.01313 0.2745,0.062 0.2745,0.221375 0,0.190375 -0.186125,0.287625 -0.44275,0.287625 -0.301,0 -0.5135,-0.09713 -0.70825,-0.287625 z"
   id="path24"
   style="fill:#000000;fill-opacity:1;stroke-width:1" />
<path
   fill-rule="evenodd"
   fill="#0099B0"
   d="m 87.1105,97.113 c 0,0.486875 0.071,0.672875 0.243625,0.86325 0.124,0.13725 0.332,0.287625 0.681625,0.287625 0.349875,0 0.557875,-0.150375 0.681875,-0.287625 C 88.89025,97.785875 88.961,97.59975 88.961,97.113 c 0,-0.482625 -0.07075,-0.6685 -0.243375,-0.858875 -0.124,-0.13725 -0.332,-0.287875 -0.681875,-0.287875 -0.349625,0 -0.557625,0.150625 -0.681625,0.287875 C 87.1815,96.444625 87.1105,96.630375 87.1105,97.113 m 1.398875,0.0044 c 0,0.32325 -0.02638,0.411625 -0.110625,0.53125 -0.06638,0.093 -0.208,0.163875 -0.363,0.163875 -0.15475,0 -0.296625,-0.07075 -0.36275,-0.163875 -0.08425,-0.119625 -0.110875,-0.208 -0.110875,-0.535625 0,-0.32325 0.02663,-0.411875 0.110875,-0.53125 0.06612,-0.093 0.208,-0.163875 0.36275,-0.163875 0.155,0 0.296625,0.07075 0.363,0.163875 0.08425,0.119375 0.110625,0.208 0.110625,0.535625"
   id="path26"
   style="fill:#000000;fill-opacity:1;stroke-width:1" />
<path
   fill-rule="evenodd"
   fill="#0099B0"
   d="m 89.3465,97.484875 c 0,0.509 0.3985,0.779 0.752625,0.779 0.234375,0 0.43825,-0.08862 0.579875,-0.265625 h 0.0087 v 0.23925 h 0.451375 V 95.992875 H 90.68775 v 1.336875 c 0,0.305375 -0.190375,0.482625 -0.442875,0.482625 -0.256625,0 -0.447,-0.17725 -0.447,-0.482625 V 95.992875 H 89.3465 Z"
   id="path28"
   style="fill:#000000;fill-opacity:1;stroke-width:1" />
<path
   fill-rule="evenodd"
   fill="#0099B0"
   d="M 91.634375,98.23725 H 92.086 v -1.350125 c 0,-0.327625 0.21675,-0.46925 0.43825,-0.46925 0.11525,0 0.190375,0.031 0.296625,0.110625 L 93.1485,96.138875 c -0.1375,-0.10625 -0.287625,-0.172625 -0.46925,-0.172625 -0.239,0 -0.442875,0.08862 -0.5845,0.265625 H 92.086 v -0.239 h -0.451625 z"
   id="path30"
   style="fill:#000000;fill-opacity:1;stroke-width:1" />
<path
   fill-rule="evenodd"
   fill="#0099B0"
   d="m 94.5865,97.577875 c -0.110625,0.13725 -0.27,0.234625 -0.45575,0.234625 -0.367375,0 -0.5845,-0.20825 -0.5845,-0.695375 0,-0.49125 0.217,-0.69925 0.5845,-0.69925 0.18575,0 0.34525,0.09737 0.45575,0.234625 l 0.332,-0.296625 C 94.723875,96.13 94.453625,95.96625 94.112875,95.96625 c -0.517875,0 -1.018125,0.327625 -1.018125,1.150875 0,0.819375 0.50025,1.14675 1.018125,1.14675 0.340875,0 0.611125,-0.163875 0.805625,-0.389375 z"
   id="path32"
   style="fill:#000000;fill-opacity:1;stroke-width:1" />
<path
   fill-rule="evenodd"
   fill="#0099B0"
   d="M 96.883875,97.285625 V 96.91375 c 0,-0.580125 -0.42975,-0.9475 -0.92525,-0.9475 -0.434125,0 -0.92525,0.2835 -0.92525,1.1555 0,0.920625 0.535625,1.142125 0.996125,1.142125 0.301,0 0.588875,-0.10625 0.81,-0.363 l -0.327625,-0.27875 c -0.132875,0.13725 -0.318625,0.217 -0.49125,0.217 -0.31,0 -0.535625,-0.186 -0.535625,-0.5535 z M 95.485,96.913875 c 0.0088,-0.341125 0.208,-0.5225 0.473625,-0.5225 0.265625,0 0.46025,0.181375 0.473625,0.5225 z"
   id="path34"
   style="fill:#000000;fill-opacity:1;stroke-width:1" />
<path
   fill="#0099B0"
   d="m 78.48425,97.8125 c 0.425,0 0.447125,-0.349875 0.447125,-0.695125 0,-0.349875 -0.02213,-0.6995 -0.447125,-0.6995 -0.4205,0 -0.44275,0.371875 -0.44275,0.6995 0,0.32325 0.02213,0.695125 0.44275,0.695125 m -0.896,3.97 V 95.993 h 0.45325 v 0.234625 c 0.14175,-0.155 0.34975,-0.26125 0.58,-0.26125 0.274375,0 0.47375,0.124 0.602125,0.29225 0.123875,0.159375 0.15925,0.305375 0.15925,0.858875 0,0.548875 -0.03538,0.695125 -0.15925,0.85425 C 79.09525,98.14 78.895875,98.264 78.6215,98.264 c -0.23025,0 -0.41175,-0.10625 -0.58,-0.265625 l -0.0016,1.77875 c 0.1505,-0.177 0.354125,-0.265625 0.593125,-0.265625 0.34975,0 0.748125,0.27 0.748125,0.779 v 1.492 h -0.4515 v -1.33687 c 0,-0.30563 -0.190375,-0.48263 -0.44275,-0.48263 -0.25675,0 -0.447,0.177 -0.447,0.48263 v 1.33687 z"
   id="path36"
   style="fill:#000000;fill-opacity:1;stroke-width:1" />
</svg>
